<?xml version="1.0" encoding="utf-8"?>
<!-- Generator: Adobe Illustrator 22.0.1, SVG Export Plug-In . SVG Version: 6.00 Build 0)  -->
<svg version="1.1" id="Layer_1" xmlns="http://www.w3.org/2000/svg" xmlns:xlink="http://www.w3.org/1999/xlink" x="0px" y="0px"
	 viewBox="0 0 24 24" style="enable-background:new 0 0 24 24;" xml:space="preserve">
<style type="text/css">
	.st0{fill:#221A1C;}
	.st1{fill:#231F20;}
</style>
<path d="M19.07868,6.40017l0.94006-1.40503L17.00489,2.9786l-0.71637,1.07068c-2.66345-1.43896-5.90039-1.44159-8.56555-0.00684
	L7.01112,2.9786L3.99726,4.99514l0.93237,1.39355c-2.79834,3.53619-2.57025,8.69946,0.69434,11.96405
	c0.45227,0.45227,0.94202,0.84406,1.45789,1.17999l-1.08875,1.98309l0.87695,0.48145l1.08154-1.96985
	c1.26996,0.63727,2.65802,0.96204,4.04834,0.96204c1.39087,0,2.77954-0.32501,4.04987-0.96277l1.07953,1.96667l0.87695-0.48145
	l-1.08685-1.97998c0.51538-0.33569,1.00464-0.72736,1.45648-1.1792C21.63703,15.09163,21.86762,9.936,19.07868,6.40017z
	 M6.331,17.64571c-3.12598-3.12598-3.12598-8.21191,0-11.33789c1.56299-1.56299,3.61572-2.34424,5.66894-2.34424
	s4.10596,0.78125,5.66895,2.34424c3.12598,3.12598,3.12598,8.21191,0,11.33789S9.45698,20.77169,6.331,17.64571z M15.93842,14.73018
	c-0.09229,0.1626-0.26172,0.25391-0.43604,0.25391c-0.0835,0-0.16748-0.02051-0.24561-0.06445l-3.99414-2.25586
	c-0.15674-0.08887-0.25391-0.25537-0.25391-0.43555V7.49434c0-0.27637,0.22363-0.5,0.5-0.5s0.5,0.22363,0.5,0.5v4.44189
	l3.74023,2.1123C15.9892,14.18477,16.07417,14.48946,15.93842,14.73018z"/>
</svg>
