<?xml version="1.0" encoding="utf-8"?>
<!-- Generator: Adobe Illustrator 22.0.1, SVG Export Plug-In . SVG Version: 6.00 Build 0)  -->
<svg version="1.1" id="Layer_1" xmlns="http://www.w3.org/2000/svg" xmlns:xlink="http://www.w3.org/1999/xlink" x="0px" y="0px"
	 viewBox="0 0 24 24" style="enable-background:new 0 0 24 24;" xml:space="preserve">
<style type="text/css">
	.st0{fill:#221A1C;}
	.st1{fill:#231F20;}
</style>
<path class="st1" d="M19.07887,6.3771l0.93988-1.40479l-3.01385-2.01654l-0.71625,1.0705
	c-2.66364-1.43896-5.90076-1.44141-8.5658-0.00684L7.01112,2.95577L3.99726,4.97231l0.93225,1.39337
	c-2.79797,3.53607-2.56995,8.69952,0.69421,11.96411c0.45227,0.45227,0.94208,0.84412,1.45795,1.18005l-1.08881,1.98352
	l0.87695,0.48145l1.08154-1.97034c1.26996,0.63721,2.65802,0.96204,4.04834,0.96204c1.39093,0,2.77948-0.32489,4.04981-0.96246
	l1.07959,1.96637l0.87695-0.48145l-1.08691-1.97968c0.51556-0.33582,1.005-0.72748,1.45703-1.1795
	C21.63734,15.06862,21.86787,9.91286,19.07887,6.3771z M6.33076,17.62276c-3.12549-3.12598-3.12549-8.21191,0-11.33789
	c1.56299-1.56299,3.61621-2.34424,5.66943-2.34424c2.05273,0,4.10596,0.78125,5.66895,2.34424
	c3.12598,3.12598,3.12598,8.21191,0,11.33789C14.54316,20.74727,9.45673,20.74923,6.33076,17.62276z M15.90009,8.75753
	l-3.20679,3.20679l3.18579,3.18579l-0.70703,0.70703l-3.18579-3.18579l-3.17944,3.17944L8.0998,15.14376l3.17944-3.17944
	L8.12324,8.80831l0.70703-0.70703l3.15601,3.15601l3.20678-3.20679L15.90009,8.75753z"/>
</svg>
