<?xml version="1.0" encoding="utf-8"?>
<!-- Generator: Adobe Illustrator 22.0.1, SVG Export Plug-In . SVG Version: 6.00 Build 0)  -->
<svg version="1.1" id="Layer_1" xmlns="http://www.w3.org/2000/svg" xmlns:xlink="http://www.w3.org/1999/xlink" x="0px" y="0px"
	 viewBox="0 0 24 24" style="enable-background:new 0 0 24 24;" xml:space="preserve">
<style type="text/css">
	.st0{fill:#221A1C;}
	.st1{fill:#231F20;}
</style>
<path d="M2,12C2,6.48584,6.48633,2,12,2s10,4.48584,10,10c0,3.15479-1.53711,6.0415-4.21582,7.91943
	c-0.22754,0.15771-0.53809,0.10352-0.69629-0.12256c-0.15918-0.22607-0.10352-0.53809,0.12207-0.69678
	C19.61816,17.41211,21,14.82422,21,12c0-4.9624-4.03711-9-9-9s-9,4.0376-9,9c0,2.95898,1.33984,5.47803,3.77344,7.09326
	c0.23047,0.15283,0.29297,0.46289,0.14062,0.69287c-0.1543,0.23145-0.46582,0.29199-0.69336,0.14014
	C3.49902,18.12012,2,15.30518,2,12z M12.28125,8.12061c-0.09277-0.0791-0.20801-0.11816-0.32227-0.11816
	c-0.11719,0-0.2334,0.04102-0.32812,0.12256l-3.4502,2.99561c-0.20801,0.18115-0.23047,0.49658-0.0498,0.70508
	c0.18262,0.20996,0.49805,0.23145,0.70605,0.0498l2.64551-2.29688V21.5c0,0.27637,0.22363,0.5,0.5,0.5s0.5-0.22363,0.5-0.5V9.59833
	l2.70996,2.28741c0.20898,0.17773,0.52539,0.15186,0.7041-0.05908c0.17871-0.21143,0.15137-0.52686-0.05957-0.70459
	L12.28125,8.12061z"/>
</svg>
