<?xml version="1.0" encoding="utf-8"?>
<!-- Generator: Adobe Illustrator 22.0.1, SVG Export Plug-In . SVG Version: 6.00 Build 0)  -->
<svg version="1.1" id="Layer_1" xmlns="http://www.w3.org/2000/svg" xmlns:xlink="http://www.w3.org/1999/xlink" x="0px" y="0px"
	 viewBox="0 0 24 24" style="enable-background:new 0 0 24 24;" xml:space="preserve">
<style type="text/css">
	.st0{fill:#221A1C;}
	.st1{fill:#231F20;}
</style>
<path d="M15.83978,12.07376c0.11816,0.09424,0.1875,0.23779,0.18848,0.38965s-0.06836,0.29541-0.18652,0.39062l-5,4.03125
	c-0.0918,0.07471-0.20312,0.11084-0.31348,0.11084c-0.14551,0-0.29004-0.06348-0.38965-0.18604
	c-0.17285-0.21533-0.13867-0.52979,0.07617-0.70312l3.89661-3.14209H4.03412v-1H14.0968l-3.88007-3.08643
	c-0.21582-0.17188-0.25195-0.48633-0.08008-0.70215c0.17285-0.21729,0.48926-0.25146,0.70312-0.08008L15.83978,12.07376z
	 M19.03412,1.99612v20h1v-20H19.03412z"/>
</svg>
