<?xml version="1.0" encoding="utf-8"?>
<!-- Generator: Adobe Illustrator 22.0.1, SVG Export Plug-In . SVG Version: 6.00 Build 0)  -->
<svg version="1.1" id="Layer_1" xmlns="http://www.w3.org/2000/svg" xmlns:xlink="http://www.w3.org/1999/xlink" x="0px" y="0px"
	 viewBox="0 0 24 24" style="enable-background:new 0 0 24 24;" xml:space="preserve">
<style type="text/css">
	.st0{fill:#221A1C;}
	.st1{fill:#231F20;}
</style>
<path class="st1" d="M21.81456,8.94876l-3.95898,3.90723c-0.09717,0.09619-0.22412,0.14404-0.35107,0.14404
	c-0.12891,0-0.25781-0.0498-0.35596-0.14893c-0.19385-0.19629-0.19189-0.51318,0.00488-0.70703l3.1991-3.15723H7.99669
	c-2.76025,0-5.00586,2.24561-5.00586,5.00586s2.24561,5.00586,5.00586,5.00586h6.00049v0.99512H7.99669
	c-3.30909,0-6.00098-2.69189-6.00098-6.00098S4.6876,7.99173,7.99669,7.99173h12.40051L17.15636,4.8511
	c-0.19824-0.19189-0.20312-0.50879-0.01074-0.70703c0.19287-0.19824,0.50928-0.20313,0.70703-0.01074l3.9458,3.82422
	C22.07335,8.24417,22.07482,8.67337,21.81456,8.94876z M15.99425,19.9902h1v-1h-1V19.9902z"/>
</svg>
