<?xml version="1.0" encoding="utf-8"?>
<!-- Generator: Adobe Illustrator 22.0.1, SVG Export Plug-In . SVG Version: 6.00 Build 0)  -->
<svg version="1.1" id="Layer_1" xmlns="http://www.w3.org/2000/svg" xmlns:xlink="http://www.w3.org/1999/xlink" x="0px" y="0px"
	 viewBox="0 0 24 24" style="enable-background:new 0 0 24 24;" xml:space="preserve">
<style type="text/css">
	.st0{fill:#221A1C;}
	.st1{fill:#231F20;}
</style>
<path d="M22.00034,12.0002c0,5.51416-4.48633,10-10,10s-10-4.48584-10-10c0-3.15479,1.53711-6.0415,4.21582-7.91943
	C6.4437,3.92306,6.75425,3.97725,6.91245,4.20333C7.07163,4.4294,7.01597,4.74142,6.79038,4.90011
	c-2.4082,1.68799-3.79004,4.27588-3.79004,7.1001c0,4.9624,4.03711,9,9,9s9-4.0376,9-9c0-2.95898-1.33984-5.47803-3.77344-7.09326
	c-0.23047-0.15283-0.29297-0.46289-0.14062-0.69287c0.1543-0.23145,0.46582-0.29199,0.69336-0.14014
	C20.50132,5.88009,22.00034,8.69503,22.00034,12.0002z M11.71909,15.8796c0.09277,0.0791,0.20801,0.11816,0.32227,0.11816
	c0.11719,0,0.2334-0.04102,0.32812-0.12256l3.4502-2.99561c0.20801-0.18115,0.23047-0.49658,0.0498-0.70508
	c-0.18262-0.20996-0.49805-0.23145-0.70605-0.0498l-2.64551,2.29688V2.5002c0-0.27637-0.22363-0.5-0.5-0.5s-0.5,0.22363-0.5,0.5
	v11.90167l-2.70996-2.28741c-0.20898-0.17773-0.52539-0.15186-0.7041,0.05908c-0.17871,0.21143-0.15137,0.52686,0.05957,0.70459
	L11.71909,15.8796z"/>
</svg>
