<?xml version="1.0" encoding="utf-8"?>
<!-- Generator: Adobe Illustrator 22.0.1, SVG Export Plug-In . SVG Version: 6.00 Build 0)  -->
<svg version="1.1" id="Layer_1" xmlns="http://www.w3.org/2000/svg" xmlns:xlink="http://www.w3.org/1999/xlink" x="0px" y="0px"
	 viewBox="0 0 24 24" style="enable-background:new 0 0 24 24;" xml:space="preserve">
<style type="text/css">
	.st0{fill:#221A1C;}
	.st1{fill:#231F20;}
	.st2{fill:none;}
</style>
<g>
	<path d="M19.07066,4.92892c-3.89746-3.89844-10.24219-3.90039-14.1416,0c-3.89941,3.89893-3.89941,10.24316,0,14.14209
		c1.94922,1.94971,4.50977,2.92432,7.07031,2.92432c2.56152,0,5.12207-0.97461,7.07129-2.92432
		C22.97007,15.17208,22.97007,8.82784,19.07066,4.92892z M18.36362,18.36397c-3.51074,3.50977-9.21875,3.50781-12.72754,0
		c-3.50879-3.50928-3.50879-9.21875,0-12.72803c1.75488-1.75439,4.05957-2.63184,6.36426-2.63184
		c2.30371,0,4.6084,0.87744,6.36328,2.63184C21.87241,9.14522,21.87241,14.8547,18.36362,18.36397z"/>
	<path d="M15.69614,8.03475c-0.06104-0.02527-0.12585-0.03845-0.19092-0.03845h-5c-0.27637,0-0.5,0.22363-0.5,0.5
		s0.22363,0.5,0.5,0.5h3.79297l-6.14648,6.14648c-0.19531,0.19531-0.19531,0.51172,0,0.70703
		c0.09766,0.09766,0.22559,0.14648,0.35352,0.14648s0.25586-0.04883,0.35352-0.14648l6.14648-6.14648v3.79297
		c0,0.27637,0.22363,0.5,0.5,0.5s0.5-0.22363,0.5-0.5v-5c0-0.06506-0.01318-0.12982-0.03845-0.19092
		C15.91611,8.18294,15.81858,8.08541,15.69614,8.03475z"/>
</g>
</svg>
