<?xml version="1.0" encoding="utf-8"?>
<!-- Generator: Adobe Illustrator 22.0.1, SVG Export Plug-In . SVG Version: 6.00 Build 0)  -->
<svg version="1.1" id="Layer_1" xmlns="http://www.w3.org/2000/svg" xmlns:xlink="http://www.w3.org/1999/xlink" x="0px" y="0px"
	 viewBox="0 0 24 24" style="enable-background:new 0 0 24 24;" xml:space="preserve">
<style type="text/css">
	.st0{fill:#221A1C;}
	.st1{fill:#231F20;}
</style>
<path d="M12,2c5.51416,0,10,4.48633,10,10s-4.48584,10-10,10c-3.15479,0-6.0415-1.53711-7.91943-4.21582
	c-0.15771-0.22754-0.10352-0.53809,0.12256-0.69629c0.22607-0.15918,0.53809-0.10352,0.69678,0.12207
	C6.58789,19.61816,9.17578,21,12,21c4.9624,0,9-4.03711,9-9s-4.0376-9-9-9C9.04102,3,6.52197,4.33984,4.90674,6.77344
	C4.75391,7.00391,4.44385,7.06641,4.21387,6.91406C3.98242,6.75977,3.92188,6.44824,4.07373,6.2207C5.87988,3.49902,8.69482,2,12,2z
	 M15.87939,12.28125c0.0791-0.09277,0.11816-0.20801,0.11816-0.32227c0-0.11719-0.04102-0.2334-0.12256-0.32812l-2.99561-3.4502
	c-0.18115-0.20801-0.49658-0.23047-0.70508-0.0498c-0.20996,0.18262-0.23145,0.49805-0.0498,0.70605l2.29688,2.64551H2.5
	c-0.27637,0-0.5,0.22363-0.5,0.5s0.22363,0.5,0.5,0.5h11.90167l-2.28741,2.70996c-0.17773,0.20898-0.15186,0.52539,0.05908,0.7041
	c0.21143,0.17871,0.52686,0.15137,0.70459-0.05957L15.87939,12.28125z"/>
</svg>
