<?xml version="1.0" encoding="utf-8"?>
<!-- Generator: Adobe Illustrator 22.0.1, SVG Export Plug-In . SVG Version: 6.00 Build 0)  -->
<svg version="1.1" id="Layer_1" xmlns="http://www.w3.org/2000/svg" xmlns:xlink="http://www.w3.org/1999/xlink" x="0px" y="0px"
	 viewBox="0 0 24 24" style="enable-background:new 0 0 24 24;" xml:space="preserve">
<style type="text/css">
	.st0{fill:#221A1C;}
	.st1{fill:#231F20;}
</style>
<path d="M21.99644,3.0054v1h-8.07617v-1H21.99644z M17.99741,8.99808h3.99902v-1h-3.99902V8.99808z M18.00132,16.99808h3.9873v-1
	h-3.9873V16.99808z M18.99741,12.99417h2.99902v-1h-2.99902V12.99417z M13.99155,21.00198h7.99707v-1h-7.99707V21.00198z
	 M15.68687,16.24466c-1.13379,1.13379-2.6416,1.7583-4.24512,1.7583s-3.11035-0.62451-4.24414-1.7583
	s-1.75879-2.64111-1.75879-4.24463s0.625-3.11084,1.75879-4.24463s2.64062-1.7583,4.24414-1.7583s3.11133,0.62451,4.24512,1.7583
	C18.02671,10.09573,18.02671,13.90433,15.68687,16.24466z M14.97984,15.53763c1.9502-1.95068,1.9502-5.12451,0-7.0752
	c-0.94531-0.94482-2.20117-1.46533-3.53809-1.46533c-1.33594,0-2.59277,0.52051-3.53711,1.46533
	c-0.94531,0.94482-1.46582,2.20117-1.46582,3.5376s0.52051,2.59277,1.46582,3.5376c0.94434,0.94482,2.20117,1.46533,3.53711,1.46533
	C12.77866,17.00296,14.03452,16.48245,14.97984,15.53763z M1.96482,18.99356l2.01056,2.0105l3.01373-3.01373l-2.0105-2.0105
	L1.96482,18.99356z"/>
</svg>
