<?xml version="1.0" encoding="utf-8"?>
<!-- Generator: Adobe Illustrator 22.0.1, SVG Export Plug-In . SVG Version: 6.00 Build 0)  -->
<svg version="1.1" id="Layer_1" xmlns="http://www.w3.org/2000/svg" xmlns:xlink="http://www.w3.org/1999/xlink" x="0px" y="0px"
	 viewBox="0 0 24 24" style="enable-background:new 0 0 24 24;" xml:space="preserve">
<style type="text/css">
	.st0{fill:#221A1C;}
	.st1{fill:#231F20;}
</style>
<path d="M21.99375,8.62227L19.025,20.61056c-0.05566,0.22314-0.25586,0.37988-0.48535,0.37988h-4.0332
	c-0.27637,0-0.5-0.22363-0.5-0.5s0.22363-0.5,0.5-0.5h3.6416l2.72168-10.98828h-3.76617l0.87164,2.33154
	c0.09668,0.25879-0.03516,0.54688-0.29395,0.64355c-0.05762,0.02148-0.11621,0.03174-0.1748,0.03174
	c-0.20215,0-0.39355-0.12402-0.46875-0.32471l-1.00269-2.68213h-1.52857c-0.27637,0-0.5-0.22363-0.5-0.5s0.22363-0.5,0.5-0.5
	h1.15472L14.0377,3.65938c-0.09668-0.25879,0.03516-0.54688,0.29395-0.64355C14.5875,2.9211,14.87852,3.05001,14.9752,3.3088
	l1.75458,4.69336h4.77863c0.15332,0,0.29883,0.0708,0.39355,0.19189S22.03086,8.47286,21.99375,8.62227z M11.98203,1.51143V22.4963
	c0,0.27637-0.22363,0.5-0.5,0.5s-0.5-0.22363-0.5-0.5v-1.51172H4.56895c-0.24316,0-0.45117-0.17529-0.49316-0.41504L2.01035,8.57833
	C1.98594,8.43282,2.02598,8.2839,2.12071,8.1711c0.0957-0.11279,0.23535-0.17773,0.38281-0.17773H7.2855l1.75415-4.68213
	c0.09668-0.25928,0.38281-0.38867,0.64355-0.29297c0.25781,0.09668,0.38965,0.38525,0.29199,0.64355L8.3524,7.99337h2.62964V1.51143
	c0-0.27637,0.22363-0.5,0.5-0.5S11.98203,1.23507,11.98203,1.51143z M10.98203,19.98458V8.99337H7.97776l-1.00452,2.68115
	c-0.0752,0.20068-0.26562,0.32471-0.46777,0.32471c-0.05859,0-0.11719-0.01025-0.17578-0.03174
	c-0.25781-0.09668-0.38965-0.38525-0.29199-0.64355l0.87317-2.33057h-3.8136l1.89258,10.99121H10.98203z"/>
</svg>
