<?xml version="1.0" encoding="utf-8"?>
<!-- Generator: Adobe Illustrator 22.0.1, SVG Export Plug-In . SVG Version: 6.00 Build 0)  -->
<svg version="1.1" id="Layer_1" xmlns="http://www.w3.org/2000/svg" xmlns:xlink="http://www.w3.org/1999/xlink" x="0px" y="0px"
	 viewBox="0 0 24 24" style="enable-background:new 0 0 24 24;" xml:space="preserve">
<style type="text/css">
	.st0{fill:#221A1C;}
	.st1{fill:#231F20;}
</style>
<path d="M19.94511,17.29398l-1.9668-4.30164V8.79788c0-2.88391-2.15808-5.28052-4.98291-5.75323V1.99521h-2v1.04437
	c-2.84155,0.45898-5.01709,2.86279-5.01709,5.7583v4.19598l-1.95508,4.30109c-0.07031,0.15479-0.05762,0.33496,0.03516,0.47754
	c0.0918,0.14307,0.25,0.22949,0.41992,0.22949h15.01172c0.16992,0,0.3291-0.08643,0.4209-0.22998
	C20.00273,17.62894,20.01542,17.44876,19.94511,17.29398z M5.25468,17.00198l1.67871-3.69287
	c0.00085-0.00195,0.00049-0.00397,0.00146-0.00592c0.01379-0.03143,0.01636-0.06726,0.02344-0.10168
	c0.00635-0.03119,0.01831-0.06165,0.01868-0.09277c0.00012-0.00238,0.00134-0.00427,0.00134-0.00665v-4.3042
	c0-2.6709,2.24316-4.84375,5-4.84375s5,2.17285,5,4.84375v4.3042c0,0.00238,0.00122,0.00433,0.00134,0.00671
	c0.00037,0.03442,0.01294,0.06812,0.02063,0.10248c0.00708,0.03076,0.00879,0.06311,0.02124,0.09137
	c0.00098,0.00244,0.00061,0.005,0.00171,0.00745l1.68848,3.69189H5.25468z M14.98857,18.9938
	c0.005,0.06635,0.00732,0.13348,0.00732,0.20105c0,1.54443-1.34668,2.80127-3.00293,2.80127s-3.00293-1.25684-3.00293-2.80127
	c0-0.06793,0.00281-0.13525,0.00757-0.20178l0.9895,0.00598c-0.00586,0.05518,0.00293,0.13916,0.00293,0.1958
	c0,0.99316,0.89844,1.80127,2.00293,1.80127s2.00293-0.80811,2.00293-1.80127c0-0.06055-0.00488-0.13818-0.01172-0.19678
	L14.98857,18.9938z"/>
</svg>
