<?xml version="1.0" encoding="utf-8"?>
<!-- Generator: Adobe Illustrator 22.0.1, SVG Export Plug-In . SVG Version: 6.00 Build 0)  -->
<svg version="1.1" id="Layer_1" xmlns="http://www.w3.org/2000/svg" xmlns:xlink="http://www.w3.org/1999/xlink" x="0px" y="0px"
	 viewBox="0 0 24 24" style="enable-background:new 0 0 24 24;" xml:space="preserve">
<style type="text/css">
	.st0{fill:#221A1C;}
	.st1{fill:#231F20;}
</style>
<path d="M20.48644,2.9963H8.23595c-0.13232,0-0.25879,0.05225-0.35254,0.14551L3.14269,7.8547
	C3.04845,7.94845,2.99523,8.07589,2.99523,8.20919v12.30811c0,0.13281,0.05273,0.26025,0.14697,0.354
	c0.09375,0.09375,0.2207,0.146,0.35303,0.146c0.00049,0,0.00146,0,0.00195,0l12.29639-0.04639
	c0.13525-0.00049,0.26514-0.05615,0.35889-0.15381l4.69482-4.89111c0.08936-0.09326,0.13916-0.21729,0.13916-0.34619V3.4963
	C20.98644,3.21993,20.76281,2.9963,20.48644,2.9963z M8.1223,4.31411C8.21398,4.42312,8.34636,4.4963,8.50011,4.4963
	c0.27637,0,0.5-0.22363,0.5-0.5h10.17346L15.2285,7.967H4.44805L8.1223,4.31411z M4.60607,19.35128
	c-0.16656-0.16779-0.41797-0.18262-0.61084-0.06451V8.967h4.00812C8.00316,8.97268,8.00011,8.97738,8.00011,8.98311v0.99707
	c0,0.27637,0.22363,0.5,0.5,0.5s0.5-0.22363,0.5-0.5V8.98311c0-0.00574-0.00305-0.01044-0.00323-0.01611h5.99347v6.01184
	C14.9702,14.9764,14.95256,14.967,14.93175,14.967h-0.98877c-0.27637,0-0.5,0.22363-0.5,0.5s0.22363,0.5,0.5,0.5h0.98877
	c0.02081,0,0.03845-0.0094,0.05859-0.01184v4.01892L4.63536,20.01296C4.79271,19.81704,4.78752,19.53316,4.60607,19.35128z
	 M15.99034,19.54201V8.61892l3.99609-4.02209V14.967h-0.11133c-0.27637,0-0.5,0.22363-0.5,0.5
	c0,0.14893,0.06793,0.27875,0.17108,0.3703L15.99034,19.54201z M8.00011,12.97237v-0.99756c0-0.27637,0.22363-0.5,0.5-0.5
	s0.5,0.22363,0.5,0.5v0.99756c0,0.27637-0.22363,0.5-0.5,0.5S8.00011,13.24874,8.00011,12.97237z M8.00011,6.98849V5.99093
	c0-0.27637,0.22363-0.5,0.5-0.5s0.5,0.22363,0.5,0.5v0.99756c0,0.27637-0.22363,0.5-0.5,0.5S8.00011,7.26485,8.00011,6.98849z
	 M10.47716,15.467c0-0.27637,0.22363-0.5,0.5-0.5h0.98877c0.27637,0,0.5,0.22363,0.5,0.5s-0.22363,0.5-0.5,0.5h-0.98877
	C10.70079,15.967,10.47716,15.74337,10.47716,15.467z M18.39757,15.467c0,0.27637-0.22363,0.5-0.5,0.5H16.9088
	c-0.27637,0-0.5-0.22363-0.5-0.5s0.22363-0.5,0.5-0.5h0.98877C18.17394,14.967,18.39757,15.19063,18.39757,15.467z
	 M5.31407,18.64474c-0.19482-0.19531-0.19482-0.51221,0.00098-0.70703l0.70801-0.70605
	c0.1958-0.19482,0.51221-0.19482,0.70703,0.00098c0.19482,0.19531,0.19482,0.51221-0.00098,0.70703l-0.70801,0.70605
	c-0.09766,0.09717-0.2251,0.146-0.35303,0.146C5.53966,18.79171,5.41173,18.74288,5.31407,18.64474z M7.4381,16.52608
	c-0.19482-0.19531-0.19482-0.51221,0.00098-0.70703l0.56104-0.55951V14.967c0-0.27637,0.22363-0.5,0.5-0.5s0.5,0.22363,0.5,0.5
	c0.27637,0,0.5,0.22363,0.5,0.5s-0.22363,0.5-0.5,0.5h-0.2934l-0.56158,0.56006c-0.09766,0.09717-0.2251,0.146-0.35303,0.146
	C7.66368,16.67306,7.53575,16.62423,7.4381,16.52608z"/>
</svg>
