<?xml version="1.0" encoding="utf-8"?>
<!-- Generator: Adobe Illustrator 22.0.1, SVG Export Plug-In . SVG Version: 6.00 Build 0)  -->
<svg version="1.1" id="Layer_1" xmlns="http://www.w3.org/2000/svg" xmlns:xlink="http://www.w3.org/1999/xlink" x="0px" y="0px"
	 viewBox="0 0 24 24" style="enable-background:new 0 0 24 24;" xml:space="preserve">
<style type="text/css">
	.st0{fill:#221A1C;}
	.st1{fill:#231F20;}
</style>
<g>
	<path d="M14.85492,9.66378c-0.00153-0.00287-0.00433-0.00433-0.00592-0.00714c-0.10229-0.17169-0.24835-0.31189-0.42474-0.38983
		l-6.01123-3.1709C8.14837,5.97725,7.84564,5.97725,7.55707,6.1086L1.59906,9.19454c-0.09814,0.04346-0.18945,0.10547-0.33545,0.25
		C1.20306,9.50997,1.15228,9.5837,1.11029,9.66622c-0.0083,0.0166-0.0376,0.08057-0.04395,0.09766
		c-0.0415,0.1084-0.06396,0.21191-0.06885,0.31592c-0.00146,0.01416-0.00195,0.02881-0.00195,0.04346v8.03809
		c0,0.39355,0.23096,0.75586,0.5874,0.92188l5.96875,2.79541c0.02881,0.01465,0.06348,0.02686,0.09863,0.03662
		c0.11279,0.0415,0.22705,0.06348,0.35156,0.06494c0.10547-0.00146,0.21045-0.021,0.32959-0.06299
		c0.03125-0.0083,0.06201-0.01904,0.08838-0.03076l5.99121-2.72412c0.35693-0.1665,0.58789-0.52881,0.58789-0.92236v-8.03809
		c0-0.00391,0-0.00781,0-0.01221s0-0.0083,0-0.0127c0-0.00195,0-0.00391,0-0.00586c-0.0022-0.17755-0.0564-0.34442-0.13928-0.49146
		C14.85718,9.67452,14.85766,9.66884,14.85492,9.66378z M7.97406,6.99434l5.4425,2.87061l-1.88953,1.00848
		c-0.02374-0.0127-0.03809-0.02966-0.06421-0.0412L6.14483,7.949L7.97406,6.99434z M7.72638,12.90194
		c-0.02673-0.02576-0.0556-0.04926-0.08728-0.06873L2.61712,9.79012l2.45972-1.28375l5.44904,2.90143L7.72638,12.90194z
		 M2.03943,10.60976l4.97467,3.01447c-0.00244,0.0459-0.00439,0.09521-0.00391,0.14893
		c0.00049,0.01904,0.00146,0.03809,0.00391,0.05713l-0.00134,6.69006l-5.01721-2.35901L2.03943,10.60976z M8.02142,20.97091
		c-0.00305,0.00122-0.00586,0.00238-0.00879,0.00348v-7.0694l0.00067-0.02307l2.99139-1.59662l0.00208,3.211
		c0,0.27637,0.22363,0.5,0.5,0.5s0.5-0.22363,0.5-0.5l-0.00195-3.74481l1.99377-1.06409l-0.00598,7.56671L8.02142,20.97091z"/>
	<rect x="16.00061" y="11.99532" width="1" height="1"/>
	<path d="M18.4472,3.98458h-5.78149l1.18726-1.12646c0.2002-0.18994,0.2085-0.50635,0.01855-0.70703
		c-0.18945-0.19971-0.50684-0.2085-0.70703-0.01855l-1.99609,1.89453c-0.22168,0.23291-0.22168,0.59766,0.0083,0.83936
		l1.97852,1.97754c0.09766,0.09766,0.22559,0.14648,0.35352,0.14648s0.25586-0.04883,0.35352-0.14648
		c0.19531-0.19531,0.19531-0.51172,0-0.70703l-1.15302-1.15234h5.73798c1.96045,0,3.55518,1.58838,3.55518,3.54102
		c0,1.93994-1.53857,3.45996-3.50244,3.45996c-0.27637,0-0.5,0.22363-0.5,0.5s0.22363,0.5,0.5,0.5
		c2.5249,0,4.50244-1.95898,4.50244-4.45996C23.00238,6.02169,20.95892,3.98458,18.4472,3.98458z"/>
</g>
</svg>
