<?xml version="1.0" encoding="utf-8"?>
<!-- Generator: Adobe Illustrator 22.0.1, SVG Export Plug-In . SVG Version: 6.00 Build 0)  -->
<svg version="1.1" id="Layer_1" xmlns="http://www.w3.org/2000/svg" xmlns:xlink="http://www.w3.org/1999/xlink" x="0px" y="0px"
	 viewBox="0 0 24 24" style="enable-background:new 0 0 24 24;" xml:space="preserve">
<style type="text/css">
	.st0{fill:#221A1C;}
	.st1{fill:#231F20;}
	.st2{fill:none;}
</style>
<g>
	<path d="M15.87388,9.70382c-0.00226-0.00537-0.00708-0.00867-0.00952-0.01392c-0.02936-0.05347-0.0636-0.1012-0.10144-0.14801
		c-0.00085-0.00079-0.0014-0.00195-0.00232-0.00275c-0.09351-0.11499-0.2041-0.21387-0.33643-0.27234l-6.01123-3.1709
		C9.14829,5.97725,8.84556,5.97725,8.55698,6.1086L2.59898,9.19454c-0.09961,0.04443-0.19141,0.10645-0.33545,0.25
		C2.20298,9.50997,2.1522,9.5837,2.11021,9.66622c-0.0083,0.0166-0.0376,0.08057-0.04395,0.09766
		c-0.04492,0.1167-0.06787,0.22949-0.0708,0.34375c0,0.00439,0,0.00879,0,0.01318c0,0.00098,0,0.00146,0,0.00244v8.03809
		c0,0.39355,0.23096,0.75586,0.5874,0.92188l5.96875,2.79541c0.02881,0.01465,0.06348,0.02686,0.09863,0.03662
		c0.11279,0.0415,0.22705,0.06348,0.35156,0.06494c0.10645-0.00146,0.2124-0.021,0.33057-0.06348
		c0.03125-0.00781,0.06152-0.01855,0.0874-0.03027l5.99121-2.72412c0.35693-0.1665,0.58789-0.52881,0.58789-0.92236v-8.03809
		c0-0.00391,0-0.00781,0-0.01221s0-0.0083,0-0.0127c0-0.00195,0-0.00391,0-0.00586c-0.00201-0.16357-0.05115-0.31647-0.1225-0.45526
		C15.87479,9.71187,15.87559,9.70772,15.87388,9.70382z M8.97398,6.99434l5.35315,2.82349l-1.87616,0.797
		c-0.00378-0.00177-0.00592-0.00549-0.0097-0.0072l-5.4165-2.60315L8.97398,6.99434z M8.77073,12.17812
		c-0.05341-0.04608-0.10303-0.09369-0.18347-0.12958L3.59635,9.78109l2.32068-1.20258
		c0.00464,0.00238,0.00732,0.00684,0.01202,0.00909l5.3103,2.54187L8.77073,12.17812z M2.99546,10.60634l5.01709,2.27911
		c0.00049,0.02734,0.00195,0.06006,0.00391,0.1001l-0.0036,7.53485l-5.0174-2.35907V10.60634z M9.02232,20.97091
		c-0.00348,0.0011-0.00647,0.0025-0.00977,0.00372l-0.00049-7.81317l3.01221-1.27954v3.61438c0,0.27637,0.22363,0.5,0.5,0.5
		s0.5-0.22363,0.5-0.5v-3.80762c0-0.00391,0-0.0083,0-0.01221c0-0.00635,0-0.0127,0-0.01855
		c-0.00067-0.05585-0.013-0.12421-0.0238-0.19067l1.99811-0.84875l-0.00604,7.63562L9.02232,20.97091z"/>
	<path d="M14.82798,4.70724c-0.05664-0.39795,0.04346-0.79297,0.28271-1.11133c0.23926-0.31885,0.59033-0.52588,0.98828-0.58301
		c0.39795-0.05469,0.79248,0.04395,1.11182,0.28271l0.80029,0.6001l0.59961-0.7998l-0.7998-0.6001
		C17.27866,2.0964,16.6229,1.9294,15.95737,2.02315c-0.66211,0.09473-1.24707,0.43994-1.64648,0.97217
		c-0.39941,0.53271-0.56738,1.19092-0.47266,1.85352s0.43994,1.24756,0.97266,1.64746l0.80029,0.59961l0.59961-0.80078
		L15.41099,5.696C15.09214,5.45675,14.88511,5.10567,14.82798,4.70724z"/>
	<path d="M21.01109,4.89571l-0.7998-0.6001l-0.60059,0.7998l0.7998,0.6001c0.66162,0.49658,0.79639,1.43848,0.30029,2.1001
		c-0.49609,0.66309-1.4375,0.7959-2.1001,0.30029l-0.80029-0.6001l-0.59961,0.7998l0.80029,0.6001
		c0.44873,0.33643,0.97461,0.49902,1.49658,0.49902c0.76074,0,1.5127-0.34521,2.00293-0.99902
		C22.33775,7.29317,22.11362,5.72286,21.01109,4.89571z"/>
	
		<rect x="17.41094" y="3.69591" transform="matrix(0.60002 -0.79999 0.79999 0.60002 2.60742 16.60653)" width="0.99961" height="3.99971"/>
</g>
</svg>
