<?xml version="1.0" encoding="utf-8"?>
<!-- Generator: Adobe Illustrator 22.0.1, SVG Export Plug-In . SVG Version: 6.00 Build 0)  -->
<svg version="1.1" id="Layer_1" xmlns="http://www.w3.org/2000/svg" xmlns:xlink="http://www.w3.org/1999/xlink" x="0px" y="0px"
	 viewBox="0 0 24 24" style="enable-background:new 0 0 24 24;" xml:space="preserve">
<style type="text/css">
	.st0{fill:#221A1C;}
	.st1{fill:#231F20;}
</style>
<path d="M22.00287,5.98653h-3.0083V8.9963h-1V5.98653h-2.99023v-1h2.99023V1.99727h1v2.98926h3.0083V5.98653z M15.85968,9.67208
	c0.08289,0.14703,0.13708,0.3139,0.13928,0.49146c0,0.00195,0,0.00391,0,0.00586c0,0.00439,0,0.0083,0,0.0127s0,0.0083,0,0.01221
	v8.03809c0,0.39355-0.23096,0.75586-0.58789,0.92236l-5.99121,2.72412c-0.02637,0.01172-0.05713,0.02246-0.08838,0.03076
	c-0.11914,0.04199-0.22412,0.06152-0.32959,0.06299c-0.12451-0.00146-0.23877-0.02344-0.35156-0.06494
	c-0.03516-0.00977-0.06982-0.02197-0.09863-0.03662l-5.96875-2.79541c-0.35645-0.16602-0.5874-0.52832-0.5874-0.92188v-8.03809
	c0-0.01465,0.00049-0.0293,0.00195-0.04346c0.00488-0.104,0.02734-0.20752,0.06885-0.31592
	c0.00635-0.01709,0.03564-0.08105,0.04395-0.09766C2.15228,9.57613,2.20306,9.5024,2.26361,9.43697
	c0.146-0.14453,0.2373-0.20654,0.33545-0.25l5.95801-3.08594c0.28857-0.13135,0.59131-0.13135,0.85596-0.0127l6.01123,3.1709
	c0.17639,0.07794,0.32245,0.21814,0.42474,0.38983c0.00159,0.00281,0.00439,0.00427,0.00592,0.00714
	C15.85766,9.66128,15.85718,9.66695,15.85968,9.67208z M7.14483,7.94143l5.31799,2.88324
	c0.02612,0.01154,0.04047,0.0285,0.06421,0.0412l1.88953-1.00848l-5.4425-2.87061L7.14483,7.94143z M8.01019,13.76558
	c-0.00049-0.05371,0.00146-0.10303,0.00391-0.14893l-4.97467-3.01447l-0.04388,7.55157l5.01721,2.35901l0.00134-6.69006
	C8.01166,13.80367,8.01068,13.78463,8.01019,13.76558z M11.52588,11.40023L6.07684,8.4988L3.61712,9.78255l5.02197,3.04309
	c0.03168,0.01947,0.06055,0.04297,0.08728,0.06873L11.52588,11.40023z M14.99859,10.67983l-1.99377,1.06409l0.00195,3.74481
	c0,0.27637-0.22363,0.5-0.5,0.5s-0.5-0.22363-0.5-0.5l-0.00208-3.211L9.0133,13.87435l-0.00067,0.02307v7.0694
	c0.00293-0.0011,0.00574-0.00226,0.00879-0.00348l5.97119-2.7168L14.99859,10.67983z"/>
</svg>
