<?xml version="1.0" encoding="utf-8"?>
<!-- Generator: Adobe Illustrator 22.0.1, SVG Export Plug-In . SVG Version: 6.00 Build 0)  -->
<svg version="1.1" id="Layer_1" xmlns="http://www.w3.org/2000/svg" xmlns:xlink="http://www.w3.org/1999/xlink" x="0px" y="0px"
	 viewBox="0 0 24 24" style="enable-background:new 0 0 24 24;" xml:space="preserve">
<style type="text/css">
	.st0{fill:#221A1C;}
	.st1{fill:#231F20;}
</style>
<path d="M15.87738,9.69698c-0.00238-0.00562-0.00732-0.00891-0.00989-0.0144c-0.0293-0.05328-0.06342-0.10077-0.10107-0.1474
	c-0.00085-0.00085-0.00146-0.00183-0.00226-0.00269c-0.09351-0.11505-0.2041-0.21405-0.33649-0.27252l-6.01123-3.1709
	C9.1513,5.97091,8.84906,5.97042,8.56048,6.10177L2.60248,9.1877c-0.09814,0.04346-0.18945,0.10547-0.33545,0.25
	C2.20648,9.50313,2.1557,9.57686,2.11175,9.66329c-0.00732,0.01465-0.03564,0.07715-0.0415,0.09277
	c-0.04541,0.1167-0.06836,0.22949-0.07129,0.34473c0,0.00439,0,0.00879,0,0.01318c0,0.00098,0,0.00195,0,0.00293v8.0376
	c0,0.39355,0.23096,0.75586,0.5874,0.92188l5.98926,2.80566c0.02393,0.01074,0.05225,0.02002,0.08154,0.02783
	c0.11328,0.04102,0.22754,0.0625,0.34424,0.06348c0.10645-0.00098,0.2124-0.02002,0.33203-0.0625
	c0.03174-0.00781,0.06299-0.01855,0.08984-0.03076l5.99121-2.72461c0.35693-0.1665,0.58789-0.52881,0.58789-0.92236v-8.0376
	c0-0.00391,0-0.00781,0-0.01172c0-0.00439,0-0.00879,0-0.01318c0-0.00195,0-0.00391,0-0.00586
	c-0.00201-0.16351-0.05109-0.31635-0.12238-0.4552C15.87836,9.7054,15.87915,9.70107,15.87738,9.69698z M8.97748,6.98751
	l5.35327,2.82355l-1.87604,0.79706c-0.00385-0.00177-0.00604-0.00562-0.00995-0.00732L7.02807,7.9977L8.97748,6.98751z
	 M8.67987,12.21187c-0.03394-0.02161-0.05328-0.04871-0.09497-0.06714L3.58685,9.78103L5.92023,8.5718
	c0.00458,0.00238,0.0072,0.00671,0.01184,0.00897l5.31836,2.53894L8.67987,12.21187z M2.99896,10.60958l5.00195,2.36523
	c0,0.00977,0,0.01953,0,0.0293c0.00049,0.02295,0.00195,0.0459,0.00537,0.06787l-0.00226,7.43616L2.99896,18.1545V10.60958z
	 M9.0097,20.96993c-0.00195,0.00098-0.00391,0.00146-0.00586,0.00244v-7.73779l0.00128-0.07501l2.99384-1.27197v3.60284
	c0,0.27637,0.22363,0.5,0.5,0.5s0.5-0.22363,0.5-0.5v-3.82861c0-0.00098,0-0.00146,0-0.00244c0-0.00293,0-0.00635,0-0.00977
	c-0.00079-0.05609-0.01208-0.1181-0.0199-0.17841l2.02301-0.8595l-0.00604,7.63556L9.0097,20.96993z M21.80951,3.86007
	l-1.94922,1.97021c-0.09766,0.09912-0.22656,0.14844-0.35547,0.14844c-0.12695,0-0.25439-0.04834-0.35156-0.14453
	c-0.19629-0.19434-0.19824-0.51074-0.00391-0.70703l1.12573-1.1377h-9.79321c-0.27637,0-0.5-0.22363-0.5-0.5s0.22363-0.5,0.5-0.5
	h9.84412l-1.16882-1.13037c-0.19824-0.19189-0.20361-0.50879-0.01172-0.70703c0.19141-0.19922,0.5083-0.20313,0.70703-0.01172
	l1.93994,1.87695C22.02826,3.2585,22.03119,3.62423,21.80951,3.86007z M9.01336,3.98922h-1v-1h1V3.98922z"/>
</svg>
