<?xml version="1.0" encoding="utf-8"?>
<!-- Generator: Adobe Illustrator 22.0.1, SVG Export Plug-In . SVG Version: 6.00 Build 0)  -->
<svg version="1.1" id="Layer_1" xmlns="http://www.w3.org/2000/svg" xmlns:xlink="http://www.w3.org/1999/xlink" x="0px" y="0px"
	 viewBox="0 0 24 24" style="enable-background:new 0 0 24 24;" xml:space="preserve">
<style type="text/css">
	.st0{fill:#221A1C;}
	.st1{fill:#231F20;}
</style>
<path d="M19.49555,7.9963H4.49946c-1.37842,0-2.5,1.12158-2.5,2.5v7.99609c0,1.37842,1.12158,2.5,2.5,2.5h14.99609
	c1.37842,0,2.5-1.12158,2.5-2.5V10.4963C21.99555,9.11788,20.87397,7.9963,19.49555,7.9963z M20.99555,18.49239
	c0,0.82715-0.67285,1.5-1.5,1.5H4.49946c-0.82715,0-1.5-0.67285-1.5-1.5V10.4963c0-0.82715,0.67285-1.5,1.5-1.5h14.99609
	c0.82715,0,1.5,0.67285,1.5,1.5V18.49239z M6.99506,6.48653V5.48263c0-1.37842,1.12158-2.5,2.5-2.5h4.96484
	c1.3999,0,2.53857,1.1167,2.53857,2.48926v1.00391c0,0.27637-0.22363,0.5-0.5,0.5s-0.5-0.22363-0.5-0.5V5.47188
	c0-0.82129-0.69043-1.48926-1.53857-1.48926H9.49506c-0.82715,0-1.5,0.67285-1.5,1.5v1.00391c0,0.27637-0.22363,0.5-0.5,0.5
	S6.99506,6.7629,6.99506,6.48653z M18.00727,12.48653c0,0.27637-0.22363,0.5-0.5,0.5H6.50678c-0.27637,0-0.5-0.22363-0.5-0.5
	s0.22363-0.5,0.5-0.5h11.00049C17.78364,11.98653,18.00727,12.21017,18.00727,12.48653z M17.98774,16.49337
	c0,0.27637-0.22363,0.5-0.5,0.5H6.49604c-0.27637,0-0.5-0.22363-0.5-0.5s0.22363-0.5,0.5-0.5h10.9917
	C17.76411,15.99337,17.98774,16.217,17.98774,16.49337z"/>
</svg>
