<?xml version="1.0" encoding="utf-8"?>
<!-- Generator: Adobe Illustrator 22.0.1, SVG Export Plug-In . SVG Version: 6.00 Build 0)  -->
<svg version="1.1" id="Layer_1" xmlns="http://www.w3.org/2000/svg" xmlns:xlink="http://www.w3.org/1999/xlink" x="0px" y="0px"
	 viewBox="0 0 24 24" style="enable-background:new 0 0 24 24;" xml:space="preserve">
<style type="text/css">
	.st0{fill:#221A1C;}
	.st1{fill:#231F20;}
</style>
<path class="st0" d="M20.48237,5.03177h-2.46484V3.52005c0-0.27637-0.22363-0.5-0.5-0.5s-0.5,0.22363-0.5,0.5v1.51172h-4.50537
	V3.52005c0-0.27637-0.22363-0.5-0.5-0.5s-0.5,0.22363-0.5,0.5v1.51172H7.01167V3.52005c0-0.27637-0.22363-0.5-0.5-0.5
	s-0.5,0.22363-0.5,0.5v1.51172H3.51753c-0.82373,0-1.49365,0.66992-1.49365,1.49365v12.96094
	c0,0.82373,0.66992,1.49365,1.49365,1.49365h16.96484c0.82373,0,1.49365-0.66992,1.49365-1.49365V6.52542
	C21.97602,5.70169,21.3061,5.03177,20.48237,5.03177z M20.97602,19.48636c0,0.27197-0.22168,0.49365-0.49365,0.49365H3.51753
	c-0.27197,0-0.49365-0.22168-0.49365-0.49365V6.52542c0-0.27197,0.22168-0.49365,0.49365-0.49365h2.49414v0.48926
	c0,0.27637,0.22363,0.5,0.5,0.5s0.5-0.22363,0.5-0.5V6.03177h4.50049v0.48926c0,0.27637,0.22363,0.5,0.5,0.5s0.5-0.22363,0.5-0.5
	V6.03177h4.50537v0.48926c0,0.27637,0.22363,0.5,0.5,0.5s0.5-0.22363,0.5-0.5V6.03177h2.46484
	c0.27197,0,0.49365,0.22168,0.49365,0.49365V19.48636z M19.98627,10.50247c0,0.27637-0.22363,0.5-0.5,0.5H4.5102
	c-0.27637,0-0.5-0.22363-0.5-0.5s0.22363-0.5,0.5-0.5h14.97607C19.76264,10.00247,19.98627,10.2261,19.98627,10.50247z"/>
</svg>
