<?xml version="1.0" encoding="utf-8"?>
<!-- Generator: Adobe Illustrator 22.0.1, SVG Export Plug-In . SVG Version: 6.00 Build 0)  -->
<svg version="1.1" id="Layer_1" xmlns="http://www.w3.org/2000/svg" xmlns:xlink="http://www.w3.org/1999/xlink" x="0px" y="0px"
	 viewBox="0 0 24 24" style="enable-background:new 0 0 24 24;" xml:space="preserve">
<style type="text/css">
	.st0{fill:#221A1C;}
	.st1{fill:#231F20;}
</style>
<path class="st0" d="M21.9853,11.49564v8.24219c0,0.68115-0.5542,1.23535-1.23584,1.23535L3.25044,20.97855
	c-0.68115,0-1.23535-0.5542-1.23535-1.23535V6.23343c0-0.68115,0.5542-1.23535,1.23535-1.23535H5.9936V3.52151
	c0-0.27637,0.22363-0.5,0.5-0.5s0.5,0.22363,0.5,0.5v1.47656h4.02148V3.52151c0-0.27637,0.22363-0.5,0.5-0.5s0.5,0.22363,0.5,0.5
	v1.47656h1.46924c0.27637,0,0.5,0.22363,0.5,0.5s-0.22363,0.5-0.5,0.5h-1.46924v0.51807c0,0.27637-0.22363,0.5-0.5,0.5
	s-0.5-0.22363-0.5-0.5V5.99808H6.9936v0.51807c0,0.27637-0.22363,0.5-0.5,0.5s-0.5-0.22363-0.5-0.5V5.99808H3.25044
	c-0.12988,0-0.23535,0.10547-0.23535,0.23535v13.50977c0,0.12988,0.10547,0.23535,0.23535,0.23535l17.49902-0.00537
	c0.12988,0,0.23584-0.10547,0.23584-0.23535v-8.24219c0-0.27637,0.22363-0.5,0.5-0.5S21.9853,11.21927,21.9853,11.49564z
	 M12.75459,9.97415l5.69165-5.76416c0.19482-0.19678,0.51123-0.19873,0.70703-0.00488
	c0.00482,0.00476,0.00629,0.01129,0.01086,0.01617l2.59589,2.4632c0.02679,0.01801,0.05652,0.02966,0.08026,0.05334
	c0.19434,0.19629,0.19336,0.5127-0.00244,0.70752l-9.65381,9.5874H8.97749v-3.2334l2.78967-2.8252H4.46723
	c-0.27637,0-0.5-0.22363-0.5-0.5s0.22363-0.5,0.5-0.5H12.75459z M11.50672,12.6608l1.83618,1.81165l5.38031-5.34381l-1.88861-1.8634
	L11.50672,12.6608z M12.63337,15.17709l-1.82922-1.80481L9.97749,14.2095v1.82324h1.79443L12.63337,15.17709z M17.53718,6.55374
	l1.89551,1.87018L20.779,7.08676l-1.94537-1.84595L17.53718,6.55374z"/>
</svg>
