<?xml version="1.0" encoding="utf-8"?>
<!-- Generator: Adobe Illustrator 22.0.1, SVG Export Plug-In . SVG Version: 6.00 Build 0)  -->
<svg version="1.1" id="Layer_1" xmlns="http://www.w3.org/2000/svg" xmlns:xlink="http://www.w3.org/1999/xlink" x="0px" y="0px"
	 viewBox="0 0 24 24" style="enable-background:new 0 0 24 24;" xml:space="preserve">
<style type="text/css">
	.st0{fill:#221A1C;}
	.st1{fill:#231F20;}
</style>
<path class="st0" d="M20.48194,5.03171h-2.46436V3.51999c0-0.27637-0.22363-0.5-0.5-0.5s-0.5,0.22363-0.5,0.5v1.51172h-4.50537
	V3.51999c0-0.27637-0.22363-0.5-0.5-0.5s-0.5,0.22363-0.5,0.5v1.51172H7.01173V3.51999c0-0.27637-0.22363-0.5-0.5-0.5
	s-0.5,0.22363-0.5,0.5v1.51172H3.51759c-0.82373,0-1.49365,0.66992-1.49365,1.49365V19.4863
	c0,0.82373,0.66992,1.49365,1.49365,1.49365h16.96436c0.82373,0,1.49414-0.66992,1.49414-1.49365V6.52536
	C21.97608,5.70163,21.30567,5.03171,20.48194,5.03171z M20.97608,19.4863c0,0.27197-0.22168,0.49365-0.49414,0.49365H3.51759
	c-0.27197,0-0.49365-0.22168-0.49365-0.49365V6.52536c0-0.27197,0.22168-0.49365,0.49365-0.49365h2.49414v0.48926
	c0,0.27637,0.22363,0.5,0.5,0.5s0.5-0.22363,0.5-0.5V6.03171h4.50049v0.48926c0,0.27637,0.22363,0.5,0.5,0.5s0.5-0.22363,0.5-0.5
	V6.03171h4.50537v0.48926c0,0.27637,0.22363,0.5,0.5,0.5s0.5-0.22363,0.5-0.5V6.03171h2.46436
	c0.27246,0,0.49414,0.22168,0.49414,0.49365V19.4863z M7.04682,8.98636c-1.11084,0-2.01416,0.90332-2.01416,2.01367
	s0.90332,2.01367,2.01416,2.01367c1.11035,0,2.01367-0.90332,2.01367-2.01367S8.15717,8.98636,7.04682,8.98636z M7.04682,12.0137
	c-0.55908,0-1.01416-0.45459-1.01416-1.01367s0.45508-1.01367,1.01416-1.01367s1.01367,0.45459,1.01367,1.01367
	S7.6059,12.0137,7.04682,12.0137z M17.01215,13.9678c-1.11035,0-2.01367,0.90332-2.01367,2.01416
	c0,1.11035,0.90332,2.01367,2.01367,2.01367s2.01367-0.90332,2.01367-2.01367C19.02583,14.87112,18.12251,13.9678,17.01215,13.9678z
	 M17.01215,16.99564c-0.55908,0-1.01367-0.45459-1.01367-1.01367s0.45459-1.01416,1.01367-1.01416s1.01367,0.45508,1.01367,1.01416
	S17.57124,16.99564,17.01215,16.99564z M8.02094,15.98172c0,0.54822-0.4444,0.99255-0.99255,0.99255
	c-0.54822,0-0.99255-0.44434-0.99255-0.99255c0-0.54816,0.44434-0.99255,0.99255-0.99255
	C7.57655,14.98917,8.02094,15.43356,8.02094,15.98172z M12.99256,15.98172c0,0.54822-0.4444,0.99255-0.99255,0.99255
	s-0.99255-0.44434-0.99255-0.99255c0-0.54816,0.4444-0.99255,0.99255-0.99255S12.99256,15.43356,12.99256,15.98172z
	 M13.00483,10.99997c0,0.54822-0.4444,0.99255-0.99255,0.99255c-0.54822,0-0.99255-0.44434-0.99255-0.99255
	c0-0.54816,0.44434-0.99255,0.99255-0.99255C12.56043,10.00742,13.00483,10.45181,13.00483,10.99997z M16.01972,10.99997
	c0-0.54816,0.44434-0.99255,0.99255-0.99255c0.54816,0,0.99255,0.4444,0.99255,0.99255c0,0.54822-0.4444,0.99255-0.99255,0.99255
	C16.46406,11.99252,16.01972,11.54819,16.01972,10.99997z"/>
</svg>
