<?xml version="1.0" encoding="utf-8"?>
<!-- Generator: Adobe Illustrator 22.0.1, SVG Export Plug-In . SVG Version: 6.00 Build 0)  -->
<svg version="1.1" id="Layer_1" xmlns="http://www.w3.org/2000/svg" xmlns:xlink="http://www.w3.org/1999/xlink" x="0px" y="0px"
	 viewBox="0 0 24 24" style="enable-background:new 0 0 24 24;" xml:space="preserve">
<style type="text/css">
	.st0{fill:#221A1C;}
	.st1{fill:#231F20;}
</style>
<path d="M19.51263,7.00802L16.6806,7.00558c-1.06641-2.50244-2.44971-2.95557-2.60986-3.00049l-4.01709-0.01855L9.90814,4.00802
	C8.69281,4.37813,7.70209,6.23653,7.33929,7.00216H4.47113c-1.37158,0-2.48779,1.10156-2.48779,2.45557v8.05908
	c0,1.37158,1.11621,2.4873,2.48779,2.4873h15.04102c1.37158,0,2.48779-1.11572,2.48779-2.4873V9.45772
	C21.99994,8.08419,20.90716,7.00802,19.51263,7.00802z M16.37933,7.49093v0.01416l-0.00098-0.01367L16.37933,7.49093z
	 M20.99994,17.51681c0,0.82031-0.66748,1.4873-1.48779,1.4873H4.47113c-0.82031,0-1.48779-0.66699-1.48779-1.4873V9.45772
	c0-0.81641,0.65332-1.45557,1.48779-1.45557h3.52051l0.12988-0.30371c0.38867-0.90869,1.26758-2.41748,2.01562-2.71191h3.70703
	c0.23779,0.10645,1.24316,0.66162,2.03369,2.69922l0.12207,0.31396l3.51221,0.0083c0.83447,0,1.48779,0.63672,1.48779,1.44971
	V17.51681z M11.99994,8.9963c-2.20361,0-3.99658,1.79297-3.99658,3.99658c0,2.2041,1.79297,3.99707,3.99658,3.99707
	c2.2041,0,3.99707-1.79297,3.99707-3.99707C15.99701,10.78927,14.20404,8.9963,11.99994,8.9963z M11.99994,15.98995
	c-1.65234,0-2.99658-1.34424-2.99658-2.99707c0-1.65234,1.34424-2.99658,2.99658-2.99658c1.65283,0,2.99707,1.34424,2.99707,2.99658
	C14.99701,14.64571,13.65277,15.98995,11.99994,15.98995z"/>
</svg>
