<?xml version="1.0" encoding="utf-8"?>
<!-- Generator: Adobe Illustrator 22.0.1, SVG Export Plug-In . SVG Version: 6.00 Build 0)  -->
<svg version="1.1" id="Layer_1" xmlns="http://www.w3.org/2000/svg" xmlns:xlink="http://www.w3.org/1999/xlink" x="0px" y="0px"
	 viewBox="0 0 24 24" style="enable-background:new 0 0 24 24;" xml:space="preserve">
<style type="text/css">
	.st0{fill:#221A1C;}
	.st1{fill:#231F20;}
</style>
<path class="st1" d="M6.54739,13.71162l2.62558,2.22593c0.34825-0.65166,0.70847-1.29133,1.08431-1.93399
	c0.73294-1.23531,1.49971-2.45312,2.35393-3.62792c1.70428-2.34009,3.63605-4.61767,6.28097-6.3476
	c0.60852-0.3981,1.43672-0.24656,1.85108,0.33758c0.40603,0.57365,0.26184,1.35084-0.31858,1.75544l-0.04581,0.03251
	c-2.08897,1.45287-3.82866,3.5639-5.33149,5.78896c-0.75896,1.11428-1.44557,2.28558-2.09938,3.47088
	c-0.64288,1.1808-1.26858,2.42211-1.78393,3.60941l-0.00052,0.001l-0.06038,0.12003
	c-0.3748,0.74369-1.30606,1.05427-2.08012,0.69417c-0.16345-0.07602-0.31129-0.18105-0.43258-0.29857l-3.38483-3.31414
	L6.54739,13.71162z"/>
</svg>
