<?xml version="1.0" encoding="utf-8"?>
<!-- Generator: Adobe Illustrator 22.0.1, SVG Export Plug-In . SVG Version: 6.00 Build 0)  -->
<svg version="1.1" id="Layer_1" xmlns="http://www.w3.org/2000/svg" xmlns:xlink="http://www.w3.org/1999/xlink" x="0px" y="0px"
	 viewBox="0 0 24 24" style="enable-background:new 0 0 24 24;" xml:space="preserve">
<style type="text/css">
	.st0{fill:#221A1C;}
	.st1{fill:#231F20;}
</style>
<path class="st1" d="M20.42472,6.24854l-0.0458,0.03221c-2.08884,1.43951-3.82841,3.53114-5.33115,5.73575
	c-0.75892,1.10404-1.44548,2.26457-2.09925,3.43897c-0.64284,1.16994-1.2685,2.39985-1.78382,3.57623l-0.00052,0.00099
	l-0.06038,0.11893c-0.37477,0.73685-1.30598,1.04457-2.07999,0.68779c-0.16344-0.07532-0.31127-0.17938-0.43255-0.29583
	l-5.20414-5.04894c-0.51583-0.49999-0.50803-1.30374,0.0177-1.79481c0.50126-0.46877,1.29661-0.48017,1.81609-0.04559
	l3.95282,3.32054c0.34823-0.64567,0.70843-1.27946,1.08424-1.91621c0.73289-1.22396,1.49961-2.43057,2.35378-3.59457
	c1.70418-2.31858,3.63582-4.57522,6.28058-6.28925c0.60849-0.39444,1.43663-0.2443,1.85096,0.33448
	C21.14929,5.07761,21.0051,5.84766,20.42472,6.24854z"/>
</svg>
