<?xml version="1.0" encoding="utf-8"?>
<!-- Generator: Adobe Illustrator 22.0.1, SVG Export Plug-In . SVG Version: 6.00 Build 0)  -->
<svg version="1.1" id="Layer_1" xmlns="http://www.w3.org/2000/svg" xmlns:xlink="http://www.w3.org/1999/xlink" x="0px" y="0px"
	 viewBox="0 0 24 24" style="enable-background:new 0 0 24 24;" xml:space="preserve">
<style type="text/css">
	.st0{fill:#221A1C;}
	.st1{fill:#231F20;}
</style>
<path d="M19.9923,9.83321v6.75195c0,2.98096-2.42529,5.40625-5.40625,5.40625h-0.17578c-2.98096,0-5.40625-2.42529-5.40625-5.40625
	L9.02013,9.9836c0-1.64844,1.34082-2.98926,2.98877-2.98926c1.65479,0,3.00098,1.34082,3.00098,2.98926v4.50488
	c0,0.27637-0.22363,0.5-0.5,0.5s-0.5-0.22363-0.5-0.5V9.9836c0-1.09668-0.89746-1.98926-2.00098-1.98926
	c-1.09668,0-1.98877,0.89258-1.98877,1.98926l-0.01611,6.60156c0,2.42969,1.97656,4.40625,4.40625,4.40625h0.17578
	c2.42969,0,4.40625-1.97656,4.40625-4.40625V9.83321c0-3.75635-3.05615-6.8125-6.8125-6.8125L11.80968,3.0129
	c-3.74561,0-6.80176,3.05615-6.80176,6.8125v4.68066c0,0.27637-0.22363,0.5-0.5,0.5s-0.5-0.22363-0.5-0.5V9.8254
	c0-4.30762,3.50488-7.8125,7.8125-7.8125l0.37012,0.00781C16.48742,2.02071,19.9923,5.52559,19.9923,9.83321z"/>
</svg>
