<?xml version="1.0" encoding="utf-8"?>
<!-- Generator: Adobe Illustrator 22.0.1, SVG Export Plug-In . SVG Version: 6.00 Build 0)  -->
<svg version="1.1" id="Layer_1" xmlns="http://www.w3.org/2000/svg" xmlns:xlink="http://www.w3.org/1999/xlink" x="0px" y="0px"
	 viewBox="0 0 24 24" style="enable-background:new 0 0 24 24;" xml:space="preserve">
<style type="text/css">
	.st0{fill:#221A1C;}
	.st1{fill:#231F20;}
</style>
<path d="M16.53331,4.97464h-3.01123c-0.27637,0-0.5,0.22363-0.5,0.5v0.45837L6.51891,9.3475
	C6.26934,9.12637,5.94493,8.98782,5.58605,8.98782H3.41613c-0.78027,0-1.41455,0.63428-1.41455,1.41455v3.16016
	c0,0.75092,0.58917,1.36066,1.32886,1.40588l0.74927,3.6283c0.03076,0.14893,0.12744,0.27588,0.26318,0.34473
	c0.07129,0.03613,0.14893,0.0542,0.22656,0.0542c0.07031,0,0.14111-0.01514,0.20703-0.04492l1.94043-0.88184
	c0.17822-0.08105,0.29297-0.25879,0.29297-0.45508v-2.84235l6.01221,3.26727v0.46326c0,0.27637,0.22363,0.5,0.5,0.5h2.97608
	c0.27539,0,0.49902-0.22314,0.5-0.49854L17.03331,5.4761c0.00049-0.13281-0.05225-0.26025-0.146-0.35449
	S16.66613,4.97464,16.53331,4.97464z M3.00646,13.56253v-3.16016c0-0.22607,0.18408-0.40967,0.40967-0.40967h2.16992
	c0.16541,0,0.3067,0.09985,0.37109,0.24164v3.49622c-0.06439,0.14178-0.20569,0.24164-0.37109,0.24164H3.41613
	C3.19054,13.9722,3.00646,13.7886,3.00646,13.56253z M4.93273,17.78128l-0.57922-2.8042h1.23254
	c0.14862,0,0.28918-0.02942,0.42383-0.07208v2.38702L4.93273,17.78128z M15.99962,18.00198h-1.97754v-0.26074v-5.23926
	c0-0.27637-0.22363-0.5-0.5-0.5s-0.5,0.22363-0.5,0.5v4.39844l-6.0282-3.27594c0.00092-0.021,0.00623-0.04071,0.00623-0.06195
	v-3.16016c0-0.05786-0.01025-0.11285-0.01703-0.16888l6.039-3.17096v0.42773c0,0.27637,0.22363,0.5,0.5,0.5s0.5-0.22363,0.5-0.5
	V6.23538V5.97464h2.00977L15.99962,18.00198z M14.02208,9.49612v0.99023c0,0.27637-0.22363,0.5-0.5,0.5s-0.5-0.22363-0.5-0.5
	V9.49612c0-0.27637,0.22363-0.5,0.5-0.5S14.02208,9.21976,14.02208,9.49612z M18.02501,7.64749
	c-0.08496-0.2627,0.05908-0.54492,0.32178-0.62939l3.01514-0.97412c0.26562-0.08398,0.54492,0.05957,0.62939,0.32178
	c0.08496,0.2627-0.05908,0.54492-0.32178,0.62939l-3.01514,0.97412c-0.05127,0.0166-0.10303,0.02441-0.15381,0.02441
	C18.28917,7.99368,18.09337,7.85892,18.02501,7.64749z M21.9879,18.65189c-0.06934,0.21045-0.26514,0.34375-0.4751,0.34375
	c-0.05176,0-0.10449-0.00781-0.15625-0.0249l-3.00928-0.99023c-0.26221-0.08643-0.40479-0.36914-0.31885-0.63135
	c0.08594-0.2627,0.36865-0.40479,0.63135-0.31885l3.00928,0.99023C21.93126,18.10696,22.07384,18.38968,21.9879,18.65189z
	 M22.01281,12.49417c0,0.27637-0.22363,0.5-0.5,0.5h-3.00928c-0.27637,0-0.5-0.22363-0.5-0.5s0.22363-0.5,0.5-0.5h3.00928
	C21.78917,11.99417,22.01281,12.2178,22.01281,12.49417z"/>
</svg>
