<?xml version="1.0" encoding="utf-8"?>
<!-- Generator: Adobe Illustrator 22.0.1, SVG Export Plug-In . SVG Version: 6.00 Build 0)  -->
<svg version="1.1" id="Layer_1" xmlns="http://www.w3.org/2000/svg" xmlns:xlink="http://www.w3.org/1999/xlink" x="0px" y="0px"
	 viewBox="0 0 24 24" style="enable-background:new 0 0 24 24;" xml:space="preserve">
<style type="text/css">
	.st0{fill:#221A1C;}
	.st1{fill:#231F20;}
</style>
<path d="M18.56819,21.99776h-8.1377c-0.79004,0-1.43359-0.64307-1.43359-1.43311V8.43526c0-0.79004,0.64355-1.43262,1.43359-1.43262
	h8.1377c0.79004,0,1.43262,0.64258,1.43262,1.43262v12.12939C20.00081,21.3547,19.35823,21.99776,18.56819,21.99776z
	 M10.43049,8.00265c-0.23926,0-0.43359,0.19385-0.43359,0.43262v12.12939c0,0.23877,0.19434,0.43311,0.43359,0.43311h8.1377
	c0.23828,0,0.43262-0.19434,0.43262-0.43311V8.43526c0-0.23877-0.19434-0.43262-0.43262-0.43262H10.43049z M6.99495,16.99923
	H5.50081c-0.27637,0-0.50195-0.22559-0.50195-0.50244V3.5046c0-0.27686,0.22559-0.50195,0.50195-0.50195h9
	c0.27637,0,0.50195,0.2251,0.50195,0.50195v1.49414h1V3.5046c0-0.82812-0.67383-1.50195-1.50195-1.50195h-9
	c-0.82812,0-1.50195,0.67383-1.50195,1.50195v12.99219c0,0.82861,0.67383,1.50244,1.50195,1.50244h1.49414V16.99923z"/>
</svg>
