<?xml version="1.0" encoding="utf-8"?>
<!-- Generator: Adobe Illustrator 22.0.1, SVG Export Plug-In . SVG Version: 6.00 Build 0)  -->
<svg version="1.1" id="Layer_1" xmlns="http://www.w3.org/2000/svg" xmlns:xlink="http://www.w3.org/1999/xlink" x="0px" y="0px"
	 viewBox="0 0 24 24" style="enable-background:new 0 0 24 24;" xml:space="preserve">
<style type="text/css">
	.st0{fill:#221A1C;}
	.st1{fill:#231F20;}
</style>
<path d="M11.99995,2.0002c-5.51416,0-10,4.48584-10,10s4.48584,10,10,10s10-4.48584,10-10S17.51411,2.0002,11.99995,2.0002z
	 M12.68012,12.02071l6.0144-6.0144c1.42828,1.59357,2.30542,3.69073,2.30542,5.9939c0,2.3136-0.88513,4.41931-2.32495,6.01538
	L12.68012,12.02071z M17.98719,5.29958l-6.0141,6.0141L5.98457,5.32516C7.58064,3.88534,9.68635,3.0002,11.99995,3.0002
	C14.29993,3.0002,16.39448,3.87484,17.98719,5.29958z M5.27979,6.03444l5.98627,5.98627l-5.96674,5.96674
	c-1.42474-1.59271-2.29938-3.68726-2.29938-5.98724C2.99995,9.71065,3.86659,7.62453,5.27979,6.03444z M6.00605,18.69478
	l5.96704-5.96704l5.99261,5.99261c-1.59009,1.41321-3.67621,2.27985-5.96576,2.27985
	C9.69678,21.0002,7.59962,20.12307,6.00605,18.69478z"/>
</svg>
