<?xml version="1.0" encoding="utf-8"?>
<!-- Generator: Adobe Illustrator 22.0.1, SVG Export Plug-In . SVG Version: 6.00 Build 0)  -->
<svg version="1.1" id="Layer_1" xmlns="http://www.w3.org/2000/svg" xmlns:xlink="http://www.w3.org/1999/xlink" x="0px" y="0px"
	 viewBox="0 0 24 24" style="enable-background:new 0 0 24 24;" xml:space="preserve">
<style type="text/css">
	.st0{fill:#221A1C;}
	.st1{fill:#231F20;}
</style>
<path d="M5.98569,10.98702c1.66699,0,3.02246-1.35645,3.02246-3.02344S7.65269,4.94063,5.98569,4.94063
	S2.96226,6.29659,2.96226,7.96358S4.3187,10.98702,5.98569,10.98702z M5.98569,5.94063c1.11523,0,2.02246,0.90771,2.02246,2.02295
	c0,1.11572-0.90723,2.02344-2.02246,2.02344c-1.11621,0-2.02344-0.90771-2.02344-2.02344
	C3.96226,6.84835,4.86948,5.94063,5.98569,5.94063z M13.48374,15.0002h-2.72363l-1.53418-1.44092
	c-1.75879-1.75879-3.41113-1.57373-3.42285-1.56885c-2.93555,0-3.76855,2.22998-3.7998,3.42236v4.0835
	c0,0.27637,0.22363,0.5,0.5,0.5h6.98047c0.27637,0,0.5-0.22363,0.5-0.5v-1.48975h3.5c0.8291,0,1.50391-0.67432,1.50391-1.50293
	C14.98765,15.67452,14.31284,15.0002,13.48374,15.0002z M13.48374,17.00655H9.80308l-1.04004-0.9751
	c-0.20117-0.18799-0.51758-0.1792-0.70703,0.02295c-0.18848,0.20117-0.17773,0.51758,0.02344,0.70654l0.9043,0.84766v1.3877H3.00327
	v-3.57031c0.00195-0.09961,0.09473-2.43555,2.85547-2.43848c0.05469-0.00732,1.26953-0.11035,2.67188,1.28955l1.67767,1.57544
	c0.00092,0.00092,0.00189,0.00171,0.00281,0.00262l0.00995,0.00934c0.01599,0.0152,0.03644,0.021,0.05383,0.03363
	c0.03339,0.02417,0.06519,0.04968,0.10406,0.06506c0.03833,0.01526,0.07855,0.01862,0.1189,0.02393
	c0.02222,0.00299,0.04193,0.01312,0.065,0.01312h2.9209c0.27832,0,0.50391,0.22559,0.50391,0.50342
	C13.98765,16.78097,13.76206,17.00655,13.48374,17.00655z M21.97788,6.28829c-0.00885-0.02075-0.02551-0.03461-0.03668-0.05347
	c-0.01117-0.0191-0.02222-0.03485-0.03589-0.05231c-0.05536-0.07111-0.12164-0.13049-0.20282-0.16278l-5.0459-2.00586
	C16.53648,3.967,16.40464,3.967,16.28452,4.01485l-4.97266,2.00586c-0.00189,0.00079-0.00269,0.00293-0.00458,0.00372
	c-0.07794,0.03247-0.14166,0.08966-0.19513,0.15833c-0.01392,0.01782-0.02539,0.03375-0.03674,0.05328
	c-0.01056,0.01801-0.02661,0.03101-0.03503,0.05078c-0.02765,0.06415-0.04041,0.13074-0.04059,0.19635
	c0,0.00049-0.00043,0.00092-0.00043,0.0014v5.82422c0,0.19873,0.11719,0.37842,0.2998,0.45801l4.99121,2.18701
	c0.06348,0.02783,0.13184,0.04199,0.2002,0.04199c0.06445,0,0.12891-0.0127,0.18945-0.0376l5.02734-2.06201
	c0.1875-0.07666,0.31055-0.25977,0.31055-0.4624V6.48458c0-0.00012-0.00012-0.00024-0.00012-0.00037
	C22.0178,6.41872,22.00523,6.35225,21.97788,6.28829z M16.473,5.01729l3.73248,1.4837l-3.7171,1.58649l-3.68958-1.58801
	L16.473,5.01729z M11.99937,7.24416l3.98828,1.71649v4.76886l-3.98828-1.74738V7.24416z M16.98765,13.75173V8.96187l4.03027-1.72015
	v4.85663L16.98765,13.75173z"/>
</svg>
