<?xml version="1.0" encoding="utf-8"?>
<!-- Generator: Adobe Illustrator 22.0.1, SVG Export Plug-In . SVG Version: 6.00 Build 0)  -->
<svg version="1.1" id="Layer_1" xmlns="http://www.w3.org/2000/svg" xmlns:xlink="http://www.w3.org/1999/xlink" x="0px" y="0px"
	 viewBox="0 0 24 24" style="enable-background:new 0 0 24 24;" xml:space="preserve">
<style type="text/css">
	.st0{fill:#221A1C;}
	.st1{fill:#231F20;}
	.st2{fill:none;}
</style>
<path d="M21.96226,12.04952l-1.26367-7c-0.21533-1.18994-1.24365-2.05322-2.4458-2.05322H9.48374
	c-0.09912,0-0.19629,0.02979-0.27881,0.08496L7.00523,4.55831V4.4963c0-0.27637-0.22363-0.5-0.5-0.5h-4
	c-0.27637,0-0.5,0.22363-0.5,0.5v9c0,0.27637,0.22363,0.5,0.5,0.5h4c0.27637,0,0.5-0.22363,0.5-0.5v-0.06207l2.08594,1.40045
	l1.93994,5.81982c0.06787,0.2041,0.25879,0.3418,0.47412,0.3418h2c0.27637,0,0.5-0.22363,0.5-0.5v-5.5h5.51123
	c0.73584,0,1.4292-0.32471,1.90283-0.8916C21.89683,13.53341,22.09458,12.78438,21.96226,12.04952z M6.00523,12.9963h-3v-8h3v0.5v7
	V12.9963z M20.65171,13.46358c-0.28271,0.33838-0.69629,0.53271-1.13525,0.53271h-6.01123c-0.27637,0-0.5,0.22363-0.5,0.5v5.5
	h-1.13965l-1.88623-5.6582c-0.04248-0.12793-0.14209-0.22998-0.26318-0.28809L7.00523,12.2297V5.7629l2.63086-1.7666h8.6167
	c0.71777,0,1.33252,0.51758,1.46143,1.23096l1.26367,7C21.05796,12.66964,20.93882,13.12032,20.65171,13.46358z"/>
</svg>
