<?xml version="1.0" encoding="utf-8"?>
<!-- Generator: Adobe Illustrator 22.0.1, SVG Export Plug-In . SVG Version: 6.00 Build 0)  -->
<svg version="1.1" id="Layer_1" xmlns="http://www.w3.org/2000/svg" xmlns:xlink="http://www.w3.org/1999/xlink" x="0px" y="0px"
	 viewBox="0 0 24 24" style="enable-background:new 0 0 24 24;" xml:space="preserve">
<style type="text/css">
	.st0{fill:#221A1C;}
	.st1{fill:#231F20;}
</style>
<path d="M1.99394,3.49636V3.4963c0-0.27606,0.22382-0.49994,0.49994-0.49994h18.98413c0.27612,0,0.49994,0.22388,0.49994,0.49994
	v0.00006c0,0.27606-0.22382,0.49994-0.49994,0.49994H2.49387C2.21775,3.9963,1.99394,3.77242,1.99394,3.49636z M2.49418,7.99477
	h18.98413c0.27612,0,0.5-0.22388,0.5-0.5s-0.22388-0.49994-0.5-0.49994H2.49418c-0.27606,0-0.49994,0.22382-0.49994,0.49994
	S2.21812,7.99477,2.49418,7.99477z M21.48258,10.99135H2.49845c-0.27606,0-0.49994,0.22382-0.49994,0.49994
	s0.22388,0.49994,0.49994,0.49994h18.98413c0.27612,0,0.5-0.22382,0.5-0.49994S21.75871,10.99135,21.48258,10.99135z
	 M2.49687,15.99361H21.481c0.27612,0,0.49994-0.22382,0.49994-0.49994s-0.22382-0.49994-0.49994-0.49994H2.49687
	c-0.27612,0-0.49994,0.22382-0.49994,0.49994S2.22074,15.99361,2.49687,15.99361z M21.48136,18.99221H2.49723
	c-0.27612,0-0.49994,0.22382-0.49994,0.49994s0.22382,0.49994,0.49994,0.49994h18.98413c0.27612,0,0.49994-0.22382,0.49994-0.49994
	S21.75749,18.99221,21.48136,18.99221z"/>
</svg>
