<?xml version="1.0" encoding="utf-8"?>
<!-- Generator: Adobe Illustrator 22.0.1, SVG Export Plug-In . SVG Version: 6.00 Build 0)  -->
<svg version="1.1" id="Layer_1" xmlns="http://www.w3.org/2000/svg" xmlns:xlink="http://www.w3.org/1999/xlink" x="0px" y="0px"
	 viewBox="0 0 24 24" style="enable-background:new 0 0 24 24;" xml:space="preserve">
<style type="text/css">
	.st0{fill:#221A1C;}
	.st1{fill:#231F20;}
</style>
<path d="M6.98862,9.99874c1.65918,0,3.00879-1.3501,3.00879-3.00928S8.6478,3.98018,6.98862,3.98018
	s-3.00879,1.3501-3.00879,3.00928S5.32944,9.99874,6.98862,9.99874z M6.98862,4.98018c1.10742,0,2.00879,0.90137,2.00879,2.00928
	S8.09605,8.99874,6.98862,8.99874S4.97984,8.09737,4.97984,6.98946S5.8812,4.98018,6.98862,4.98018z M8.27769,11.00606H5.63902
	c-2.04297,0-3.64355,1.60938-3.64355,3.66357v4.80908c0,0.27637,0.22363,0.5,0.5,0.5h8.99316c0.27637,0,0.5-0.22363,0.5-0.5
	v-4.80908C11.98862,12.61544,10.35874,11.00606,8.27769,11.00606z M2.99546,15.25039l5.17926,3.72833H2.99546V15.25039z
	 M9.88602,18.97872l-6.82336-4.91187c0.11066-0.51849,0.36029-0.97125,0.7146-1.31915l7.21136,5.19006v1.04095H9.88602z
	 M10.98862,16.70595l-6.29266-4.52887c0.29144-0.10596,0.60596-0.17102,0.94305-0.17102h2.63867
	c1.52051,0,2.71094,1.16992,2.71094,2.66357V16.70595z M21.79234,13.76485l-0.94727-0.69336
	c-0.19629-0.14502-0.47266-0.12549-0.64746,0.04932l-1.71118,1.70593l-2.30994-2.30609l1.68616-1.68207
	c0.19531-0.19482,0.19531-0.51172,0-0.70703c-0.19531-0.19629-0.51172-0.19531-0.70703-0.00098l-4.02148,4.01172
	c-0.19531,0.19482-0.19531,0.51172,0,0.70703c0.09766,0.09814,0.22559,0.14697,0.35352,0.14697s0.25586-0.04883,0.35352-0.146
	l1.62695-1.62305l2.30975,2.30591l-3.63007,3.6189c-0.14355,0.14258-0.18652,0.35791-0.10938,0.54492
	s0.25977,0.30908,0.46191,0.30908h6.98535c0.27539,0,0.49902-0.22314,0.5-0.49902l0.01172-5.33789
	C21.99741,14.00948,21.92124,13.85909,21.79234,13.76485z M20.98667,19.00606H15.7103l4.88965-4.875l0.39648,0.29053
	L20.98667,19.00606z"/>
</svg>
