<?xml version="1.0" encoding="utf-8"?>
<!-- Generator: Adobe Illustrator 22.0.1, SVG Export Plug-In . SVG Version: 6.00 Build 0)  -->
<svg version="1.1" id="Layer_1" xmlns="http://www.w3.org/2000/svg" xmlns:xlink="http://www.w3.org/1999/xlink" x="0px" y="0px"
	 viewBox="0 0 24 24" style="enable-background:new 0 0 24 24;" xml:space="preserve">
<style type="text/css">
	.st0{fill:#221A1C;}
	.st1{fill:#231F20;}
</style>
<path d="M21.02289,6.1971V2.48067c0-0.27637-0.22363-0.5-0.5-0.5H3.49261c-0.27637,0-0.5,0.22363-0.5,0.5v3.71521
	C2.3999,6.50191,2.00043,7.09933,2.00043,7.79024v12.39844c0,0.98682,0.80273,1.79004,1.78955,1.79004h16.41309
	c0.99072,0,1.79688-0.80615,1.79688-1.79688V7.77364C21.99994,7.09218,21.6065,6.50179,21.02289,6.1971z M20.86908,7.65743
	c0.03864-0.03711,0.06488-0.08319,0.08954-0.12964c0.02527,0.07812,0.04132,0.16022,0.04132,0.24585v10.91663l-6.29309-5.11804
	L20.86908,7.65743z M3.99261,2.98067h16.03027v4.10254l-8.02588,7.7041L3.99261,7.17989V2.98067z M3.03369,7.59231
	c0.02649,0.06134,0.06512,0.11737,0.11469,0.16425l6.16565,5.86017l-6.3136,5.0744V7.79024
	C3.00043,7.72127,3.01745,7.65676,3.03369,7.59231z M20.20306,20.97872H3.78998c-0.43555,0-0.78955-0.35449-0.78955-0.79004
	v-0.21436l7.0451-5.66235l1.6087,1.52905c0.09619,0.0918,0.22021,0.1377,0.34424,0.1377c0.125,0,0.24951-0.04639,0.34619-0.13916
	l1.63556-1.56989l7.01971,5.70905v0.20312C20.99994,20.6213,20.64252,20.97872,20.20306,20.97872z M12.34607,11.88863
	c-0.92761-0.28717-1.79999-0.65149-2.2196-1.10431c-0.41962-0.44165-0.62939-1.01587-0.62939-1.71161
	c0-0.70673,0.20978-1.29193,0.61835-1.74475c0.40857-0.4527,1.18158-0.71771,1.89941-0.80609V4.00411h0.97174v2.52881
	c0.71771,0.09937,1.28088,0.39752,1.68945,0.90552c0.39752,0.50793,0.60736,1.20361,0.60736,2.08704h-1.19257
	c0-0.60736-0.14355-1.0932-0.43066-1.44659C13.362,7.7145,12.97552,7.5378,12.48962,7.5378
	c-0.51904,0-1.1153,0.13251-1.39136,0.39752c-0.26501,0.26508-0.39752,0.6405-0.39752,1.1153
	c0,0.44177,0.14355,0.78406,0.43066,1.04907c0.27606,0.26501,0.96069,0.49695,1.61218,0.71783
	c0.58844,0.18634,1.07581,0.3717,1.45343,0.60065l-0.84491,0.88031C13.03576,12.126,12.79346,12.0403,12.34607,11.88863z"/>
</svg>
