<?xml version="1.0" encoding="utf-8"?>
<!-- Generator: Adobe Illustrator 22.0.1, SVG Export Plug-In . SVG Version: 6.00 Build 0)  -->
<svg version="1.1" id="Layer_1" xmlns="http://www.w3.org/2000/svg" xmlns:xlink="http://www.w3.org/1999/xlink" x="0px" y="0px"
	 viewBox="0 0 24 24" style="enable-background:new 0 0 24 24;" xml:space="preserve">
<style type="text/css">
	.st0{fill:#221A1C;}
	.st1{fill:#231F20;}
</style>
<path d="M20.20274,3.98636H3.81699c-1.00098,0-1.81543,0.81445-1.81543,1.81543v12.39844c0,0.98682,0.80273,1.79004,1.79004,1.79004
	h16.41309c0.99121,0,1.79688-0.80615,1.79688-1.79688V5.78519C22.00157,4.79349,21.19493,3.98636,20.20274,3.98636z
	 M20.96061,5.58286c0.01782,0.06616,0.04095,0.13062,0.04095,0.20233v10.91663l-6.29303-5.11804L20.96061,5.58286z
	 M20.13682,4.98636l-8.13916,7.8125L3.78507,4.99283C3.79624,4.99234,3.8057,4.98636,3.81699,4.98636H20.13682z M3.00156,5.80179
	c0-0.05164,0.02032-0.09668,0.02954-0.14569l6.284,5.9726l-6.31354,5.07404V5.80179z M20.20469,18.99026H3.7916
	c-0.43555,0-0.79004-0.35449-0.79004-0.79004v-0.21436l7.04504-5.66193l1.60828,1.52863
	c0.09668,0.0918,0.2207,0.1377,0.34473,0.1377c0.125,0,0.25-0.04639,0.34668-0.13916l1.63556-1.56982l7.01972,5.70898v0.20312
	C21.00157,18.63284,20.64414,18.99026,20.20469,18.99026z"/>
</svg>
