<?xml version="1.0" encoding="utf-8"?>
<!-- Generator: Adobe Illustrator 22.0.1, SVG Export Plug-In . SVG Version: 6.00 Build 0)  -->
<svg version="1.1" id="Layer_1" xmlns="http://www.w3.org/2000/svg" xmlns:xlink="http://www.w3.org/1999/xlink" x="0px" y="0px"
	 viewBox="0 0 24 24" style="enable-background:new 0 0 24 24;" xml:space="preserve">
<style type="text/css">
	.st0{fill:#221A1C;}
	.st1{fill:#231F20;}
</style>
<path d="M11.49401,8.98751h1.00146v4.99896h-1.00146V8.98751z M10.98967,16.97603c0,0.55798,0.45233,1.01031,1.01031,1.01031
	s1.01038-0.45233,1.01038-1.01031s-0.45239-1.01038-1.01038-1.01038S10.98967,16.41805,10.98967,16.97603z M21.93224,20.75216
	c-0.08984,0.15332-0.25391,0.24707-0.43115,0.24707H2.50402c-0.17725,0-0.34131-0.09375-0.43115-0.24658
	s-0.0918-0.34229-0.00537-0.49707l9.49072-17.02002c0.17627-0.31543,0.69629-0.31641,0.87305,0l9.50635,17.02002
	C22.02404,20.41036,22.02208,20.59933,21.93224,20.75216z M20.64904,19.99923L11.99523,4.50509L3.35509,19.99923H20.64904z"/>
</svg>
