<?xml version="1.0" encoding="utf-8"?>
<!-- Generator: Adobe Illustrator 22.0.1, SVG Export Plug-In . SVG Version: 6.00 Build 0)  -->
<svg version="1.1" id="Layer_1" xmlns="http://www.w3.org/2000/svg" xmlns:xlink="http://www.w3.org/1999/xlink" x="0px" y="0px"
	 viewBox="0 0 24 24" style="enable-background:new 0 0 24 24;" xml:space="preserve">
<style type="text/css">
	.st0{fill:#221A1C;}
	.st1{fill:#231F20;}
	.st2{fill:none;}
</style>
<g>
	<circle cx="12.00559" cy="11.9963" r="1"/>
	<path d="M4.71537,4.00643L7.50669,4.0002c0.27637-0.00049,0.49951-0.2251,0.49902-0.50098s-0.22412-0.49902-0.5-0.49902
		c-0.00049,0-0.00098,0-0.00098,0L3.49888,3.00899c-0.27588,0.00049-0.49902,0.22412-0.49902,0.5l0.00098,3.9873
		c0,0.27637,0.22412,0.5,0.5,0.5c0.27637,0,0.5-0.22412,0.5-0.5L4.00004,4.7062L9.1522,9.8503
		c0.09766,0.09717,0.22559,0.146,0.35352,0.146s0.25635-0.04883,0.354-0.14648c0.19482-0.1958,0.19482-0.51221-0.00049-0.70752
		L4.71537,4.00643z"/>
	<path d="M14.49986,10.00069c0.12793,0,0.25586-0.04883,0.35352-0.14648l5.14777-5.14777L20.00034,7.4963
		c0,0.27588,0.22363,0.5,0.5,0.5c0.27588,0,0.5-0.22363,0.5-0.5l0.00098-3.9873c0-0.27588-0.22314-0.49951-0.49902-0.5
		L16.49644,3.0002c-0.00049,0-0.00049,0-0.00098,0c-0.27588,0-0.49951,0.22314-0.5,0.49902s0.22266,0.50049,0.49902,0.50098
		l2.7926,0.00623l-5.14075,5.14075c-0.19531,0.19531-0.19531,0.51172,0,0.70703C14.244,9.95186,14.37193,10.00069,14.49986,10.00069
		z"/>
	<path d="M9.1478,14.14669l-5.14777,5.14777l0.00079-2.79034c0-0.27588-0.22363-0.5-0.5-0.5c-0.27588,0-0.5,0.22363-0.5,0.5
		l-0.00098,3.9873c0,0.27539,0.22314,0.49951,0.49902,0.5l4.00586,0.00928c0,0,0.00049,0,0.00098,0
		c0.27539,0,0.49951-0.22314,0.5-0.49902s-0.22266-0.50049-0.49902-0.50098L4.71445,19.9941l5.14038-5.14038
		c0.19531-0.19531,0.19531-0.51172,0-0.70703S9.34312,13.95138,9.1478,14.14669z"/>
	<path d="M20.50034,16.00411c-0.27637,0-0.5,0.22412-0.5,0.5l0.00079,2.79034l-5.14777-5.14777
		c-0.19531-0.19531-0.51172-0.19531-0.70703,0s-0.19531,0.51172,0,0.70703l5.14038,5.14038l-2.79224,0.00659
		c-0.27637,0.00049-0.49951,0.2251-0.49902,0.50098s0.22461,0.49902,0.5,0.49902c0.00049,0,0.00098,0,0.00098,0l4.00586-0.00928
		c0.27588-0.00049,0.49902-0.22461,0.49902-0.5l-0.00098-3.9873C21.00034,16.22774,20.77622,16.00411,20.50034,16.00411z"/>
</g>
</svg>
