<?xml version="1.0" encoding="utf-8"?>
<!-- Generator: Adobe Illustrator 22.0.1, SVG Export Plug-In . SVG Version: 6.00 Build 0)  -->
<svg version="1.1" id="Layer_1" xmlns="http://www.w3.org/2000/svg" xmlns:xlink="http://www.w3.org/1999/xlink" x="0px" y="0px"
	 viewBox="0 0 24 24" style="enable-background:new 0 0 24 24;" xml:space="preserve">
<style type="text/css">
	.st0{fill:#221A1C;}
	.st1{fill:#231F20;}
</style>
<path class="st0" d="M14.47602,16.9963c-0.27637,0-0.5,0.22363-0.5,0.5v2.5H2.95844V8.96505h5.04492V4.01388h5.97266v7.46484
	c0,0.27637,0.22363,0.5,0.5,0.5s0.5-0.22363,0.5-0.5V3.01388H7.00385L1.95844,7.97433V20.9963h13.01758v-3.5
	C14.97602,17.21993,14.75239,16.9963,14.47602,16.9963z M3.39399,7.96505l3.60938-3.5484v3.5484H3.39399z M22.00532,14.4753
	c0.00195,0.15967-0.07227,0.31006-0.19922,0.40576l-3.73486,2.81201c-0.09033,0.06787-0.1958,0.10059-0.30029,0.10059
	c-0.15186,0-0.30176-0.06885-0.3999-0.19922c-0.16602-0.2207-0.12207-0.53418,0.09863-0.7002l2.51282-1.89209h-6.48352
	c-0.27637,0-0.5-0.22363-0.5-0.5s0.22363-0.5,0.5-0.5h6.47644l-2.72644-1.9502c-0.22461-0.16064-0.27637-0.47314-0.11572-0.69775
	c0.16113-0.22461,0.47217-0.27588,0.69775-0.11572l3.96533,2.83643C21.92573,14.16768,22.00336,14.31612,22.00532,14.4753z"/>
</svg>
