<?xml version="1.0" encoding="utf-8"?>
<!-- Generator: Adobe Illustrator 22.0.1, SVG Export Plug-In . SVG Version: 6.00 Build 0)  -->
<svg version="1.1" id="Layer_1" xmlns="http://www.w3.org/2000/svg" xmlns:xlink="http://www.w3.org/1999/xlink" x="0px" y="0px"
	 viewBox="0 0 24 24" style="enable-background:new 0 0 24 24;" xml:space="preserve">
<style type="text/css">
	.st0{fill:#221A1C;}
	.st1{fill:#231F20;}
</style>
<path d="M21.64884,11.48842C19.53172,8.05526,15.92783,6.0021,12.0084,5.9963h-0.00073h-0.01624
	c-3.9248,0.00018-7.53571,2.04248-9.65906,5.46313l-0.32629,0.52557l0.32471,0.52661
	c2.11694,3.43359,5.72809,5.48694,9.65979,5.49274c3.92969,0,7.53333-2.04248,9.65674-5.46368l0.32623-0.52563L21.64884,11.48842z
	 M12.00749,17.00435c-0.00531,0-0.01007,0-0.01544,0c-3.65228-0.00537-6.90076-1.92078-8.81006-5.01752
	C5.0977,8.90072,8.34574,6.99648,11.99149,6.9963c0.00531,0,0.01007,0,0.01544,0c3.65222,0.00537,6.88141,1.92078,8.79071,5.01703
	C18.88194,15.09987,15.65324,17.00435,12.00749,17.00435z M11.99961,7.99288c-2.20898,0-4.00684,1.79785-4.00684,4.00732
	s1.79785,4.00684,4.00684,4.00684c2.20996,0,4.00781-1.79736,4.00781-4.00684S14.20957,7.99288,11.99961,7.99288z
	 M11.99961,15.00704c-1.6582,0-3.00684-1.34863-3.00684-3.00684s1.34863-3.00732,3.00684-3.00732s3.00781,1.34912,3.00781,3.00732
	S13.65781,15.00704,11.99961,15.00704z"/>
</svg>
