<?xml version="1.0" encoding="utf-8"?>
<!-- Generator: Adobe Illustrator 22.0.1, SVG Export Plug-In . SVG Version: 6.00 Build 0)  -->
<svg version="1.1" id="Layer_1" xmlns="http://www.w3.org/2000/svg" xmlns:xlink="http://www.w3.org/1999/xlink" x="0px" y="0px"
	 viewBox="0 0 24 24" style="enable-background:new 0 0 24 24;" xml:space="preserve">
<style type="text/css">
	.st0{fill:#221A1C;}
	.st1{fill:#231F20;}
</style>
<path d="M21.85679,11.76876c-1.15778-2.06433-3.28143-3.5343-4.61346-4.30933l3.60956-3.60815
	c0.19531-0.19531,0.19531-0.51172,0-0.70703s-0.51172-0.19531-0.70703,0L3.13804,20.14571
	c-0.19531,0.19531-0.19531,0.51172,0,0.70703c0.09766,0.09766,0.22559,0.14648,0.35352,0.14648s0.25586-0.04883,0.35352-0.14648
	l3.82574-3.82428l0.56195,0.24371c1.21094,0.48242,2.47461,0.72803,3.75781,0.72998c0.00488,0,0.00977,0,0.01562,0
	c3.95312,0,7.91016-2.30664,9.85059-5.74316l0.13867-0.24463L21.85679,11.76876z M13.99155,11.98849
	c0,1.10693-0.90039,2.00732-2.00684,2.00732c-0.35657,0-0.68915-0.11285-0.99219-0.2879l2.71704-2.71594
	C13.86344,11.29006,13.99155,11.66579,13.99155,11.98849z M12.0062,17.00216c-0.00488,0-0.00977,0-0.01367,0
	c-1.15625-0.00195-2.29688-0.22363-3.375-0.65283l-0.18646-0.08087l1.8252-1.82452c0.50769,0.3587,1.10297,0.55188,1.72845,0.55188
	c1.6582,0,3.00684-1.34912,3.00684-3.00732c0-0.64099-0.28479-1.30029-0.55359-1.72467l2.07086-2.07013l0.06866,0.03015
	c1.12402,0.63623,3.12891,1.95459,4.26367,3.79053C19.02671,15.00997,15.51499,17.00216,12.0062,17.00216z M2.14292,12.24044
	L1.99644,11.9919l0.1416-0.25098c1.94043-3.43652,5.89941-5.74268,9.85449-5.74268c0.00586,0,0.01074,0,0.01562,0l0.57227-0.00049
	l0.9248,0.00049c0.27637,0.00098,0.49902,0.22559,0.49805,0.50195c-0.00098,0.27539-0.22461,0.49805-0.5,0.49805
	c-0.00098,0-0.00098,0-0.00195,0L12.5814,6.99776l-0.5752,0.00049c-0.00391,0-0.00879,0-0.01367,0
	c-3.51074,0-7.02344,1.9917-8.83887,4.98633c0.97656,1.63037,1.36523,1.99072,2.65332,3.08105
	c0.21094,0.17871,0.23633,0.49414,0.05859,0.70508c-0.09863,0.1167-0.24023,0.17676-0.38184,0.17676
	c-0.11426,0-0.22949-0.03906-0.32324-0.11816C3.67808,14.57442,3.25523,14.12716,2.14292,12.24044z M11.43687,8.97579
	c0.2666-0.02295,0.52051,0.17139,0.54785,0.44727c0.02832,0.27441-0.17188,0.52002-0.44629,0.54785
	c-0.90723,0.0918-1.43066,0.62598-1.55469,1.58789c-0.0332,0.25195-0.24805,0.43555-0.49512,0.43555
	c-0.02148,0-0.04395-0.00146-0.06543-0.00439c-0.27344-0.03516-0.4668-0.28613-0.43164-0.56006
	C9.17612,10.00948,10.06773,9.11495,11.43687,8.97579z"/>
</svg>
