<?xml version="1.0" encoding="utf-8"?>
<!-- Generator: Adobe Illustrator 22.0.1, SVG Export Plug-In . SVG Version: 6.00 Build 0)  -->
<svg version="1.1" id="Layer_1" xmlns="http://www.w3.org/2000/svg" xmlns:xlink="http://www.w3.org/1999/xlink" x="0px" y="0px"
	 viewBox="0 0 24 24" style="enable-background:new 0 0 24 24;" xml:space="preserve">
<style type="text/css">
	.st0{fill:#221A1C;}
	.st1{fill:#231F20;}
</style>
<path d="M18.97932,6.33565c0.09863,0.25781-0.03027,0.54736-0.28809,0.646C17.39729,7.47823,14.97932,8.0085,12.0721,8.0085
	c-2.9541,0-5.47559-0.56055-6.7373-1.04053C5.07698,6.86983,4.9471,6.58077,5.04475,6.32296
	C5.14338,6.06417,5.4344,5.93575,5.69026,6.03341c0.95215,0.3623,3.36719,0.9751,6.38184,0.9751
	c2.77051,0,5.05078-0.49609,6.26172-0.96045C18.59065,5.9504,18.88069,6.07833,18.97932,6.33565z M22.00862,6.29268
	c0,0.62549-0.27734,1.21729-0.82324,1.76025c-0.01074,0.01416-0.02246,0.02734-0.03418,0.04053l-6.13672,6.48096v5.43555
	c0,1.23584-1.75391,1.99463-3.01074,1.99463c-1.24121,0-2.97168-0.7627-2.97168-2.00488V14.5754l-6.1416-6.44238
	C2.88362,8.12472,2.87581,8.1169,2.86897,8.1086C2.28694,7.54854,1.99104,6.93819,1.99104,6.29268
	c0-2.44971,4.30469-4.29736,10.0127-4.29736C17.61409,1.99532,22.00862,3.88302,22.00862,6.29268z M21.00862,6.29268
	c0-1.55957-3.69824-3.29736-9.00488-3.29736c-5.31152,0-9.0127,1.73779-9.0127,3.29736c0,0.37402,0.2041,0.75391,0.60742,1.12939
	c0.02246,0.02051,0.04199,0.04248,0.05957,0.06641l6.23633,6.5415c0.08789,0.09326,0.1377,0.2168,0.1377,0.34521v5.62451
	c0,0.42041,0.99316,1.00488,1.97168,1.00488c0.9707,0,2.01074-0.58398,2.01074-0.99463V14.3752
	c0-0.12793,0.04883-0.25098,0.13672-0.34375l6.21973-6.56787c0.01855-0.02734,0.04004-0.05273,0.06445-0.07568
	C20.81526,7.02511,21.00862,6.65645,21.00862,6.29268z"/>
</svg>
