<?xml version="1.0" encoding="utf-8"?>
<!-- Generator: Adobe Illustrator 22.0.1, SVG Export Plug-In . SVG Version: 6.00 Build 0)  -->
<svg version="1.1" id="Layer_1" xmlns="http://www.w3.org/2000/svg" xmlns:xlink="http://www.w3.org/1999/xlink" x="0px" y="0px"
	 viewBox="0 0 24 24" style="enable-background:new 0 0 24 24;" xml:space="preserve">
<style type="text/css">
	.st0{fill:#221A1C;}
	.st1{fill:#231F20;}
</style>
<path d="M22.98909,10.48409c-0.00586,0.12354-0.05859,0.23779-0.15039,0.32178c-0.00488,0.00537-0.01758,0.01904-0.03711,0.03955
	c-0.64355,0.69238-2.36328,2.31396-4.43848,2.4165c-1.16504,0.04492-2.09668-0.23633-2.74121-0.85742
	c-0.46191-0.44531-0.69043-0.97705-0.80273-1.39355c-0.54883,0.57373-1.43262,1.96973-1.89453,2.77637
	c-0.08984,0.15479-0.26074,0.24512-0.44531,0.23047c-0.18457-0.01855-0.33887-0.14307-0.39551-0.31641
	c-0.43457-1.32812-0.03906-3.02686,0.21582-4.02783c-1.25879,1.11182-3.45703,3.46826-4.4707,5.10498
	c-0.125,0.20459-0.38086,0.27832-0.59961,0.17041c-0.20898-0.10449-0.30566-0.35352-0.22656-0.5791
	c1.16113-3.25928,1.73535-6.52734,2.01172-8.09766l0.04004-0.22754c-1.64648,0.625-3.35254,2.85596-4.94531,6.4707
	c-1.19141,2.70264-1.96289,5.3584-2.1709,6.10791l-0.01074,0.04053c-0.05957,0.19531-0.2373,0.32666-0.44238,0.32666
	c-0.04785,0-0.09375-0.00732-0.13672-0.021c-0.24219-0.07471-0.37988-0.33447-0.30566-0.57812l0.03516-0.12061
	C1.91878,15.34737,5.00862,5.74825,9.47346,4.97433C9.60139,4.95284,9.74397,4.988,9.84749,5.07393
	c0.10449,0.08691,0.16504,0.21436,0.16699,0.34961c0.00293,0.20264-0.37207,3.19385-1.2041,6.50488
	c0.91309-1.09326,2.89648-3.35059,3.96289-3.66992c0.13477-0.04297,0.36133-0.02002,0.48828,0.08691
	c0.27441,0.22949,0.19727,0.52979,0.05664,1.07471c-0.02344,0.09375-0.05566,0.20801-0.09082,0.3374
	c-0.17871,0.64355-0.46289,1.67432-0.45508,2.52393c0.70215-1.06494,1.63379-2.34814,2.28613-2.50342
	c0.13965-0.03369,0.2832-0.00146,0.39551,0.08838c0.10938,0.08691,0.1748,0.22314,0.1748,0.36426
	c0,0.00879,0.00879,0.90918,0.64062,1.51318c0.45898,0.43896,1.14746,0.6416,2.04785,0.59277
	c1.93555-0.09521,3.57129-1.84473,3.87988-2.19482l0.01758-0.01904c0.09082-0.08301,0.21289-0.12305,0.33301-0.12061
	c0.12402,0.00586,0.2373,0.05908,0.32031,0.15039C22.951,10.24288,22.99397,10.36056,22.98909,10.48409z"/>
</svg>
