<?xml version="1.0" encoding="utf-8"?>
<!-- Generator: Adobe Illustrator 22.0.1, SVG Export Plug-In . SVG Version: 6.00 Build 0)  -->
<svg version="1.1" id="Layer_1" xmlns="http://www.w3.org/2000/svg" xmlns:xlink="http://www.w3.org/1999/xlink" x="0px" y="0px"
	 viewBox="0 0 24 24" style="enable-background:new 0 0 24 24;" xml:space="preserve">
<style type="text/css">
	.st0{fill:#221A1C;}
	.st1{fill:#231F20;}
</style>
<path d="M9.94981,21.29024c0.11033,0.25293-0.00488,0.54785-0.25781,0.6582c-0.06543,0.02881-0.13281,0.04199-0.2002,0.04199
	c-0.19238,0-0.37598-0.11182-0.45801-0.2998L2.03672,5.69356C1.92637,5.44063,2.0416,5.14571,2.29453,5.03536
	c0.25195-0.10986,0.54785,0.00391,0.6582,0.25781L9.94981,21.29024z M21.98106,9.20168
	c-0.4129,2.23822-1.86053,3.65125-3.87012,3.77972c-0.19269,0.01282-0.37018,0.01855-0.53497,0.01855
	c-0.92358,0-1.49353-0.18225-2.05499-0.36182c-0.16638-0.05304-0.33997-0.12109-0.52661-0.19519
	c-0.49066-0.19489-0.9978-0.39642-1.79626-0.39642c-0.00018,0-0.00049,0-0.00073,0c-1.43842,0.01361-2.26965,0.8327-2.71368,1.5174
	c-0.18524,0.28564-0.50183,0.45593-0.83881,0.45593c-0.02551,0-0.05121-0.00104-0.07697-0.00299
	c-0.36517-0.02808-0.68573-0.2536-0.83563-0.58777L6.07346,7.50161C5.93809,7.19985,5.96067,6.85067,6.13383,6.56887
	C7.19102,4.84792,8.64726,3.9753,10.46214,3.9753c0.00757,0,0.0506,0.00024,0.05817,0.00043
	c0.85333,0.01929,1.64355,0.31104,2.22058,0.52405c0.17303,0.0639,0.32062,0.12158,0.43414,0.14972
	c0.24042,0.05975,0.43842,0.12598,0.62628,0.1897c0.31567,0.10712,0.50623,0.17169,0.89319,0.17169
	c0.26086,0,0.58069-0.03015,0.97797-0.09229c0.39868-0.06219,1.03241-0.51697,1.78735-2.3302
	c0.15424-0.37048,0.51501-0.61291,0.91638-0.6156c0.00226-0.00006,0.00452-0.00006,0.00684-0.00006
	c0.39862,0,0.75946,0.23688,0.91779,0.60315l2.61475,6.04749C21.99424,8.80538,22.01707,9.00667,21.98106,9.20168z
	 M20.99766,9.02022l-2.61469-6.04749c-0.38843,0.93292-1.20636,2.72327-2.55634,2.9339
	c-0.47437,0.07422-0.83752,0.10425-1.13214,0.10425c-0.80945,0-1.10144-0.22711-1.76056-0.39087
	c-0.47968-0.11914-1.46515-0.62256-2.43628-0.64453c-0.0119-0.00012-0.02368-0.00018-0.03552-0.00018
	c-2.11707,0-3.11353,1.52655-3.47626,2.117l2.65881,5.92749c0.59631-0.91949,1.72864-1.95599,3.54321-1.97321
	c0.0141-0.00012,0.02808-0.00018,0.04199-0.00018c1.25488,0,1.97943,0.44257,2.59515,0.6391
	c0.51984,0.16626,0.97797,0.31451,1.75092,0.31451c0.14441,0,0.29993-0.00519,0.46875-0.01642
	C20.40568,11.83266,20.90434,9.52614,20.99766,9.02022z"/>
</svg>
