<?xml version="1.0" encoding="utf-8"?>
<!-- Generator: Adobe Illustrator 22.0.1, SVG Export Plug-In . SVG Version: 6.00 Build 0)  -->
<svg version="1.1" id="Layer_1" xmlns="http://www.w3.org/2000/svg" xmlns:xlink="http://www.w3.org/1999/xlink" x="0px" y="0px"
	 viewBox="0 0 24 24" style="enable-background:new 0 0 24 24;" xml:space="preserve">
<style type="text/css">
	.st0{fill:#221A1C;}
	.st1{fill:#231F20;}
</style>
<path d="M17.86095,12.84005l-2.00391,2.0166c-0.09766,0.09814-0.22607,0.14746-0.35449,0.14746
	c-0.12744,0-0.25488-0.04834-0.35254-0.14551c-0.1958-0.19434-0.19679-0.51123-0.00195-0.70703l1.18842-1.1958h-3.19086
	c-0.03369,0.00293-1.65381-0.04883-2.8374,1.09033c-0.86865,0.83691-1.30957,2.11328-1.30957,3.79346v1.99561
	c0,0.00171-0.00098,0.00311-0.00098,0.00482v1.65387c0,0.27637-0.22363,0.5-0.5,0.5s-0.5-0.22363-0.5-0.5v-3.98193
	c0-0.06921,0.0141-0.13507,0.03943-0.19495c0.0929-1.7085,0.61023-3.06598,1.58899-4.00183
	c1.49951-1.43457,3.46045-1.36328,3.54199-1.35889l3.09882-0.00049l-1.10028-1.09961c-0.19531-0.19482-0.19531-0.51172,0-0.70703
	s0.51172-0.19531,0.70703,0l1.98633,1.98486C18.0548,12.32882,18.05529,12.64425,17.86095,12.84005z M7.99443,4.49654
	c0,0.27612,0.22388,0.5,0.5,0.5s0.5-0.22388,0.5-0.5V3.70705l1.14825,1.14081c0.09766,0.09717,0.2251,0.14551,0.35254,0.14551
	c0.12842,0,0.25684-0.04932,0.35449-0.14746c0.19482-0.19629,0.19385-0.5127-0.00195-0.70703l-2.0166-2.00342
	C8.63585,1.94063,8.32042,1.94161,8.12511,2.13643L6.14025,4.12276c-0.19531,0.19531-0.19531,0.51221,0,0.70703
	c0.19531,0.19531,0.51172,0.19531,0.70703,0l1.14716-1.14783V4.49654z M8.49443,6.9999c-0.27612,0-0.5,0.22382-0.5,0.5v1
	c0,0.27612,0.22388,0.5,0.5,0.5s0.5-0.22388,0.5-0.5v-1C8.99443,7.22371,8.77056,6.9999,8.49443,6.9999z M8.49443,12.99996
	c0.27612,0,0.5-0.22382,0.5-0.5v-1c0-0.27612-0.22388-0.5-0.5-0.5s-0.5,0.22388-0.5,0.5v1
	C7.99443,12.77614,8.21831,12.99996,8.49443,12.99996z"/>
</svg>
