<?xml version="1.0" encoding="utf-8"?>
<!-- Generator: Adobe Illustrator 22.0.1, SVG Export Plug-In . SVG Version: 6.00 Build 0)  -->
<svg version="1.1" id="Layer_1" xmlns="http://www.w3.org/2000/svg" xmlns:xlink="http://www.w3.org/1999/xlink" x="0px" y="0px"
	 viewBox="0 0 24 24" style="enable-background:new 0 0 24 24;" xml:space="preserve">
<style type="text/css">
	.st0{fill:#221A1C;}
	.st1{fill:#231F20;}
	.st2{fill:none;}
</style>
<path d="M8.38706,7.02706H4.86997c-0.46777,0-0.84863,0.38037-0.84863,0.84814v3.53662c0,0.24609,0.14697,0.46582,0.375,0.55957
	c0.0752,0.03076,0.15332,0.0459,0.23145,0.0459c0.15771,0,0.3125-0.06201,0.42871-0.1792l3.75781-3.79004
	c0.16992-0.17285,0.21973-0.4292,0.12598-0.65283S8.62925,7.02706,8.38706,7.02706z M5.02134,10.45333V8.02706H7.4271
	L5.02134,10.45333z M20.01939,8.24044c-0.26904-0.27686-0.7627-0.27783-1.03271,0c-0.82666,0.84961-1.97217,2.50244-1.97217,3.39453
	c0,1.32129,1.11621,2.396,2.48828,2.396s2.48828-1.07471,2.48828-2.396C21.99107,10.74044,20.84605,9.08858,20.01939,8.24044z
	 M19.50278,13.03097c-0.8208,0-1.48828-0.62646-1.48828-1.396c0-0.35205,0.65039-1.54639,1.48877-2.48242
	c0.8374,0.93457,1.48779,2.12939,1.48779,2.48242C20.99107,12.4045,20.32359,13.03097,19.50278,13.03097z M18.70591,5.14278
	c0.3623-0.34375,0.37695-0.91846,0.03271-1.28125l-1.51807-1.59668c-0.34326-0.3623-0.91748-0.37744-1.29102-0.02295
	l-2.75989,2.77539H3.60874c-0.88232,0-1.6001,0.71777-1.6001,1.6001v13.7998c0,0.88232,0.71777,1.6001,1.6001,1.6001h10.80029
	c0.88184,0,1.59961-0.71777,1.59961-1.6001V7.85512L18.70591,5.14278z M16.56187,3.02364l1.38867,1.46045l-0.99615,1.00189
	l-1.38855-1.46057L16.56187,3.02364z M14.86033,4.73495l1.38855,1.46063l-0.9248,0.93011l-0.25195-0.25195l-1.14307-1.20215
	L14.86033,4.73495z M14.40903,21.01729H3.60874c-0.33105,0-0.6001-0.26904-0.6001-0.6001V6.61739
	c0-0.33105,0.26904-0.6001,0.6001-0.6001h9.19287l1.54291,1.54291l0.66412,0.69873V20.4172
	C15.00864,20.74825,14.7396,21.01729,14.40903,21.01729z"/>
</svg>
