<?xml version="1.0" encoding="utf-8"?>
<!-- Generator: Adobe Illustrator 22.0.1, SVG Export Plug-In . SVG Version: 6.00 Build 0)  -->
<svg version="1.1" id="Layer_1" xmlns="http://www.w3.org/2000/svg" xmlns:xlink="http://www.w3.org/1999/xlink" x="0px" y="0px"
	 viewBox="0 0 24 24" style="enable-background:new 0 0 24 24;" xml:space="preserve">
<style type="text/css">
	.st0{fill:#221A1C;}
	.st1{fill:#231F20;}
</style>
<path class="st1" d="M20.12834,9.68661h-0.65192c-0.30988,0-0.58746-0.18823-0.70709-0.47949
	c-0.12646-0.30585-0.06689-0.63214,0.15442-0.85394l0.53632-0.55042c0.34674-0.34662,0.54272-0.81934,0.54272-1.32178
	c-0.00201-0.50861-0.1991-0.98126-0.55493-1.33502l-0.60742-0.60748c-0.35315-0.35516-0.8269-0.55188-1.33203-0.55188
	c-0.50372,0-0.97711,0.19598-1.33301,0.55188l-0.49634,0.5105c-0.13422,0.13434-0.3241,0.2135-0.52533,0.2135
	c-0.10632,0-0.21167-0.02185-0.31305-0.065c-0.33167-0.1391-0.52679-0.41058-0.52679-0.72833V3.87215
	c0-1.03882-0.84515-1.88391-1.88397-1.88391h-0.85889c-1.03931,0-1.88489,0.84509-1.88489,1.88391v0.51709
	c0,0.31866-0.18329,0.58942-0.47839,0.7066l-0.1167,0.04742C8.98844,5.1863,8.89115,5.20601,8.79197,5.20601
	c-0.20087,0-0.39172-0.08014-0.53748-0.22559l-0.43426-0.4444C7.46885,4.18252,6.98228,3.9833,6.47923,3.9833
	c-0.50342,0-0.99005,0.19958-1.33508,0.54767L4.5377,5.13735C4.18247,5.4905,3.98576,5.96432,3.98576,6.46938
	c0,0.50513,0.19672,0.97894,0.55396,1.33411l0.39655,0.40668C5.16673,8.44076,5.2302,8.76876,5.10667,9.05471L5.04325,9.20632
	c-0.11969,0.2959-0.39569,0.48029-0.70746,0.48029H3.87266c-1.03931,0-1.88489,0.84509-1.88489,1.88391v0.85986
	c0,1.03882,0.84558,1.88397,1.88489,1.88397h0.46411c0.3114,0,0.58734,0.18365,0.703,0.4679l0.06049,0.14478
	c0.13202,0.30414,0.07062,0.62573-0.15497,0.85168l-0.38525,0.3728c-0.36743,0.36725-0.56348,0.84033-0.56348,1.34338
	c0.00208,0.508,0.19916,0.98035,0.55493,1.33411l0.60748,0.60742c0.35559,0.35559,0.82867,0.55145,1.33203,0.55145
	s0.97638-0.19586,1.33197-0.55139l0.42273-0.4093c0.15588-0.1557,0.34607-0.23535,0.54688-0.23535
	c0.10034,0,0.19879,0.02002,0.29272,0.05951l0.05121,0.02155l0.00574,0.00171l0.00409,0.00226l0.0614,0.02441
	c0.2951,0.11719,0.47839,0.38794,0.47839,0.7066v0.51996c0,1.03882,0.84558,1.88391,1.88489,1.88391h0.85889
	c1.03882,0,1.88397-0.84509,1.88397-1.88391v-0.59796c0-0.30792,0.1842-0.5835,0.4693-0.70209
	c0.13617-0.05908,0.25824-0.08588,0.37762-0.08588c0.20087,0,0.38257,0.0755,0.52533,0.21826l0.47467,0.48767
	c0.36426,0.36432,0.83704,0.55969,1.3407,0.55969c0.50397,0,0.97729-0.19574,1.33276-0.55121l0.60797-0.60699
	c0.35706-0.35712,0.55341-0.83051,0.55341-1.33356s-0.19635-0.9765-0.55286-1.33301l-0.51196-0.5249
	c-0.22723-0.22736-0.29089-0.55621-0.1709-0.84674c0.12598-0.30737,0.39941-0.49677,0.71454-0.49677h0.65387
	c1.03876,0,1.88391-0.84515,1.88391-1.88397v-0.85986C22.01225,10.5317,21.16709,9.68661,20.12834,9.68661z M21.01225,12.43038
	c0,0.48724-0.39673,0.88397-0.88391,0.88397h-0.65387c-0.71735,0-1.35864,0.4314-1.63879,1.11505
	c-0.27448,0.66437-0.12616,1.4212,0.37933,1.92676l0.52069,0.53369c0.16754,0.16754,0.25995,0.39001,0.25995,0.62592
	s-0.09241,0.45831-0.25995,0.62585l-0.60858,0.6076c-0.17236,0.17236-0.39911,0.2583-0.62561,0.2583
	c-0.22656,0-0.45282-0.08594-0.62421-0.25732l-0.48407-0.49713c-0.33203-0.33203-0.77002-0.51117-1.23242-0.51117
	c-0.2511,0-0.50934,0.0528-0.76172,0.1626c-0.65961,0.27441-1.08521,0.91278-1.08521,1.62537v0.59796
	c0,0.48718-0.39673,0.88391-0.88397,0.88391h-0.85889c-0.48816,0-0.88489-0.39673-0.88489-0.88391v-0.51996
	c0-0.72601-0.43524-1.36829-1.10925-1.63599l-0.04413-0.02472l-0.05988-0.01764c-0.22028-0.09265-0.45135-0.1377-0.6803-0.1377
	c-0.45648,0-0.90466,0.17908-1.24261,0.51709l-0.43408,0.42041c-0.17236,0.17236-0.39862,0.25854-0.62488,0.25854
	c-0.22632,0-0.45258-0.08618-0.62494-0.25854l-0.6095-0.6095c-0.16754-0.16663-0.25903-0.38904-0.26001-0.62494
	c0-0.2359,0.09247-0.45831,0.25903-0.62494l0.39746-0.38477c0.51416-0.5152,0.65961-1.27679,0.36975-1.94409l-0.05682-0.1358
	c-0.26959-0.66248-0.90894-1.09094-1.62921-1.09094H3.87266c-0.48816,0-0.88489-0.39673-0.88489-0.88397v-0.85986
	c0-0.48718,0.39673-0.88391,0.88489-0.88391h0.46314c0.72217,0,1.36157-0.43042,1.63019-1.09485l0.05878-0.14056
	c0.28693-0.66437,0.14056-1.42609-0.37268-1.93927l-0.40729-0.4176C5.07725,6.92776,4.98576,6.70534,4.98576,6.46938
	c0-0.2359,0.09149-0.45831,0.25903-0.62488l0.6095-0.6095C6.02073,5.0671,6.24998,4.9833,6.47923,4.9833
	c0.22955,0,0.45917,0.08398,0.62585,0.25171l0.44299,0.45319c0.33862,0.33801,0.78723,0.51782,1.2439,0.51782
	c0.22754,0,0.45703-0.04462,0.67609-0.13654l0.10883-0.04425c0.67401-0.2677,1.10925-0.90997,1.10925-1.63599V3.87215
	c0-0.48724,0.39673-0.88391,0.88489-0.88391h0.85889c0.48724,0,0.88397,0.39667,0.88397,0.88391v0.59698
	c0,0.71259,0.4256,1.35095,1.13525,1.6485c0.22888,0.09741,0.4682,0.14484,0.70459,0.14484
	c0.45782,0,0.90454-0.17804,1.24237-0.51648l0.48639-0.50037c0.16663-0.16663,0.38904-0.25903,0.62494-0.25903h0.00098
	c0.2359,0,0.45831,0.09143,0.62488,0.25903l0.60956,0.6095c0.16754,0.16656,0.25903,0.38898,0.25995,0.62585
	c0,0.2359-0.09241,0.4574-0.25897,0.62396l-0.52783,0.54181c-0.50452,0.50549-0.65283,1.26044-0.37164,1.94025
	c0.27441,0.66821,0.91473,1.09961,1.63208,1.09961h0.65192c0.48718,0,0.88391,0.39673,0.88391,0.88391V12.43038z M11.99998,8.99129
	c-1.6568,0-3.0047,1.3479-3.0047,3.0047s1.3479,3.00476,3.0047,3.00476c1.65686,0,3.00476-1.34796,3.00476-3.00476
	S13.65684,8.99129,11.99998,8.99129z M11.99998,14.00075c-1.10718,0-2.0047-0.89752-2.0047-2.00476
	c0-1.10718,0.89752-2.0047,2.0047-2.0047s2.00476,0.89752,2.00476,2.0047C14.00474,13.10323,13.10716,14.00075,11.99998,14.00075z"
	/>
</svg>
