<?xml version="1.0" encoding="utf-8"?>
<!-- Generator: Adobe Illustrator 22.0.1, SVG Export Plug-In . SVG Version: 6.00 Build 0)  -->
<svg version="1.1" id="Layer_1" xmlns="http://www.w3.org/2000/svg" xmlns:xlink="http://www.w3.org/1999/xlink" x="0px" y="0px"
	 viewBox="0 0 24 24" style="enable-background:new 0 0 24 24;" xml:space="preserve">
<style type="text/css">
	.st0{fill:#221A1C;}
	.st1{fill:#231F20;}
</style>
<path d="M20.50531,7.99612h-3.94489c0.42859-0.26782,0.77576-0.58478,1.01715-0.96436
	c0.84033-1.32178,0.18164-2.76416,0.15283-2.82471c-0.01562-0.03418-0.03564-0.06592-0.05859-0.0957
	c-0.66895-0.85742-1.41211-1.22363-2.20752-1.08887c-1.58203,0.26697-2.82526,2.57953-3.47125,4.06604
	c-0.64502-1.48676-1.88678-3.79974-3.46674-4.06604C7.72552,2.88626,6.9892,3.25491,6.32171,4.11185
	c-0.02295,0.0293-0.04248,0.06152-0.05859,0.09521C6.2348,4.2681,5.5766,5.71194,6.41742,7.03421
	c0.24084,0.37854,0.58691,0.69464,1.01392,0.96191H3.48578c-0.27637,0-0.5,0.22363-0.5,0.5v4.00977c0,0.27637,0.22363,0.5,0.5,0.5
	h1.51416v7.47266c0,0.27637,0.22363,0.5,0.5,0.5h12.9873c0.27637,0,0.5-0.22363,0.5-0.5v-7.47266h1.51807
	c0.27637,0,0.5-0.22363,0.5-0.5V8.49612C21.00531,8.21976,20.78168,7.99612,20.50531,7.99612z M7.26654,6.50491
	C6.78265,5.75394,7.07171,4.8804,7.15082,4.67532c0.61816-0.7666,1.0625-0.69287,1.20898-0.66699
	c1.07324,0.18066,2.24805,2.2876,2.90771,3.93262C9.19232,7.85013,7.81586,7.35843,7.26654,6.50491z M11.49994,19.97855h-5.5
	v-6.97266h5.5V19.97855z M11.49994,12.00589h-6H3.98578V8.99612h7.51416V12.00589z M15.6308,4.00833
	c0.03418-0.00586,0.08496-0.01416,0.1499-0.01416c0.21436,0,0.58643,0.09277,1.0625,0.68115
	c0.08057,0.20898,0.36719,1.07861-0.11475,1.82764c-0.5498,0.85498-1.92969,1.34717-4.01025,1.43799
	C13.37836,6.29642,14.5556,4.18948,15.6308,4.00833z M17.98724,19.97855h-5.4873v-6.97266h5.4873V19.97855z M20.00531,12.00589
	h-1.51807h-5.9873V8.99612h7.50537V12.00589z"/>
</svg>
