<?xml version="1.0" encoding="utf-8"?>
<!-- Generator: Adobe Illustrator 22.0.1, SVG Export Plug-In . SVG Version: 6.00 Build 0)  -->
<svg version="1.1" id="Layer_1" xmlns="http://www.w3.org/2000/svg" xmlns:xlink="http://www.w3.org/1999/xlink" x="0px" y="0px"
	 viewBox="0 0 24 24" style="enable-background:new 0 0 24 24;" xml:space="preserve">
<style type="text/css">
	.st0{fill:#221A1C;}
	.st1{fill:#231F20;}
</style>
<path d="M19.89805,14.1379c-0.37891,3.15039-3.34961,7.85254-8.51172,7.85254c-5.08496,0-7.40039-3.93652-7.40039-7.59424V7.48849
	c0-0.27637,0.22363-0.5,0.5-0.5s0.5,0.22363,0.5,0.5v6.90771c0,3.28223,1.97949,6.59424,6.40039,6.59424
	c4.7207,0,7.22949-4.55859,7.52344-6.99902c0.16602-0.95312,0.09863-1.85498-0.06641-1.98926
	c-0.00098,0.00146-0.01367,0.00195-0.04004,0.00781c-1.44336,1.70996-3.94238,4.37109-5.16211,3.92871
	c-0.2959-0.10791-0.64941-0.40479-0.64941-1.20898V3.4963c0-0.27637,0.22363-0.5,0.5-0.5s0.5,0.22363,0.5,0.5v11.2334
	c0,0.23584,0.04297,0.30664,0.04395,0.30713c0.00195,0,0.00391,0,0.00586,0c0.44531,0,2.37891-1.73828,4.08692-3.77734
	c0.05176-0.06201,0.11816-0.11035,0.19336-0.1416c0.59082-0.2417,0.9707-0.03809,1.14746,0.10449
	C20.23692,11.84054,19.9918,13.61056,19.89805,14.1379z M7.49571,12.99044c0.27637,0,0.5-0.22363,0.5-0.5V3.4963
	c0-0.27637-0.22363-0.5-0.5-0.5s-0.5,0.22363-0.5,0.5v8.99414C6.99571,12.76681,7.21934,12.99044,7.49571,12.99044z
	 M10.4918,12.99044c0.27637,0,0.5-0.22363,0.5-0.5V2.48653c0-0.27637-0.22363-0.5-0.5-0.5s-0.5,0.22363-0.5,0.5v10.00391
	C9.9918,12.76681,10.21543,12.99044,10.4918,12.99044z"/>
</svg>
