<?xml version="1.0" encoding="utf-8"?>
<!-- Generator: Adobe Illustrator 22.0.1, SVG Export Plug-In . SVG Version: 6.00 Build 0)  -->
<svg version="1.1" id="Layer_1" xmlns="http://www.w3.org/2000/svg" xmlns:xlink="http://www.w3.org/1999/xlink" x="0px" y="0px"
	 viewBox="0 0 24 24" style="enable-background:new 0 0 24 24;" xml:space="preserve">
<style type="text/css">
	.st0{fill:#221A1C;}
	.st1{fill:#231F20;}
</style>
<path d="M20.49766,2.99417H10.1168c-0.06543,0-0.13086,0.01318-0.19238,0.03857L6.28574,4.54642
	C6.09922,4.62405,5.97715,4.80765,5.97813,5.01028s0.12402,0.38477,0.3125,0.46094L9.9293,6.94388
	c0.05957,0.02441,0.12305,0.03662,0.1875,0.03662h10.38086c0.27637,0,0.5-0.22363,0.5-0.5V3.49417
	C20.99766,3.2178,20.77403,2.99417,20.49766,2.99417z M19.99766,5.9805h-9.7832l-2.41895-0.979l2.4209-1.00732h9.78125V5.9805z
	 M20.49766,9.9971H10.1168c-0.06641,0-0.13281,0.01318-0.19434,0.03906l-3.63867,1.5332
	c-0.18652,0.07861-0.30664,0.26221-0.30566,0.46436c0.00098,0.20264,0.125,0.38428,0.3125,0.45996l3.63867,1.47266
	c0.05957,0.02441,0.12305,0.03662,0.1875,0.03662h10.38086c0.27637,0,0.5-0.22363,0.5-0.5V10.4971
	C20.99766,10.22073,20.77403,9.9971,20.49766,9.9971z M19.99766,13.00296h-9.7832L7.7877,12.02103l2.42969-1.02393h9.78027V13.00296
	z M20.49766,16.99905H10.1168c-0.06641,0-0.13086,0.01318-0.19238,0.03857l-3.63867,1.51514
	c-0.1875,0.07764-0.30859,0.26123-0.30762,0.46387s0.12402,0.38477,0.3125,0.46094l3.63867,1.47266
	c0.05957,0.02441,0.12305,0.03662,0.1875,0.03662h10.38086c0.27637,0,0.5-0.22363,0.5-0.5v-2.98779
	C20.99766,17.22269,20.77403,16.99905,20.49766,16.99905z M19.99766,19.98685h-9.7832l-2.41992-0.979l2.42188-1.00879h9.78125
	V19.98685z M4.00352,3.49026v16.99658c0,0.27637-0.22363,0.5-0.5,0.5s-0.5-0.22363-0.5-0.5V3.49026c0-0.27637,0.22363-0.5,0.5-0.5
	S4.00352,3.2139,4.00352,3.49026z"/>
</svg>
