<?xml version="1.0" encoding="utf-8"?>
<!-- Generator: Adobe Illustrator 22.0.1, SVG Export Plug-In . SVG Version: 6.00 Build 0)  -->
<svg version="1.1" id="Layer_1" xmlns="http://www.w3.org/2000/svg" xmlns:xlink="http://www.w3.org/1999/xlink" x="0px" y="0px"
	 viewBox="0 0 24 24" style="enable-background:new 0 0 24 24;" xml:space="preserve">
<style type="text/css">
	.st0{fill:#221A1C;}
	.st1{fill:#231F20;}
</style>
<path d="M20.83067,9.46163l-8.50391-7.34375c-0.1875-0.16211-0.46582-0.16211-0.65332,0L3.16172,9.45919
	C3.05137,9.55392,2.98789,9.6921,2.98789,9.83761v11.65967c0,0.27588,0.22363,0.5,0.5,0.5l6.00977,0.00195
	c0.13281,0,0.25977-0.05273,0.35352-0.14648s0.14648-0.2207,0.14648-0.35352v-8.50879h3.99023v8.49414
	c0,0.27637,0.22363,0.5,0.5,0.5h6.01563c0.27637,0,0.5-0.22363,0.5-0.5V9.84005C21.00352,9.69454,20.94004,9.55684,20.83067,9.46163
	z M20.00352,20.98458h-5.01563v-8.49414c0-0.27637-0.22363-0.5-0.5-0.5H9.49766c-0.27637,0-0.5,0.22363-0.5,0.5v8.50879
	l-5.00977-0.00195V10.06661l8.01172-6.90967l8.00391,6.91211V20.98458z"/>
</svg>
