<?xml version="1.0" encoding="utf-8"?>
<!-- Generator: Adobe Illustrator 22.0.1, SVG Export Plug-In . SVG Version: 6.00 Build 0)  -->
<svg version="1.1" id="Layer_1" xmlns="http://www.w3.org/2000/svg" xmlns:xlink="http://www.w3.org/1999/xlink" x="0px" y="0px"
	 viewBox="0 0 24 24" style="enable-background:new 0 0 24 24;" xml:space="preserve">
<style type="text/css">
	.st0{fill:#221A1C;}
	.st1{fill:#231F20;}
	.st2{fill:none;}
</style>
<g>
	<path d="M20.49741,2.9963h-17c-0.27637,0-0.5,0.22363-0.5,0.5v17c0,0.27637,0.22363,0.5,0.5,0.5h17c0.27637,0,0.5-0.22363,0.5-0.5
		v-17C20.99741,3.21993,20.77378,2.9963,20.49741,2.9963z M19.99741,3.9963v10.07422l-3.10938-3.88672
		c-0.09375-0.11719-0.23535-0.18604-0.38574-0.1875c-0.125-0.0127-0.29199,0.06445-0.38867,0.17969l-4.64941,5.57959
		l-2.61328-2.61279c-0.19531-0.19531-0.51172-0.19531-0.70703,0l-4.14648,4.14648V3.9963H19.99741z M3.99741,19.9963v-1.29297
		l4.5-4.5l2.64648,2.64648c0.09961,0.1001,0.24121,0.16162,0.37598,0.146c0.14062-0.00635,0.27148-0.07129,0.36133-0.1792
		l4.6084-5.52979l3.50781,4.38525v4.32422H3.99741z"/>
	<path d="M8.49741,10.9963c1.37891,0,2.5-1.12158,2.5-2.5s-1.12109-2.5-2.5-2.5s-2.5,1.12158-2.5,2.5
		S7.11851,10.9963,8.49741,10.9963z M8.49741,6.9963c0.82715,0,1.5,0.67285,1.5,1.5s-0.67285,1.5-1.5,1.5s-1.5-0.67285-1.5-1.5
		S7.67027,6.9963,8.49741,6.9963z"/>
</g>
</svg>
