<?xml version="1.0" encoding="utf-8"?>
<!-- Generator: Adobe Illustrator 22.0.1, SVG Export Plug-In . SVG Version: 6.00 Build 0)  -->
<svg version="1.1" id="Layer_1" xmlns="http://www.w3.org/2000/svg" xmlns:xlink="http://www.w3.org/1999/xlink" x="0px" y="0px"
	 viewBox="0 0 24 24" style="enable-background:new 0 0 24 24;" xml:space="preserve">
<style type="text/css">
	.st0{fill:#221A1C;}
	.st1{fill:#231F20;}
</style>
<path class="st0" d="M10.80513,14.86282l-3.44189,2.81201c-0.09277,0.07568-0.20508,0.11279-0.31592,0.11279
	c-0.14502,0-0.28906-0.0625-0.3877-0.18359c-0.1748-0.21387-0.14307-0.52881,0.0708-0.70361l2.33118-1.9043H2.48188
	c-0.27637,0-0.5-0.22363-0.5-0.5s0.22363-0.5,0.5-0.5h6.56787L6.51069,12.0347c-0.21875-0.16846-0.25879-0.48242-0.08984-0.70117
	c0.16748-0.21826,0.48193-0.26025,0.70117-0.08984l3.67236,2.83643c0.12061,0.09277,0.19238,0.23633,0.19434,0.38867
	S10.92329,14.76614,10.80513,14.86282z M22.00825,3.00882v17.98242H8.99067v-2.49512c0-0.27637,0.22363-0.5,0.5-0.5
	s0.5,0.22363,0.5,0.5v1.49512h11.01758V4.00882h-5.99609v4.97461H9.99067v1.51074c0,0.27637-0.22363,0.5-0.5,0.5
	s-0.5-0.22363-0.5-0.5v-2.5249l5.04541-4.96045H22.00825z M14.01216,7.98343V4.4346l-3.60974,3.54883H14.01216z"/>
</svg>
