<?xml version="1.0" encoding="utf-8"?>
<!-- Generator: Adobe Illustrator 22.0.1, SVG Export Plug-In . SVG Version: 6.00 Build 0)  -->
<svg version="1.1" id="Layer_1" xmlns="http://www.w3.org/2000/svg" xmlns:xlink="http://www.w3.org/1999/xlink" x="0px" y="0px"
	 viewBox="0 0 24 24" style="enable-background:new 0 0 24 24;" xml:space="preserve">
<style type="text/css">
	.st0{fill:#221A1C;}
	.st1{fill:#231F20;}
	.st2{fill:none;}
</style>
<g>
	<path d="M11.99683,1.98891c-5.52311,0-10.00052,4.47882-10.00052,10.00372c0,5.52484,4.47741,10.00366,10.00052,10.00366
		c5.52317,0,10.00058-4.47882,10.00058-10.00366C21.99741,6.46773,17.52,1.98891,11.99683,1.98891z M11.99683,19.9963
		c-4.41182,0-8.00115-3.59045-8.00115-8.00366c0-4.41327,3.58933-8.00372,8.00115-8.00372
		c4.41188,0,8.00121,3.59045,8.00121,8.00372C19.99804,16.40584,16.40872,19.9963,11.99683,19.9963z"/>
	<rect x="11.00276" y="10.98891" width="1.99937" height="6"/>
	<circle cx="12.00306" cy="7.98891" r="0.99954"/>
</g>
</svg>
