<?xml version="1.0" encoding="utf-8"?>
<!-- Generator: Adobe Illustrator 22.0.1, SVG Export Plug-In . SVG Version: 6.00 Build 0)  -->
<svg version="1.1" id="Layer_1" xmlns="http://www.w3.org/2000/svg" xmlns:xlink="http://www.w3.org/1999/xlink" x="0px" y="0px"
	 viewBox="0 0 24 24" style="enable-background:new 0 0 24 24;" xml:space="preserve">
<style type="text/css">
	.st0{fill:#221A1C;}
	.st1{fill:#231F20;}
</style>
<path d="M21.21772,8.95821l0.76367-0.64551l-2.2514-2.66553l2.23676-1.89062l-0.64551-0.76367L8.46754,13.85732
	c-1.56946-1.23987-3.85089-1.1535-5.29913,0.29474c-1.56055,1.56055-1.56055,4.09961,0,5.66016
	c0.78027,0.78027,1.80518,1.17041,2.83008,1.17041s2.0498-0.39014,2.83008-1.17041c1.42999-1.42999,1.53339-3.67297,0.34265-5.24042
	l6.95251-5.87653l1.09692,1.29858l0.76367-0.64551L16.8874,8.04983l2.07886-1.7572L21.21772,8.95821z M8.12153,19.10518
	c-1.1709,1.1709-3.07519,1.1709-4.24609,0c-1.17041-1.1709-1.17041-3.0752,0-4.24609c0.58545-0.58545,1.354-0.87793,2.12305-0.87793
	s1.5376,0.29248,2.12305,0.87793C9.29194,16.02999,9.29194,17.93429,8.12153,19.10518z"/>
</svg>
