<?xml version="1.0" encoding="utf-8"?>
<!-- Generator: Adobe Illustrator 22.0.1, SVG Export Plug-In . SVG Version: 6.00 Build 0)  -->
<svg version="1.1" id="Layer_1" xmlns="http://www.w3.org/2000/svg" xmlns:xlink="http://www.w3.org/1999/xlink" x="0px" y="0px"
	 viewBox="0 0 24 24" style="enable-background:new 0 0 24 24;" xml:space="preserve">
<style type="text/css">
	.st0{fill:#221A1C;}
	.st1{fill:#231F20;}
</style>
<path d="M20.49787,2.97483H10.11701c-0.06641,0-0.13281,0.01318-0.19434,0.03906L6.284,4.54709
	C6.09748,4.62571,5.97736,4.8093,5.97833,5.01145c0.00098,0.20264,0.125,0.38428,0.3125,0.45996l3.63867,1.47266
	c0.05957,0.02441,0.12305,0.03662,0.1875,0.03662h10.38086c0.27637,0,0.5-0.22363,0.5-0.5V3.47483
	C20.99787,3.19846,20.77423,2.97483,20.49787,2.97483z M19.99787,5.98069h-9.7832L7.7879,4.99875l2.42969-1.02393h9.78027V5.98069z
	 M20.49787,9.99729H10.11701c-0.06641,0-0.13281,0.01318-0.19434,0.03906L6.284,11.56956
	c-0.18652,0.07861-0.30664,0.26221-0.30566,0.46436c0.00098,0.20264,0.125,0.38428,0.3125,0.45996l3.63867,1.47266
	c0.05957,0.02441,0.12305,0.03662,0.1875,0.03662h10.38086c0.27637,0,0.5-0.22363,0.5-0.5v-3.00586
	C20.99787,10.22092,20.77423,9.99729,20.49787,9.99729z M19.99787,13.00315h-9.7832L7.7879,12.02122l2.42969-1.02393h9.78027
	V13.00315z M20.49787,16.98069H10.11701c-0.06641,0-0.13281,0.01318-0.19434,0.03906L6.284,18.55344
	c-0.18652,0.07861-0.30664,0.26221-0.30566,0.46436c0.00195,0.20264,0.125,0.38428,0.3125,0.45996l3.63867,1.47217
	c0.05957,0.02441,0.12305,0.03662,0.1875,0.03662h10.38086c0.27637,0,0.5-0.22363,0.5-0.5v-3.00586
	C20.99787,17.20432,20.77423,16.98069,20.49787,16.98069z M19.99787,19.98655h-9.7832L7.7879,19.0051l2.42969-1.02441h9.78027
	V19.98655z M4.00373,19.48655v1c0,0.27637-0.22363,0.5-0.5,0.5s-0.5-0.22363-0.5-0.5v-1c0-0.27637,0.22363-0.5,0.5-0.5
	S4.00373,19.21018,4.00373,19.48655z M4.00373,13.48655v1c0,0.27637-0.22363,0.5-0.5,0.5s-0.5-0.22363-0.5-0.5v-1
	c0-0.27637,0.22363-0.5,0.5-0.5S4.00373,13.21018,4.00373,13.48655z M4.00373,16.48655v1c0,0.27637-0.22363,0.5-0.5,0.5
	s-0.5-0.22363-0.5-0.5v-1c0-0.27637,0.22363-0.5,0.5-0.5S4.00373,16.21018,4.00373,16.48655z M4.00373,7.48655v1
	c0,0.27637-0.22363,0.5-0.5,0.5s-0.5-0.22363-0.5-0.5v-1c0-0.27637,0.22363-0.5,0.5-0.5S4.00373,7.21018,4.00373,7.48655z
	 M4.00373,10.48655v1c0,0.27637-0.22363,0.5-0.5,0.5s-0.5-0.22363-0.5-0.5v-1c0-0.27637,0.22363-0.5,0.5-0.5
	S4.00373,10.21018,4.00373,10.48655z M5.00348,4.50022c0,0.82843-0.67151,1.5-1.5,1.5c-0.82837,0-1.5-0.67157-1.5-1.5
	s0.67163-1.5,1.5-1.5C4.33197,3.00022,5.00348,3.67179,5.00348,4.50022z"/>
</svg>
