<?xml version="1.0" encoding="utf-8"?>
<!-- Generator: Adobe Illustrator 22.0.1, SVG Export Plug-In . SVG Version: 6.00 Build 0)  -->
<svg version="1.1" id="Layer_1" xmlns="http://www.w3.org/2000/svg" xmlns:xlink="http://www.w3.org/1999/xlink" x="0px" y="0px"
	 viewBox="0 0 24 24" style="enable-background:new 0 0 24 24;" xml:space="preserve">
<style type="text/css">
	.st0{fill:#221A1C;}
	.st1{fill:#231F20;}
</style>
<path d="M20.4752,7.00589h-3.49316V3.48733c0-0.27637-0.22363-0.5-0.5-0.5H3.51524c-0.27637,0-0.5,0.22363-0.5,0.5v4.01855
	c0,0.27637,0.22363,0.5,0.5,0.5H6.9918v3.97266H3.50742c-0.27637,0-0.5,0.22363-0.5,0.5v4.04102v3.97461
	c0,0.27637,0.22363,0.5,0.5,0.5h12.9668c0.27637,0,0.5-0.22363,0.5-0.5v-3.97461v-3.54102h3.50098c0.27637,0,0.5-0.22363,0.5-0.5
	V7.50589C20.9752,7.22952,20.75157,7.00589,20.4752,7.00589z M4.01524,3.98733h11.9668v3.01855H7.4918H4.01524V3.98733z
	 M15.97422,19.99417H4.00742v-2.97461h11.9668V19.99417z M15.97422,16.01956H4.00742v-3.04102H7.4918h8.48242V16.01956z
	 M19.9752,11.97855h-3.50098H7.9918V8.00589h8.49024h3.49316V11.97855z"/>
</svg>
