<?xml version="1.0" encoding="utf-8"?>
<!-- Generator: Adobe Illustrator 22.0.1, SVG Export Plug-In . SVG Version: 6.00 Build 0)  -->
<svg version="1.1" id="Layer_1" xmlns="http://www.w3.org/2000/svg" xmlns:xlink="http://www.w3.org/1999/xlink" x="0px" y="0px"
	 viewBox="0 0 24 24" style="enable-background:new 0 0 24 24;" xml:space="preserve">
<style type="text/css">
	.st0{fill:#221A1C;}
	.st1{fill:#231F20;}
</style>
<path d="M20.67372,15.23015l-5.60259-8.33479V3.13676h0.68347c0.31725,0,0.57264-0.25539,0.57264-0.5718
	c0-0.31646-0.25539-0.57102-0.57264-0.57102H8.25906c-0.31642,0-0.5718,0.25455-0.5718,0.57102
	c0,0.31642,0.25539,0.5718,0.5718,0.5718h0.68185v3.75861L3.3568,15.20045c-0.05382,0.0747-1.33958,1.8006-0.87297,3.5265
	C2.74882,19.70678,3.49734,20.4601,4.67795,20.95c0.08431,0.04176,2.13868,1.03846,7.32927,1.03846s7.24334-0.9967,7.29398-1.0216
	c1.21189-0.50675,1.9628-1.26007,2.22785-2.23991C21.99404,17.00105,20.70745,15.27515,20.67372,15.23015z M20.42314,18.43303
	c-0.16867,0.61999-0.69469,1.11473-1.5958,1.4938c-0.01765,0.00804-1.9508,0.91714-6.82012,0.91714
	c-4.87094,0-6.80164-0.9091-6.85462-0.93322c-0.86817-0.36298-1.39586-0.86013-1.5637-1.47772
	c-0.32367-1.18464,0.67141-2.52824,0.69955-2.56838l5.69651-8.47616C10.05,7.29452,10.08294,7.1829,10.08294,7.07124V3.13676
	h3.84615v3.93448c0,0.11166,0.03372,0.22328,0.09637,0.31725l5.71582,8.50185C19.75252,15.9048,20.74759,17.25163,20.42314,18.43303
	z M9.00743,12.17315c0-0.84489,1.35566-1.55566,2.95867-1.55566c1.60306,0,2.95632,0.71077,2.95632,1.55566
	c0,0.83846-1.35326,1.55242-2.95632,1.55242C10.36309,13.72557,9.00743,13.01162,9.00743,12.17315z M18.24323,16.18131
	c0.18392,0.25058,0.67303,1.10831,0.50195,1.73472c-0.10279,0.36141-0.45053,0.66901-1.03684,0.91395
	c-0.02328,0.01127-0.03372,0.01368-0.05299,0.0249c-0.01686,0.00966-1.63438,0.7445-5.6893,0.7445
	c-4.05335,0-5.67489-0.73724-5.67489-0.73724c-0.02245-0.00966-0.04333-0.02088-0.06583-0.03216
	c-0.58631-0.24495-0.93484-0.55254-1.03606-0.91395c-0.17588-0.62641,0.31725-1.48414,0.49715-1.72992
	c0.01127-0.01765,0.0225-0.03211,0.03534-0.04735l2.20216-3.28077c0.257,1.23841,1.93795,2.16682,4.04213,2.16682
	c0.43288,0,0.84489-0.04338,1.23115-0.11647c-0.01926,0.08514-0.05137,0.16544-0.05137,0.25539
	c0,0.66499,0.53568,1.20228,1.20307,1.20228c0.66018,0,1.20066-0.53729,1.20066-1.20228c0-0.40798-0.22088-0.75249-0.53166-0.97018
	c0.52602-0.3622,0.88341-0.81998,0.99023-1.33556l2.20457,3.28077C18.21911,16.15317,18.23441,16.16685,18.24323,16.18131z"/>
</svg>
