<?xml version="1.0" encoding="utf-8"?>
<!-- Generator: Adobe Illustrator 22.0.1, SVG Export Plug-In . SVG Version: 6.00 Build 0)  -->
<svg version="1.1" id="Layer_1" xmlns="http://www.w3.org/2000/svg" xmlns:xlink="http://www.w3.org/1999/xlink" x="0px" y="0px"
	 viewBox="0 0 24 24" style="enable-background:new 0 0 24 24;" xml:space="preserve">
<style type="text/css">
	.st0{fill:#221A1C;}
	.st1{fill:#231F20;}
	.st2{fill:none;}
</style>
<path d="M21.50571,21.9963h-12c-0.27637,0-0.5-0.22363-0.5-0.5v-12c0-0.27637,0.22363-0.5,0.5-0.5h12c0.27637,0,0.5,0.22363,0.5,0.5
	v12C22.00571,21.77267,21.78208,21.9963,21.50571,21.9963z M10.00571,20.9963h11v-11h-11V20.9963z M20.74595,4.00753
	l-1.89502-1.86719c-0.19775-0.19482-0.51416-0.19189-0.70703,0.00488C17.95005,2.342,17.952,2.65841,18.14878,2.85225
	l1.16351,1.14648h-8.60095l1.15814-1.16113c0.19482-0.19531,0.19482-0.51221-0.00098-0.70703
	c-0.19482-0.19434-0.51123-0.19434-0.70703,0.00098L9.19712,4.10128C9.07114,4.22823,9.00083,4.40352,9.00474,4.58224
	s0.08203,0.35059,0.21289,0.47119l1.9585,1.81006c0.09619,0.08887,0.21777,0.13281,0.33936,0.13281
	c0.13428,0,0.26855-0.0542,0.36719-0.16064c0.1875-0.20264,0.1748-0.51904-0.02783-0.70654L10.6265,4.99386h8.67316
	l-1.14795,1.11426c-0.19824,0.19238-0.20312,0.50928-0.01074,0.70703C18.23911,6.91622,18.36948,6.967,18.49986,6.967
	c0.12549,0,0.25098-0.04688,0.34814-0.14111l1.89355-1.83838c0.13379-0.12939,0.20752-0.30273,0.2085-0.48877
	C20.95103,4.31563,20.87681,4.13643,20.74595,4.00753z M4.99007,20.76076l1.86719-1.89502
	c0.19482-0.19775,0.19189-0.51416-0.00488-0.70703c-0.19678-0.19385-0.51318-0.19189-0.70703,0.00488L4.99886,19.3271v-8.60095
	l1.16113,1.15814c0.19531,0.19482,0.51221,0.19482,0.70703-0.00098c0.19434-0.19482,0.19434-0.51123-0.00098-0.70703
	L4.89632,9.21193C4.76937,9.08595,4.59407,9.01564,4.41536,9.01955S4.06478,9.10158,3.94417,9.23244l-1.81006,1.9585
	c-0.08887,0.09619-0.13281,0.21777-0.13281,0.33936c0,0.13428,0.0542,0.26855,0.16064,0.36719
	c0.20264,0.1875,0.51904,0.1748,0.70654-0.02783l1.13525-1.22833v8.67316l-1.11426-1.14795
	c-0.19238-0.19824-0.50928-0.20312-0.70703-0.01074c-0.10107,0.09814-0.15186,0.22852-0.15186,0.35889
	c0,0.12549,0.04688,0.25098,0.14111,0.34814l1.83838,1.89355c0.12939,0.13379,0.30273,0.20752,0.48877,0.2085
	C4.68196,20.96584,4.86116,20.89162,4.99007,20.76076z"/>
</svg>
