<?xml version="1.0" encoding="utf-8"?>
<!-- Generator: Adobe Illustrator 22.0.1, SVG Export Plug-In . SVG Version: 6.00 Build 0)  -->
<svg version="1.1" id="Layer_1" xmlns="http://www.w3.org/2000/svg" xmlns:xlink="http://www.w3.org/1999/xlink" x="0px" y="0px"
	 viewBox="0 0 24 24" style="enable-background:new 0 0 24 24;" xml:space="preserve">
<style type="text/css">
	.st0{fill:#221A1C;}
	.st1{fill:#231F20;}
</style>
<path d="M11.99995,2.0002c-5.51416,0-10,4.48584-10,10s4.48584,10,10,10s10-4.48584,10-10S17.51411,2.0002,11.99995,2.0002z
	 M11.99995,21.0002c-4.9624,0-9-4.0376-9-9s4.0376-9,9-9s9,4.0376,9,9S16.96235,21.0002,11.99995,21.0002z M14.38227,12.90304
	c0.15039,0.2915,0.22705,0.63379,0.22705,1.01709c0,0.61475-0.19141,1.12256-0.56787,1.50928
	c-0.33154,0.33984-0.9043,0.57764-1.58154,0.6582v1.91699H11.477v-1.91748c-0.63086-0.07812-1.13574-0.32129-1.50244-0.72314
	c-0.39258-0.42041-0.58398-0.98096-0.58398-1.71338v-0.1001h1.17139v0.1001c0,0.46191,0.12012,0.81592,0.35742,1.05322
	c0.23535,0.24365,0.57764,0.3667,1.01758,0.3667c0.47705,0,0.91016-0.11816,1.13086-0.30859
	c0.24707-0.20557,0.36133-0.46973,0.36133-0.83252c0-0.29932-0.09912-0.54346-0.30371-0.74756
	c-0.23926-0.22119-0.81104-0.43115-1.2207-0.56982c-0.93359-0.28906-1.53906-0.59229-1.84863-0.92627
	c-0.35791-0.37646-0.53955-0.86865-0.53955-1.46191c0-0.59766,0.17822-1.09863,0.5293-1.48828
	c0.29932-0.33105,0.86377-0.58154,1.52148-0.67676V5.99532h0.9917v2.07373c0.56982,0.09668,1.02539,0.35254,1.354,0.76123
	c0.34277,0.43799,0.5166,1.03076,0.5166,1.76221v0.1001h-1.17139v-0.1001c0-0.47168-0.11035-0.84717-0.32861-1.11523
	c-0.22217-0.27148-0.50879-0.40381-0.87549-0.40381c-0.45215,0-0.87988,0.11865-1.06396,0.2959
	c-0.19385,0.19434-0.29297,0.47607-0.29297,0.83643c0,0.32764,0.104,0.5835,0.31836,0.78076
	c0.21045,0.20215,0.77734,0.39404,1.27734,0.56348c0.50928,0.16113,1.0752,0.35791,1.39355,0.58936
	C13.99848,12.3503,14.22651,12.60079,14.38227,12.90304z"/>
</svg>
