<?xml version="1.0" encoding="utf-8"?>
<!-- Generator: Adobe Illustrator 22.0.1, SVG Export Plug-In . SVG Version: 6.00 Build 0)  -->
<svg version="1.1" id="Layer_1" xmlns="http://www.w3.org/2000/svg" xmlns:xlink="http://www.w3.org/1999/xlink" x="0px" y="0px"
	 viewBox="0 0 24 24" style="enable-background:new 0 0 24 24;" xml:space="preserve">
<style type="text/css">
	.st0{fill:#221A1C;}
	.st1{fill:#231F20;}
</style>
<path d="M6.87218,11.1462c0.1958,0.19434,0.19678,0.51123,0.00195,0.70703c-0.09766,0.09814-0.22607,0.14746-0.35449,0.14746
	c-0.12744,0-0.25488-0.04834-0.35254-0.14551L5.00988,10.7051v10.77948c0,0.27637-0.22363,0.5-0.5,0.5s-0.5-0.22363-0.5-0.5
	v-10.7868l-1.13818,1.13885c-0.19531,0.19531-0.51172,0.19531-0.70703,0c-0.19531-0.19482-0.19531-0.51172,0-0.70703
	l1.98486-1.98633c0.19482-0.19482,0.51025-0.1958,0.70605-0.00098L6.87218,11.1462z M20.88048,15.15548l-2.0166-2.00391
	c-0.1958-0.19482-0.51123-0.19385-0.70605,0.00098l-1.98486,1.98633c-0.19531,0.19531-0.19531,0.51221,0,0.70703
	c0.19531,0.19531,0.51172,0.19531,0.70703,0l1.13818-1.13885v6.7951c0,0.27637,0.22363,0.5,0.5,0.5s0.5-0.22363,0.5-0.5v-6.78778
	l1.15723,1.15009c0.09766,0.09717,0.2251,0.14551,0.35254,0.14551c0.12842,0,0.25684-0.04932,0.35449-0.14746
	C21.07726,15.66671,21.07628,15.34981,20.88048,15.15548z M11.85704,17.15352c-0.1958-0.19482-0.51123-0.19385-0.70605,0.00098
	l-1.98486,1.98633c-0.19531,0.19531-0.19531,0.51221,0,0.70703c0.19531,0.19531,0.51172,0.19531,0.70703,0l1.13818-1.13885v2.79315
	c0,0.27637,0.22363,0.5,0.5,0.5s0.5-0.22363,0.5-0.5v-2.78583l1.15723,1.15009c0.09766,0.09717,0.2251,0.14551,0.35254,0.14551
	c0.12842,0,0.25684-0.04932,0.35449-0.14746c0.19482-0.1958,0.19385-0.5127-0.00195-0.70703L11.85704,17.15352z M1.99767,4.50265
	c0-1.37842,1.12158-2.5,2.5-2.5s2.5,1.12158,2.5,2.5s-1.12158,2.5-2.5,2.5S1.99767,5.88106,1.99767,4.50265z M2.99767,4.50265
	c0,0.82715,0.67285,1.5,1.5,1.5s1.5-0.67285,1.5-1.5s-0.67285-1.5-1.5-1.5S2.99767,3.6755,2.99767,4.50265z M9.02062,4.50265
	c0-1.37842,1.12158-2.5,2.5-2.5s2.5,1.12158,2.5,2.5s-1.12158,2.5-2.5,2.5S9.02062,5.88106,9.02062,4.50265z M10.02062,4.50265
	c0,0.82715,0.67285,1.5,1.5,1.5s1.5-0.67285,1.5-1.5s-0.67285-1.5-1.5-1.5S10.02062,3.6755,10.02062,4.50265z M16.02745,4.50265
	c0-1.37842,1.12158-2.5,2.5-2.5s2.5,1.12158,2.5,2.5s-1.12158,2.5-2.5,2.5S16.02745,5.88106,16.02745,4.50265z M17.02745,4.50265
	c0,0.82715,0.67285,1.5,1.5,1.5s1.5-0.67285,1.5-1.5s-0.67285-1.5-1.5-1.5S17.02745,3.6755,17.02745,4.50265z M11.51647,10.99978
	c0.27612,0,0.5-0.22382,0.5-0.5v-1c0-0.27612-0.22388-0.5-0.5-0.5c-0.27618,0-0.5,0.22388-0.5,0.5v1
	C11.01647,10.77596,11.24028,10.99978,11.51647,10.99978z M18.01555,9.49654v1c0,0.27612,0.22388,0.5,0.5,0.5
	c0.27618,0,0.5-0.22388,0.5-0.5v-1c0-0.27618-0.22382-0.5-0.5-0.5C18.23943,8.99654,18.01555,9.22036,18.01555,9.49654z
	 M11.53606,15.02492c0.27612,0,0.5-0.22388,0.5-0.5v-1c0-0.27618-0.22388-0.5-0.5-0.5s-0.5,0.22382-0.5,0.5v1
	C11.03606,14.80105,11.25994,15.02492,11.53606,15.02492z"/>
</svg>
