<?xml version="1.0" encoding="utf-8"?>
<!-- Generator: Adobe Illustrator 22.0.1, SVG Export Plug-In . SVG Version: 6.00 Build 0)  -->
<svg version="1.1" id="Layer_1" xmlns="http://www.w3.org/2000/svg" xmlns:xlink="http://www.w3.org/1999/xlink" x="0px" y="0px"
	 viewBox="0 0 24 24" style="enable-background:new 0 0 24 24;" xml:space="preserve">
<style type="text/css">
	.st0{fill:#221A1C;}
	.st1{fill:#231F20;}
</style>
<path d="M9.49994,2.00558c-0.27637,0-0.5,0.22363-0.5,0.5v1.08759L2.65179,6.45968C2.54584,6.50704,2.44818,6.57296,2.28851,6.73214
	C2.22211,6.8044,2.16839,6.88399,2.1264,6.96895C2.11859,6.98409,2.08685,7.0544,2.0805,7.07003
	c-0.0498,0.12744-0.0752,0.24951-0.07764,0.37402c0,0.00391,0,0.00781,0,0.01172c0,0.00098,0,0.00244,0,0.00342v9.24121
	c0,0.42383,0.24854,0.81348,0.63232,0.99219l6.36475,2.98108v0.80212c0,0.27637,0.22363,0.5,0.5,0.5s0.5-0.22363,0.5-0.5V2.50558
	C9.99994,2.22921,9.7763,2.00558,9.49994,2.00558z M8.99994,9.52486L3.66235,7.09969L8.99994,4.6899V9.52486z M3.05853,16.78683
	c-0.03369-0.01562-0.05566-0.0498-0.05566-0.08643V7.89834l5.99707,2.72479v8.94672L3.05853,16.78683z M20.02777,7.66915
	l2.95459-1.67041l-6.9751-2.99951l-4.05029,1.97559l5.87402,2.78125l-5.85596,3.24561l5.05322,2.02832l0.97766-0.66284
	l0.00085,5.40747c-0.00586,0.02051-0.04834,0.07422-0.17969,0.14307l-4.62012,3.16016
	c-0.22803,0.15576-0.28613,0.4668-0.13037,0.69482c0.09668,0.1416,0.25342,0.21777,0.41309,0.21777
	c0.09717,0,0.19531-0.02832,0.28174-0.0874l4.54932-3.11963c0.34082-0.15918,0.68506-0.5293,0.68506-0.99756v-6.09656
	l3.9707-2.69202L20.02777,7.66915z M14.26556,4.96114l1.76807-0.8623l4.70068,2.02197l-1.83203,1.03564L14.26556,4.96114z
	 M16.90716,11.90401l-2.60791-1.04688l4.64893-2.57764l1.98535,0.89453L16.90716,11.90401z"/>
</svg>
