<?xml version="1.0" encoding="utf-8"?>
<!-- Generator: Adobe Illustrator 22.0.1, SVG Export Plug-In . SVG Version: 6.00 Build 0)  -->
<svg version="1.1" id="Layer_1" xmlns="http://www.w3.org/2000/svg" xmlns:xlink="http://www.w3.org/1999/xlink" x="0px" y="0px"
	 viewBox="0 0 24 24" style="enable-background:new 0 0 24 24;" xml:space="preserve">
<style type="text/css">
	.st0{fill:#221A1C;}
	.st1{fill:#231F20;}
</style>
<path d="M18.99701,13.9963h1v2.04932c0,0.45215-0.23047,0.8584-0.60107,1.06055l-6.56006,3.8335
	c-0.12598,0.04932-0.23779,0.07129-0.34961,0.07275c-0.12598-0.00146-0.24561-0.02539-0.36279-0.07129l-0.13281-0.05518
	l-7.375-3.77344c-0.38232-0.2085-0.61279-0.61475-0.61279-1.06689v-2.02588h1v2.02588c0,0.09033,0.04102,0.16162,0.07959,0.18262
	l6.95361,3.55157v-3.8045h1v3.71161l5.86719-3.45087c0.05272-0.02881,0.09375-0.1001,0.09375-0.19043V13.9963z M5.268,8.10079
	l5.66742-2.90814l-2.1889-1.13678l-6.3457,2.94092l-0.4209-0.90723l6.79199-3.14795l3.60205,1.87109l-0.01453,0.02802
	c0.03485,0.01337,0.07336,0.00861,0.10681,0.02618l6.5462,3.28912l1.96063-1.13824l-5.99023-3.23291l0.47461-0.87988
	l7.56152,4.08057l-2.9505,1.71381l2.96173,1.30475l-7.51318,5.03027l-3.49854-2.07556l-3.49902,2.07605L1.02728,9.99825
	l2.95386-1.30359L5.268,8.10079z M8.55267,13.85225l2.47485-1.46875L5.24817,9.2286l-2.15741,0.95227L8.55267,13.85225z
	 M20.96185,10.18575l-2.04822-0.9024l-5.8866,3.11066l2.45776,1.45874L20.96185,10.18575z M12.01068,5.75704L6.3291,8.67898
	l5.70026,3.11176l5.84369-3.08801L12.01068,5.75704z"/>
</svg>
