<?xml version="1.0" encoding="utf-8"?>
<!-- Generator: Adobe Illustrator 22.0.1, SVG Export Plug-In . SVG Version: 6.00 Build 0)  -->
<svg version="1.1" id="Layer_1" xmlns="http://www.w3.org/2000/svg" xmlns:xlink="http://www.w3.org/1999/xlink" x="0px" y="0px"
	 viewBox="0 0 24 24" style="enable-background:new 0 0 24 24;" xml:space="preserve">
<style type="text/css">
	.st0{fill:#221A1C;}
	.st1{fill:#231F20;}
</style>
<path d="M4.50206,6.99044c1.37842,0,2.5-1.12158,2.5-2.5s-1.12158-2.5-2.5-2.5s-2.5,1.12158-2.5,2.5
	S3.12364,6.99044,4.50206,6.99044z M4.50206,2.99044c0.82715,0,1.5,0.67285,1.5,1.5s-0.67285,1.5-1.5,1.5s-1.5-0.67285-1.5-1.5
	S3.67491,2.99044,4.50206,2.99044z M22.00402,4.48702c0-1.37842-1.12158-2.5-2.5-2.5c-1.20715,0-2.21704,0.86023-2.4494,1.99982
	h-0.55701c-0.27618,0-0.5,0.22388-0.5,0.5s0.22382,0.5,0.5,0.5h0.55695c0.19928,0.97821,0.97144,1.75037,1.94965,1.94965v0.56042
	c0,0.27612,0.22382,0.5,0.5,0.5c0.27612,0,0.5-0.22388,0.5-0.5V6.93642C21.14379,6.70406,22.00402,5.69417,22.00402,4.48702z
	 M19.50402,5.98702c-0.82715,0-1.5-0.67285-1.5-1.5s0.67285-1.5,1.5-1.5s1.5,0.67285,1.5,1.5S20.33117,5.98702,19.50402,5.98702z
	 M9.99999,4.48684c0,0.27612-0.22388,0.5-0.5,0.5h-1c-0.27618,0-0.5-0.22388-0.5-0.5s0.22382-0.5,0.5-0.5h1
	C9.77611,3.98684,9.99999,4.21071,9.99999,4.48684z M13.99877,4.48684c0,0.27612-0.22382,0.5-0.5,0.5h-1
	c-0.27612,0-0.5-0.22388-0.5-0.5s0.22388-0.5,0.5-0.5h1C13.77495,3.98684,13.99877,4.21071,13.99877,4.48684z M20.0042,10.49996v1
	c0,0.27618-0.22388,0.5-0.5,0.5c-0.27618,0-0.5-0.22382-0.5-0.5v-1c0-0.27612,0.22382-0.5,0.5-0.5
	C19.78032,9.99996,20.0042,10.22384,20.0042,10.49996z M20.0042,14.49813v1c0,0.27612-0.22388,0.5-0.5,0.5
	c-0.27618,0-0.5-0.22388-0.5-0.5v-1c0-0.27618,0.22382-0.5,0.5-0.5C19.78032,13.99813,20.0042,14.22194,20.0042,14.49813z
	 M20.0042,18.48934v1c0,0.27618-0.22388,0.5-0.5,0.5c-0.27618,0-0.5-0.22382-0.5-0.5v-1c0-0.27612,0.22382-0.5,0.5-0.5
	C19.78032,17.98934,20.0042,18.21322,20.0042,18.48934z M12.99999,19.48934c0,0.27618-0.22388,0.5-0.5,0.5h-1
	c-0.27618,0-0.5-0.22382-0.5-0.5c0-0.27612,0.22382-0.5,0.5-0.5h1C12.77611,18.98934,12.99999,19.21322,12.99999,19.48934z
	 M8.49999,18.98934H6.98815c-0.2002-0.9928-0.99078-1.77094-1.98804-1.9585v-5.32379l1.15723,1.15009
	c0.09766,0.09717,0.2251,0.14551,0.35254,0.14551c0.12842,0,0.25684-0.04932,0.35449-0.14746
	c0.19482-0.1958,0.19385-0.5127-0.00195-0.70703l-2.0166-2.00391C4.6505,9.94991,4.33507,9.94991,4.13976,10.14522l-1.98486,1.98633
	c-0.19531,0.19531-0.19531,0.51221,0,0.70703c0.19531,0.19531,0.51172,0.19531,0.70703,0l1.13818-1.13885v5.34613
	c-1.12012,0.24731-1.96191,1.24493-1.96191,2.43823c0,1.37842,1.12158,2.5,2.5,2.5c1.20538,0,2.21411-0.85767,2.44843-1.99475
	h1.51337c0.27612,0,0.5-0.22382,0.5-0.5C8.99999,19.21322,8.77611,18.98934,8.49999,18.98934z M4.5382,20.98409
	c-0.82715,0-1.5-0.67285-1.5-1.5s0.67285-1.5,1.5-1.5s1.5,0.67285,1.5,1.5S5.36534,20.98409,4.5382,20.98409z M17.01525,19.48391
	c0,0.27612-0.22388,0.5-0.5,0.5h-1c-0.27612,0-0.5-0.22388-0.5-0.5s0.22388-0.5,0.5-0.5h1
	C16.79137,18.98391,17.01525,19.20778,17.01525,19.48391z"/>
</svg>
