<?xml version="1.0" encoding="utf-8"?>
<!-- Generator: Adobe Illustrator 22.0.1, SVG Export Plug-In . SVG Version: 6.00 Build 0)  -->
<svg version="1.1" id="Layer_1" xmlns="http://www.w3.org/2000/svg" xmlns:xlink="http://www.w3.org/1999/xlink" x="0px" y="0px"
	 viewBox="0 0 24 24" style="enable-background:new 0 0 24 24;" xml:space="preserve">
<style type="text/css">
	.st0{fill:#221A1C;}
	.st1{fill:#231F20;}
</style>
<path d="M3.99741,17.0015h-1V3.00198h1V17.0015z M7.99741,3.00198h-1V17.0015h1V3.00198z M11.99741,3.00198h-1V17.0015h1V3.00198z
	 M15.99741,3.00198h-1V17.0015h1V3.00198z M19.99741,3.00198h-1V17.0015h1V3.00198z M3.99741,18.99612c-0.55231,0-1,0.44769-1,1
	c0,0.55225,0.44769,1,1,1s1-0.44775,1-1C4.99741,19.44382,4.54972,18.99612,3.99741,18.99612z M7.99741,18.99612
	c-0.55231,0-1,0.44769-1,1c0,0.55225,0.44769,1,1,1s1-0.44775,1-1C8.99741,19.44382,8.54972,18.99612,7.99741,18.99612z
	 M11.99741,18.99612c-0.55231,0-1,0.44769-1,1c0,0.55225,0.44769,1,1,1s1-0.44775,1-1
	C12.99741,19.44382,12.54972,18.99612,11.99741,18.99612z M15.99741,18.99612c-0.55231,0-1,0.44769-1,1c0,0.55225,0.44769,1,1,1
	s1-0.44775,1-1C16.99741,19.44382,16.54972,18.99612,15.99741,18.99612z M19.99741,18.99612c-0.55231,0-1,0.44769-1,1
	c0,0.55225,0.44769,1,1,1s1-0.44775,1-1C20.99741,19.44382,20.54972,18.99612,19.99741,18.99612z"/>
</svg>
