<?xml version="1.0" encoding="utf-8"?>
<!-- Generator: Adobe Illustrator 22.0.1, SVG Export Plug-In . SVG Version: 6.00 Build 0)  -->
<svg version="1.1" id="Layer_1" xmlns="http://www.w3.org/2000/svg" xmlns:xlink="http://www.w3.org/1999/xlink" x="0px" y="0px"
	 viewBox="0 0 24 24" style="enable-background:new 0 0 24 24;" xml:space="preserve">
<style type="text/css">
	.st0{fill:#221A1C;}
	.st1{fill:#231F20;}
</style>
<path d="M19.00085,16.0002h-2.5307l-0.47028-1.65625c-0.06152-0.21484-0.25781-0.36328-0.48145-0.36328H6.50281
	c-0.22363,0-0.41992,0.14844-0.48047,0.36328L5.55115,16.0002H2.99988V7.98897h3.49121h4.79688h0.71191v-1h-0.71191H6.99109V4.9963
	h4.99805v-1H6.49109c-0.27637,0-0.5,0.22363-0.5,0.5v2.49268H2.49988c-0.27637,0-0.5,0.22363-0.5,0.5v9.01123
	c0,0.27637,0.22363,0.5,0.5,0.5h2.76678L4.0282,21.35372c-0.04297,0.15088-0.0127,0.31299,0.08105,0.43799
	c0.09473,0.125,0.24219,0.19873,0.39941,0.19873h13c0.15723,0,0.30469-0.07373,0.39844-0.19873
	c0.09473-0.125,0.125-0.28711,0.08301-0.43799l-1.23608-4.35352h2.74683c0.27637,0,0.5-0.22363,0.5-0.5v-4.50537h-1V16.0002z
	 M5.17077,20.99044l1.70996-6.00977h8.25977l1.70605,6.00977H5.17077z M17.47497,1.98403c-2.487,0-4.50311,2.01611-4.50311,4.50311
	s2.01611,4.50311,4.50311,4.50311s4.50311-2.01611,4.50311-4.50311S19.96197,1.98403,17.47497,1.98403z M17.47497,9.99026
	c-1.93164,0-3.50311-1.57153-3.50311-3.50311c0-1.93164,1.57147-3.50311,3.50311-3.50311s3.50311,1.57147,3.50311,3.50311
	C20.97809,8.41872,19.40661,9.99026,17.47497,9.99026z M5.00159,9.99221h2v1h-2V9.99221z M19.15222,5.50704l-1.47559,2.47314
	c-0.0791,0.13184-0.21387,0.22021-0.36621,0.23975c-0.02148,0.00244-0.04199,0.00391-0.06348,0.00391
	c-0.12988,0-0.25684-0.05078-0.35059-0.14355l-1.01855-1.00195c-0.19727-0.19385-0.19922-0.51025-0.00586-0.70703
	c0.19334-0.19775,0.50977-0.19873,0.70703-0.00586l0.56445,0.55566l1.14941-1.92676c0.1416-0.23828,0.4502-0.31396,0.68555-0.17285
	C19.2157,4.96261,19.29382,5.26974,19.15222,5.50704z"/>
</svg>
