<?xml version="1.0" encoding="utf-8"?>
<!-- Generator: Adobe Illustrator 22.0.1, SVG Export Plug-In . SVG Version: 6.00 Build 0)  -->
<svg version="1.1" id="Layer_1" xmlns="http://www.w3.org/2000/svg" xmlns:xlink="http://www.w3.org/1999/xlink" x="0px" y="0px"
	 viewBox="0 0 24 24" style="enable-background:new 0 0 24 24;" xml:space="preserve">
<style type="text/css">
	.st0{fill:#221A1C;}
	.st1{fill:#231F20;}
</style>
<path d="M20.51947,5.98929h-3.49512v-2.5083c0-0.27637-0.22363-0.5-0.5-0.5H7.51117c-0.27637,0-0.5,0.22363-0.5,0.5v2.5083H3.51654
	c-0.27637,0-0.5,0.22363-0.5,0.5v9.01123c0,0.27637,0.22363,0.5,0.5,0.5h2.75342l-1.23242,4.35352
	c-0.04297,0.15088-0.01221,0.31299,0.08203,0.43799c0.09473,0.125,0.24219,0.19824,0.39893,0.19824h13
	c0.15674,0,0.30469-0.07373,0.39893-0.19873c0.09473-0.12549,0.125-0.2876,0.08203-0.43848l-1.24182-4.35254h2.76184
	c0.27637,0,0.5-0.22363,0.5-0.5V6.48929C21.01947,6.21292,20.79584,5.98929,20.51947,5.98929z M8.01117,3.98099h8.01318v2.0083
	H8.01117V3.98099z M6.17963,19.99026L7.8808,13.9805h8.26025l1.71484,6.00977H6.17963z M20.01947,15.00052h-2.54718
	l-0.47284-1.65723c-0.06152-0.21484-0.25781-0.36279-0.48096-0.36279H7.50287c-0.22363,0-0.41992,0.14844-0.48096,0.36377
	l-0.46887,1.65625h-2.5365V6.98929h3.49463h9.01318h3.49512V15.00052z M16.01849,8.9902h2v1h-2V8.9902z"/>
</svg>
