<?xml version="1.0" encoding="utf-8"?>
<!-- Generator: Adobe Illustrator 22.0.1, SVG Export Plug-In . SVG Version: 6.00 Build 0)  -->
<svg version="1.1" id="Layer_1" xmlns="http://www.w3.org/2000/svg" xmlns:xlink="http://www.w3.org/1999/xlink" x="0px" y="0px"
	 viewBox="0 0 24 24" style="enable-background:new 0 0 24 24;" xml:space="preserve">
<style type="text/css">
	.st0{fill:#221A1C;}
	.st1{fill:#231F20;}
</style>
<path class="st1" d="M20.98347,12.49612v0.49414c0,4.96777-4.03027,9.00977-8.9834,9.00977
	c-4.96777,0-9.00977-4.04199-9.00977-9.00977c0-4.01703,2.64331-7.49237,6.40875-8.62207L7.21686,2.91116
	C6.98737,2.75735,6.92585,2.44681,7.08015,2.21732c0.15332-0.22998,0.46582-0.29004,0.69336-0.13721l2.94238,1.97168
	c0.2959,0.2627,0.35059,0.62451,0.19043,0.90186L9.94343,7.66898C9.87018,7.87405,9.6778,8.00198,9.47175,8.00198
	c-0.05566,0-0.1123-0.00928-0.16699-0.02881C9.04401,7.88089,8.90827,7.59525,9.00007,7.33499l0.71692-2.01978
	C6.35322,6.31027,3.9903,9.4086,3.9903,12.99026c0,4.4165,3.59277,8.00977,8.00977,8.00977c4.40234,0,7.9834-3.59326,7.9834-8.00977
	v-0.49414c0-0.27637,0.22363-0.5,0.5-0.5S20.98347,12.21976,20.98347,12.49612z M14.48975,4.99167
	c0.27557,0,0.49854-0.22296,0.49854-0.49854S14.76533,3.9946,14.48975,3.9946h-0.0097c-0.27557,0-0.49365,0.22296-0.49365,0.49854
	S14.21424,4.99167,14.48975,4.99167z M17.48786,6.9946c0.27557,0,0.49854-0.22296,0.49854-0.49854s-0.22296-0.49854-0.49854-0.49854
	h-0.0097c-0.27557,0-0.49365,0.22296-0.49365,0.49854S17.21235,6.9946,17.48786,6.9946z"/>
<path class="st1" d="M19.49166,9.99509c0.27557,0,0.49854-0.22296,0.49854-0.49854s-0.22296-0.49854-0.49854-0.49854h-0.0097
	c-0.27557,0-0.49365,0.22296-0.49365,0.49854S19.21615,9.99509,19.49166,9.99509z"/>
</svg>
