<?xml version="1.0" encoding="utf-8"?>
<!-- Generator: Adobe Illustrator 22.0.1, SVG Export Plug-In . SVG Version: 6.00 Build 0)  -->
<svg version="1.1" id="Layer_1" xmlns="http://www.w3.org/2000/svg" xmlns:xlink="http://www.w3.org/1999/xlink" x="0px" y="0px"
	 viewBox="0 0 24 24" style="enable-background:new 0 0 24 24;" xml:space="preserve">
<style type="text/css">
	.st0{fill:#221A1C;}
	.st1{fill:#231F20;}
</style>
<path d="M21.97765,13.35665l-1.11279-2.43652l0.38184-2.65039c0.02783-0.19385-0.06006-0.38623-0.22461-0.4917l-2.25293-1.44824
	l-1.11328-2.43604c-0.08105-0.17822-0.25879-0.29248-0.45459-0.29248h-2.67774l-2.25293-1.44775
	c-0.16504-0.10645-0.37598-0.10645-0.54102,0L9.47667,3.60128H6.79845c-0.1958,0-0.37354,0.11426-0.45459,0.29248L5.23107,6.32979
	L2.97814,7.77804C2.81359,7.8835,2.7257,8.07589,2.75353,8.26974l0.38135,2.65039l-1.1123,2.43652
	c-0.08154,0.17773-0.05127,0.38721,0.07666,0.53516l1.75391,2.02344L4.234,18.56661c0.02783,0.19385,0.1665,0.35352,0.354,0.40869
	l2.56982,0.75439l1.75391,2.02393c0.12842,0.14844,0.32959,0.20703,0.51904,0.15234l2.56934-0.75488l2.56934,0.75488
	c0.04688,0.01318,0.09424,0.02002,0.14111,0.02002c0.14258,0,0.28125-0.06104,0.37793-0.17236l1.75342-2.02393l2.56982-0.75439
	c0.18799-0.05518,0.32666-0.21484,0.35449-0.40869l0.38086-2.65137l1.75391-2.02344
	C22.02892,13.74386,22.05919,13.53438,21.97765,13.35665z M19.29503,15.3713c-0.0625,0.07275-0.10352,0.16162-0.11719,0.25635
	l-0.35596,2.47852l-2.40234,0.70508c-0.09229,0.02734-0.17432,0.08008-0.2373,0.15234l-1.63916,1.89209l-2.40186-0.70557
	c-0.09277-0.02637-0.18945-0.02637-0.28223,0l-2.40186,0.70557l-1.63965-1.89209c-0.06299-0.07227-0.14502-0.125-0.23682-0.15234
	l-2.40234-0.70508l-0.35596-2.47852c-0.01367-0.09473-0.05469-0.18359-0.11719-0.25635l-1.63965-1.8916l1.03955-2.27783
	c0.04004-0.08691,0.0542-0.18359,0.04053-0.27881L3.78917,8.44552l2.10645-1.354C5.97618,7.03975,6.04015,6.96602,6.0797,6.87862
	l1.04004-2.27734h2.50391c0.0957,0,0.18945-0.02734,0.27051-0.07959l2.10596-1.35352l2.10596,1.35352
	c0.08105,0.05225,0.1748,0.07959,0.27051,0.07959h2.50342l1.04053,2.27734c0.03955,0.0874,0.10352,0.16113,0.18408,0.21289
	l2.10645,1.354l-0.35693,2.47754c-0.01367,0.09521,0.00049,0.19189,0.04053,0.27881l1.04004,2.27783L19.29503,15.3713z
	 M15.00499,11.99874c-1.09912,0-1.99316,1.11816-1.99316,2.49219c0,1.37451,0.89404,2.49268,1.99316,2.49268
	s1.99317-1.11816,1.99317-2.49268C16.99816,13.1169,16.10411,11.99874,15.00499,11.99874z M15.00499,15.9836
	c-0.53857,0-0.99316-0.68359-0.99316-1.49268s0.45459-1.49219,0.99316-1.49219s0.99316,0.68311,0.99316,1.49219
	S15.54357,15.9836,15.00499,15.9836z M15.85655,8.86202L8.859,15.82931c-0.09766,0.09717-0.22559,0.14551-0.35303,0.14551
	c-0.12842,0-0.25684-0.04932-0.35449-0.14746c-0.19482-0.19531-0.19385-0.51221,0.00146-0.70703l6.99756-6.96729
	c0.19531-0.1958,0.51221-0.19336,0.70752,0.00146C16.05285,8.3503,16.05187,8.6672,15.85655,8.86202z M11.00157,9.49532
	c0-1.37451-0.89404-2.49268-1.99268-2.49268c-1.09912,0-1.99316,1.11816-1.99316,2.49268S7.90978,11.988,9.0089,11.988
	C10.10753,11.988,11.00157,10.86983,11.00157,9.49532z M8.01573,9.49532c0-0.80908,0.45459-1.49268,0.99316-1.49268
	c0.53809,0,0.99268,0.68359,0.99268,1.49268S9.54698,10.988,9.0089,10.988C8.47032,10.988,8.01573,10.3044,8.01573,9.49532z"/>
</svg>
