<?xml version="1.0" encoding="utf-8"?>
<!-- Generator: Adobe Illustrator 22.0.1, SVG Export Plug-In . SVG Version: 6.00 Build 0)  -->
<svg version="1.1" id="Layer_1" xmlns="http://www.w3.org/2000/svg" xmlns:xlink="http://www.w3.org/1999/xlink" x="0px" y="0px"
	 viewBox="0 0 24 24" style="enable-background:new 0 0 24 24;" xml:space="preserve">
<style type="text/css">
	.st0{fill:#221A1C;}
	.st1{fill:#231F20;}
	.st2{fill:none;}
</style>
<g>
	<path d="M10.49741,2.9963h-7c-0.27637,0-0.5,0.22363-0.5,0.5v7c0,0.27637,0.22363,0.5,0.5,0.5h7c0.27637,0,0.5-0.22363,0.5-0.5v-7
		C10.99741,3.21993,10.77378,2.9963,10.49741,2.9963z M9.99741,9.9963h-6v-6h6V9.9963z"/>
	<path d="M6.49741,7.9963h1c0.27637,0,0.5-0.22363,0.5-0.5v-1c0-0.27637-0.22363-0.5-0.5-0.5h-1c-0.27637,0-0.5,0.22363-0.5,0.5v1
		C5.99741,7.77267,6.22105,7.9963,6.49741,7.9963z"/>
	<path d="M6.49741,17.9963h1c0.27637,0,0.5-0.22363,0.5-0.5v-1c0-0.27637-0.22363-0.5-0.5-0.5h-1c-0.27637,0-0.5,0.22363-0.5,0.5v1
		C5.99741,17.77267,6.22105,17.9963,6.49741,17.9963z"/>
	<path d="M16.49741,7.9963h1c0.27637,0,0.5-0.22363,0.5-0.5v-1c0-0.27637-0.22363-0.5-0.5-0.5h-1c-0.27637,0-0.5,0.22363-0.5,0.5v1
		C15.99741,7.77267,16.22105,7.9963,16.49741,7.9963z"/>
	<path d="M17.99741,16.4963c0-0.27637-0.22363-0.5-0.5-0.5h-1c-0.27637,0-0.5,0.22363-0.5,0.5v1c0,0.27637,0.22363,0.5,0.5,0.5h1
		c0.27637,0,0.5-0.22363,0.5-0.5V16.4963z"/>
	<path d="M20.49741,2.9963h-7c-0.27637,0-0.5,0.22363-0.5,0.5v7c0,0.27637,0.22363,0.5,0.5,0.5h7c0.27637,0,0.5-0.22363,0.5-0.5v-7
		C20.99741,3.21993,20.77378,2.9963,20.49741,2.9963z M19.99741,9.9963h-6v-6h6V9.9963z"/>
	<path d="M10.49741,12.9963h-7c-0.27637,0-0.5,0.22363-0.5,0.5v7c0,0.27637,0.22363,0.5,0.5,0.5h7c0.27637,0,0.5-0.22363,0.5-0.5v-7
		C10.99741,13.21993,10.77378,12.9963,10.49741,12.9963z M9.99741,19.9963h-6v-6h6V19.9963z"/>
	<path d="M20.49741,12.9963h-1h-1c-0.27637,0-0.5,0.22363-0.5,0.5s0.22363,0.5,0.5,0.5h1h0.5v0.5v1c0,0.27637,0.22363,0.5,0.5,0.5
		s0.5-0.22363,0.5-0.5v-1v-1C20.99741,13.21993,20.77378,12.9963,20.49741,12.9963z"/>
	<path d="M20.49741,17.9963c-0.27637,0-0.5,0.22363-0.5,0.5v1.5h-1.5c-0.27637,0-0.5,0.22363-0.5,0.5s0.22363,0.5,0.5,0.5h2
		c0.27637,0,0.5-0.22363,0.5-0.5v-2C20.99741,18.21993,20.77378,17.9963,20.49741,17.9963z"/>
	<path d="M15.49741,19.9963h-1h-0.5v-0.5v-1c0-0.27637-0.22363-0.5-0.5-0.5s-0.5,0.22363-0.5,0.5v1v1c0,0.27637,0.22363,0.5,0.5,0.5
		h1h1c0.27637,0,0.5-0.22363,0.5-0.5S15.77378,19.9963,15.49741,19.9963z"/>
	<path d="M13.49741,15.9963c0.27637,0,0.5-0.22363,0.5-0.5v-1.5h1.5c0.27637,0,0.5-0.22363,0.5-0.5s-0.22363-0.5-0.5-0.5h-2
		c-0.27637,0-0.5,0.22363-0.5,0.5v2C12.99741,15.77267,13.22105,15.9963,13.49741,15.9963z"/>
</g>
</svg>
