<?xml version="1.0" encoding="utf-8"?>
<!-- Generator: Adobe Illustrator 22.0.1, SVG Export Plug-In . SVG Version: 6.00 Build 0)  -->
<svg version="1.1" id="Layer_1" xmlns="http://www.w3.org/2000/svg" xmlns:xlink="http://www.w3.org/1999/xlink" x="0px" y="0px"
	 viewBox="0 0 24 24" style="enable-background:new 0 0 24 24;" xml:space="preserve">
<style type="text/css">
	.st0{fill:#221A1C;}
	.st1{fill:#231F20;}
</style>
<path d="M11.99983,22.0002c-5.51367,0-10-4.48584-10-10s4.48633-10,10-10s10,4.48584,10,10S17.5135,22.0002,11.99983,22.0002z
	 M11.99983,3.0002c-4.96289,0-9,4.0376-9,9s4.03711,9,9,9s9-4.0376,9-9S16.96272,3.0002,11.99983,3.0002z M11.06762,14.08181
	l-0.02934-0.35887c-0.08605-0.77446,0.1721-1.62079,0.88985-2.48179c0.64538-0.77495,1.00425-1.3201,1.00425-1.96548
	c0-0.73192-0.45861-1.23405-1.36313-1.23405c-0.51631,0-1.09031,0.15792-1.44918,0.44492l-0.3442-0.90402
	c0.47328-0.35838,1.29174-0.58818,2.05153-0.58818c1.65061,0,2.39672,1.0331,2.39672,2.12341
	c0,0.96123-0.54564,1.67848-1.23405,2.48228c-0.63169,0.76028-0.86149,1.39148-0.81846,2.12292l0.01467,0.35887H11.06762z
	 M11.59859,16.99434c-0.48795,0-0.83215-0.38723-0.83215-0.88984c0-0.53049,0.35789-0.90354,0.84584-0.90354
	c0.51631,0,0.84682,0.37305,0.84682,0.90354c0,0.50261-0.33051,0.88984-0.84682,0.88984H11.59859z"/>
</svg>
