<?xml version="1.0" encoding="utf-8"?>
<!-- Generator: Adobe Illustrator 22.0.1, SVG Export Plug-In . SVG Version: 6.00 Build 0)  -->
<svg version="1.1" id="Layer_1" xmlns="http://www.w3.org/2000/svg" xmlns:xlink="http://www.w3.org/1999/xlink" x="0px" y="0px"
	 viewBox="0 0 24 24" style="enable-background:new 0 0 24 24;" xml:space="preserve">
<style type="text/css">
	.st0{fill:#221A1C;}
	.st1{fill:#231F20;}
</style>
<path d="M20.00913,11.96505c0,1.95215-0.70996,3.8335-2,5.29688l-0.75-0.66113c1.12891-1.28076,1.75-2.92676,1.75-4.63574
	c0-3.73981-2.94415-6.79669-6.63568-6.99542L13.91343,7.217c0.15527,0.22803,0.09668,0.53906-0.13086,0.69482
	c-0.08594,0.05908-0.18457,0.0874-0.28223,0.0874c-0.15918,0-0.31545-0.07617-0.41309-0.21777l-1.97656-2.88916
	c-0.19043-0.22998-0.17676-0.60156,0.04297-0.84912l1.93652-2.83496c0.15625-0.22803,0.46777-0.28467,0.69531-0.13086
	c0.22754,0.15576,0.28613,0.46729,0.13086,0.69531l-1.50269,2.19897C16.63737,4.19179,20.00913,7.68709,20.00913,11.96505z
	 M12.91929,16.21114c-0.15723-0.22754-0.46875-0.28467-0.69531-0.13037c-0.22754,0.15576-0.28613,0.4668-0.13086,0.69482
	l1.50415,2.19659c-0.41327,0.01617-0.90228,0.01392-1.25513,0.00995l-0.35645-0.00244c-3.86816,0-7.01465-3.14697-7.01465-7.01465
	c0-1.91406,0.75684-3.70264,2.13086-5.03564L6.40464,6.21163C4.8353,7.73507,3.97105,9.77804,3.97105,11.96505
	c0,4.41943,3.5957,8.01465,8.01465,8.01465l0.34668,0.00244c0.19531,0.00195,0.3877,0.00342,0.57324,0.00342
	c0.25739,0,0.49701-0.00415,0.7196-0.01263l-1.53503,2.24701c-0.15529,0.22803-0.09668,0.53955,0.13086,0.69531
	c0.08691,0.05859,0.18457,0.08691,0.28223,0.08691c0.15918,0,0.31641-0.07617,0.41309-0.21777l1.93652-2.83496
	c0.21973-0.24756,0.2334-0.61865,0.04297-0.84863L12.91929,16.21114z"/>
</svg>
