<?xml version="1.0" encoding="utf-8"?>
<!-- Generator: Adobe Illustrator 22.0.1, SVG Export Plug-In . SVG Version: 6.00 Build 0)  -->
<svg version="1.1" id="Layer_1" xmlns="http://www.w3.org/2000/svg" xmlns:xlink="http://www.w3.org/1999/xlink" x="0px" y="0px"
	 viewBox="0 0 24 24" style="enable-background:new 0 0 24 24;" xml:space="preserve">
<style type="text/css">
	.st0{fill:#221A1C;}
	.st1{fill:#231F20;}
</style>
<path d="M9.82775,2.08712c-0.21191-0.17627-0.52637-0.14697-0.7041,0.06445C8.94689,2.36349,8.9757,2.67892,9.1881,2.85567
	l2.09851,1.74719c-4.60577,0.2196-8.28845,4.02478-8.28845,8.68396c0,1.71942,0.50433,3.37628,1.44971,4.80219
	c-0.27917,0.4032-0.44482,0.89056-0.44482,1.41705c0,1.37744,1.12061,2.49805,2.49805,2.49805s2.49756-1.12061,2.49756-2.49805
	s-1.12012-2.49805-2.49756-2.49805c-0.48029,0-0.92517,0.14282-1.3064,0.37866c-0.77521-1.22827-1.19653-2.63623-1.19653-4.09985
	c0-4.24292,3.44763-7.69507,7.68848-7.70422l-1.60791,2.64856C9.93517,8.467,10.01036,8.77462,10.24669,8.91768
	c0.08105,0.04932,0.17041,0.07275,0.25879,0.07275c0.16895,0,0.33398-0.08545,0.42773-0.24072l1.94824-3.21973
	c0.23779-0.28369,0.20996-0.70166-0.08105-0.96729L9.82775,2.08712z M6.50109,18.01583c0.82129,0,1.48975,0.66846,1.48975,1.49023
	S7.32238,20.9963,6.50109,20.9963c-0.82178,0-1.49023-0.66846-1.49023-1.49023S5.67931,18.01583,6.50109,18.01583z
	 M15.2697,21.05697c0.08447,0.26318-0.06006,0.54443-0.32275,0.62939c-0.3335,0.10693-0.67676,0.19531-1.02734,0.26221
	c-0.03174,0.00586-0.06348,0.00879-0.09424,0.00879c-0.23535,0-0.44482-0.16699-0.49072-0.40625
	c-0.05176-0.27148,0.12646-0.5332,0.39746-0.58496c0.31055-0.05908,0.61377-0.13672,0.9082-0.23193
	C14.90398,20.65121,15.18523,20.79427,15.2697,21.05697z M11.33513,21.5682c-0.04297,0.24219-0.25391,0.4126-0.4917,0.4126
	c-0.02881,0-0.05811-0.00244-0.08789-0.00781c-0.35059-0.06201-0.69531-0.14551-1.03125-0.24854
	c-0.26367-0.08105-0.41211-0.36084-0.33105-0.625c0.08154-0.2627,0.35889-0.41162,0.625-0.33105
	c0.29688,0.09131,0.60156,0.16504,0.91211,0.22021C11.20232,21.03646,11.38347,21.29622,11.33513,21.5682z M18.50457,18.76107
	c0.19824,0.19287,0.20312,0.50928,0.01074,0.70703c-0.24609,0.25342-0.50781,0.4917-0.7832,0.71387
	c-0.09277,0.07471-0.20361,0.11084-0.31348,0.11084c-0.146,0-0.29102-0.06348-0.38965-0.18604
	c-0.17334-0.21484-0.13965-0.52979,0.0752-0.70312c0.24414-0.19678,0.47559-0.40771,0.69336-0.63184
	C17.99041,18.57357,18.30681,18.56869,18.50457,18.76107z M20.9406,12.57894c0.02637,0.27441-0.17041,0.57129-0.44482,0.59766
	c-0.021,0.00195-0.04199,0.00293-0.0625,0.00293c-0.24756,0-0.45361-0.14502-0.47803-0.39893
	c0-0.00049-0.00977-0.10742-0.00977-0.10791c-0.02686-0.28174-0.06836-0.55811-0.12402-0.82959
	c-0.05566-0.27051,0.11914-0.53467,0.38965-0.58984c0.26953-0.05518,0.53467,0.11914,0.58984,0.38965
	C20.86345,11.94857,20.91082,12.26107,20.9406,12.57894z M20.6325,15.83968c-0.1001,0.34131-0.22021,0.67432-0.35986,0.99756
	c-0.08154,0.18945-0.26562,0.30225-0.45947,0.30225c-0.06592,0-0.13281-0.01318-0.19727-0.04102
	c-0.25391-0.10938-0.37061-0.40332-0.26123-0.65674c0.12305-0.28613,0.22949-0.58105,0.31787-0.8833
	c0.07764-0.26416,0.35645-0.41455,0.62061-0.33936C20.55828,15.29671,20.71013,15.57454,20.6325,15.83968z M19.61052,8.70882
	c-0.19141-0.29785-0.3999-0.5835-0.62451-0.85498c-0.07953-0.09576-0.18805-0.14856-0.30127-0.16821
	c0.20087-0.35956,0.32513-0.76752,0.32513-1.20789c0-1.37744-1.12061-2.49805-2.49805-2.49805s-2.49756,1.12061-2.49756,2.49805
	s1.12012,2.49756,2.49756,2.49756c0.62579,0,1.19153-0.2392,1.63031-0.62067c0.01886,0.04767,0.03894,0.09534,0.07336,0.1369
	c0.19922,0.24023,0.38428,0.49365,0.55322,0.75732c0.0957,0.14893,0.25684,0.22998,0.42139,0.22998
	c0.09229,0,0.18604-0.02539,0.26953-0.0791C19.69207,9.25033,19.75945,8.94124,19.61052,8.70882z M16.51183,7.96749
	c-0.82129,0-1.48975-0.66846-1.48975-1.48975c0-0.82178,0.66846-1.49023,1.48975-1.49023c0.82178,0,1.49023,0.66846,1.49023,1.49023
	C18.00206,7.29903,17.33361,7.96749,16.51183,7.96749z"/>
</svg>
