<?xml version="1.0" encoding="utf-8"?>
<!-- Generator: Adobe Illustrator 22.0.1, SVG Export Plug-In . SVG Version: 6.00 Build 0)  -->
<svg version="1.1" id="Layer_1" xmlns="http://www.w3.org/2000/svg" xmlns:xlink="http://www.w3.org/1999/xlink" x="0px" y="0px"
	 viewBox="0 0 24 24" style="enable-background:new 0 0 24 24;" xml:space="preserve">
<style type="text/css">
	.st0{fill:#221A1C;}
	.st1{fill:#231F20;}
</style>
<path d="M18.85851,4.88968l-1.87329-1.88971H3.99926c-0.55188,0-0.99927,0.44739-0.99927,0.99921v16.00159
	c0,0.55188,0.44739,0.99921,0.99927,0.99921h16.00153c0.55188,0,0.99921-0.44733,0.99921-0.99921V6.99612L18.85851,4.88968z
	 M7.99499,3.99997h6.99023v3.9942H7.99499V3.99997z M3.99999,20.00076L3.99926,3.99997h2.99573v4.9942h8.99023v-4.9942h0.58325
	l1.58881,1.60266l1.84271,1.81256l0.00079,12.58478L3.99999,20.00076z M11.51647,12.99362
	c-1.37958,0-2.49799,1.11841-2.49799,2.49799c0,1.37964,1.11841,2.49799,2.49799,2.49799c1.37964,0,2.49799-1.11835,2.49799-2.49799
	C14.01446,14.11203,12.89611,12.99362,11.51647,12.99362z M11.51647,16.89462c-0.77362,0-1.40295-0.62939-1.40295-1.40302
	s0.62933-1.40295,1.40295-1.40295s1.40302,0.62933,1.40302,1.40295S12.29009,16.89462,11.51647,16.89462z"/>
</svg>
