<?xml version="1.0" encoding="utf-8"?>
<!-- Generator: Adobe Illustrator 22.0.1, SVG Export Plug-In . SVG Version: 6.00 Build 0)  -->
<svg version="1.1" id="Layer_1" xmlns="http://www.w3.org/2000/svg" xmlns:xlink="http://www.w3.org/1999/xlink" x="0px" y="0px"
	 viewBox="0 0 24 24" style="enable-background:new 0 0 24 24;" xml:space="preserve">
<style type="text/css">
	.st0{fill:#221A1C;}
	.st1{fill:#231F20;}
	.st2{fill:none;}
</style>
<g>
	<rect x="8.01111" y="3.99996" class="st2" width="6.99023" height="3.9942"/>
	<path class="st2" d="M16.80194,11.54268c1.21942,0,2.32635,0.43585,3.21448,1.13702l-0.00031-5.26453L18.1734,5.60262
		l-1.58881-1.60266h-0.58325v4.9942H7.01111v-4.9942H4.01538l0.00073,16.00079l8.73047-0.00043
		c-0.71472-0.89252-1.15997-2.00995-1.15997-3.24231C11.58661,13.87765,13.92163,11.54268,16.80194,11.54268z"/>
	<polygon points="21.01611,16.74654 21.01611,16.76949 21.01727,16.75802 	"/>
	<path d="M21.01611,13.70815V6.99611l-2.14148-2.10645l-1.87329-1.88971H4.01538c-0.55188,0-0.99927,0.44739-0.99927,0.99921
		v16.00159c0,0.55188,0.44739,0.99921,0.99927,0.99921h9.77039c0.85278,0.6076,1.88928,0.97339,3.01617,0.97339
		s2.16339-0.36578,3.01617-0.97339c0.46228-0.32941,0.86481-0.73267,1.198-1.19208c0.62311-0.85925,1.00116-1.90729,1.00116-3.04987
		S21.63922,14.5674,21.01611,13.70815z M8.01111,3.99996h6.99023v3.9942H8.01111V3.99996z M4.01611,20.00075L4.01538,3.99996
		h2.99573v4.9942h8.99023v-4.9942h0.58325l1.58881,1.60266l1.84271,1.81256l0.00031,5.26453
		c-0.88812-0.70117-1.99506-1.13702-3.21448-1.13702c-2.88031,0-5.21533,2.33496-5.21533,5.21533
		c0,1.23236,0.44525,2.34979,1.15997,3.24231L4.01611,20.00075z M20.01684,19.45186
		c-0.16791,0.20007-0.35205,0.38214-0.55383,0.5481c-0.72803,0.59875-1.64703,0.97339-2.66107,0.97339
		c-1.01385,0-1.93274-0.37445-2.66077-0.97308c-0.94098-0.77368-1.55457-1.93176-1.55457-3.24225
		c0-2.32434,1.89099-4.21533,4.21533-4.21533c1.29486,0,2.44073,0.5993,3.2146,1.52106
		c0.61292,0.72998,0.99677,1.6579,0.99957,2.6828c0,0.00391,0.00116,0.00757,0.00116,0.01147s-0.00116,0.00757-0.00116,0.01147
		C21.0133,17.79421,20.62958,18.72194,20.01684,19.45186z"/>
	<polygon points="17.30218,14.40694 16.30218,14.40694 16.30218,16.27999 14.44037,16.27999 14.44037,17.27999 16.30218,17.27999 
		16.30218,19.14132 17.30218,19.14132 17.30218,17.27999 19.17767,17.27999 19.17767,16.27999 17.30218,16.27999 	"/>
</g>
</svg>
