<?xml version="1.0" encoding="utf-8"?>
<!-- Generator: Adobe Illustrator 22.0.1, SVG Export Plug-In . SVG Version: 6.00 Build 0)  -->
<svg version="1.1" id="Layer_1" xmlns="http://www.w3.org/2000/svg" xmlns:xlink="http://www.w3.org/1999/xlink" x="0px" y="0px"
	 viewBox="0 0 24 24" style="enable-background:new 0 0 24 24;" xml:space="preserve">
<style type="text/css">
	.st0{fill:#221A1C;}
	.st1{fill:#231F20;}
</style>
<path d="M6.90716,17.76273l-1.97559,3.01025c-0.08252,0.12549-0.2168,0.20752-0.36623,0.22314
	c-0.01708,0.00146-0.03465,0.00244-0.05174,0.00244c-0.13135,0-0.2583-0.05176-0.35254-0.14551l-1.01074-1.00537
	c-0.1958-0.19482-0.19678-0.51123-0.00195-0.70703c0.19482-0.19531,0.51123-0.19629,0.70703-0.00195l0.57617,0.57324
	l1.63965-2.49805c0.15186-0.22949,0.46191-0.29541,0.69238-0.14355C6.99457,17.22171,7.05853,17.53177,6.90716,17.76273z
	 M20.46136,18.9761h-9.96436c-0.27637,0-0.5,0.22363-0.5,0.5s0.22363,0.5,0.5,0.5h9.96436c0.27637,0,0.5-0.22363,0.5-0.5
	S20.73773,18.9761,20.46136,18.9761z M6.76361,10.05032c-0.229-0.15088-0.54004-0.08643-0.69238,0.14355l-1.63965,2.49756
	l-0.57617-0.57275c-0.1958-0.19482-0.51221-0.19287-0.70703,0.00195c-0.19482,0.1958-0.19385,0.51221,0.00195,0.70703
	l1.01074,1.00488c0.09424,0.09375,0.22119,0.14551,0.35254,0.14551c0.01709,0,0.03467-0.00098,0.05174-0.00244
	c0.14943-0.01562,0.28371-0.09766,0.36623-0.22314l1.97559-3.00977C7.05853,10.51175,6.99457,10.20169,6.76361,10.05032z
	 M20.46136,11.95609h-9.96436c-0.27637,0-0.5,0.22363-0.5,0.5s0.22363,0.5,0.5,0.5h9.96436c0.27637,0,0.5-0.22363,0.5-0.5
	S20.73773,11.95609,20.46136,11.95609z M6.76361,3.07132c-0.229-0.15137-0.54004-0.08691-0.69238,0.14355L4.43207,5.71243
	L3.85541,5.13919C3.65961,4.94437,3.3432,4.94583,3.14837,5.14114c-0.19482,0.1958-0.19385,0.51221,0.00195,0.70703l1.01074,1.00537
	C4.25531,6.9473,4.38226,6.99905,4.51361,6.99905c0.01709,0,0.03467-0.00098,0.05174-0.00244
	c0.14943-0.01562,0.28371-0.09766,0.36623-0.22314L6.90716,3.7637C7.05853,3.53275,6.99457,3.22269,6.76361,3.07132z
	 M10.49701,5.97708h9.96436c0.27637,0,0.5-0.22363,0.5-0.5s-0.22363-0.5-0.5-0.5h-9.96436c-0.27637,0-0.5,0.22363-0.5,0.5
	S10.22064,5.97708,10.49701,5.97708z"/>
</svg>
