<?xml version="1.0" encoding="utf-8"?>
<!-- Generator: Adobe Illustrator 22.0.1, SVG Export Plug-In . SVG Version: 6.00 Build 0)  -->
<svg version="1.1" id="Layer_1" xmlns="http://www.w3.org/2000/svg" xmlns:xlink="http://www.w3.org/1999/xlink" x="0px" y="0px"
	 viewBox="0 0 24 24" style="enable-background:new 0 0 24 24;" xml:space="preserve">
<style type="text/css">
	.st0{fill:#221A1C;}
	.st1{fill:#231F20;}
</style>
<path d="M19.57335,12.59591c0.03906-0.04492,0.94385-1.11523-0.0708-3.02246c-0.80908-1.52148-2.67334-2.85156-3.4585-3.30811
	l1.8457-2.47607c0.11279-0.15137,0.13086-0.354,0.0459-0.52295c-0.08447-0.16895-0.25781-0.27588-0.44678-0.27588h-4.98242
	c-0.27637,0-0.5,0.22363-0.5,0.5s0.22363,0.5,0.5,0.5h3.98584l-2.38233,3.1958c-0.11963,0.16016-0.13184,0.37646-0.03174,0.5498
	c0.45508,0.78516,1.48145,3.1333,0.77344,4.55078c-0.35791,0.7168-1.14795,1.15283-2.38135,1.30176
	c-0.20605,0.03711-0.67285,0.03906-0.81201-0.13574c-0.04688-0.05859-0.17432-0.30908,0.13525-1.02979
	c0.00293-0.00488,0.28271-0.50098,0.97754-0.99951c0.46191-0.33154,0.53516-0.6958,0.51562-0.94238
	c-0.04785-0.604-0.68506-0.95166-0.8125-1.01562c-0.05078-0.02539-0.10547-0.04199-0.16162-0.04883l-6.854-0.854
	C5.34289,8.54903,5.23449,8.57198,5.13927,8.63009C5.07042,8.6711,4.46251,9.05538,4.2882,9.81759
	c-0.10107,0.44287-0.03418,0.90479,0.19922,1.37744c-0.86084,0.93457-2.63574,3.01416-2.49072,4.12256
	c0.03809,0.28857,0.19092,0.52881,0.43115,0.67578c1.13623,0.6958,4.75879,0.93018,5.19434,0.95557l6.63037,0.04297
	c0.06738-0.0083,1.65332-0.23096,2.84912-1.74854C18.14611,13.9172,19.5216,12.64767,19.57335,12.59591z M5.53966,9.58028
	l6.55078,0.81641c0.09375,0.05859,0.1875,0.13574,0.20703,0.1123c0,0.00049-0.02051,0.03809-0.10939,0.10205
	c-0.8416,0.60382-1.19469,1.19617-1.27416,1.34357L5.44304,10.8265c-0.15393-0.28473-0.23108-0.54968-0.18219-0.77698
	C5.30773,9.8337,5.44152,9.67354,5.53966,9.58028z M16.31652,14.62423c-0.91992,1.16748-2.14453,1.36865-2.12647,1.37207
	l-6.53467-0.04639C6.20568,15.863,3.6466,15.5671,2.98888,15.1921c-0.09418-0.3902,0.98053-1.96106,2.29218-3.37781l5.35236,1.1037
	c-0.06274,0.46777,0.00653,0.86249,0.24414,1.15936c0.56006,0.69971,1.65527,0.5166,1.74512,0.49902
	c1.55518-0.18652,2.60596-0.80615,3.12354-1.84277c0.91211-1.82617-0.20703-4.34766-0.64453-5.20459l0.33984-0.45605
	c0.56055,0.29541,2.43067,1.56396,3.17822,2.97021c0.66028,1.24152,0.22955,1.85571,0.23785,1.85632
	C18.79528,11.95717,17.41021,13.23604,16.31652,14.62423z M19.51085,14.99825c-1.37842,0-2.49951,1.12109-2.49951,2.49951
	s1.12109,2.49951,2.49951,2.49951s2.49951-1.12109,2.49951-2.49951S20.88927,14.99825,19.51085,14.99825z M19.51085,18.99727
	c-0.82666,0-1.49951-0.67285-1.49951-1.49951s0.67285-1.49951,1.49951-1.49951s1.49951,0.67285,1.49951,1.49951
	S20.33751,18.99727,19.51085,18.99727z M9.99279,18.50997c0,1.37842-1.12109,2.49951-2.49902,2.49951
	c-1.37842,0-2.49951-1.12109-2.49951-2.49951c0-0.27637,0.22363-0.5,0.5-0.5s0.5,0.22363,0.5,0.5
	c0,0.82666,0.67285,1.49951,1.49951,1.49951s1.49902-0.67285,1.49902-1.49951c0-0.27637,0.22363-0.5,0.5-0.5
	S9.99279,18.2336,9.99279,18.50997z"/>
</svg>
