<?xml version="1.0" encoding="utf-8"?>
<!-- Generator: Adobe Illustrator 22.0.1, SVG Export Plug-In . SVG Version: 6.00 Build 0)  -->
<svg version="1.1" id="Layer_1" xmlns="http://www.w3.org/2000/svg" xmlns:xlink="http://www.w3.org/1999/xlink" x="0px" y="0px"
	 viewBox="0 0 24 24" style="enable-background:new 0 0 24 24;" xml:space="preserve">
<style type="text/css">
	.st0{fill:#221A1C;}
	.st1{fill:#231F20;}
</style>
<path d="M18.35541,16.01436c-0.39844,0.03857-0.75781,0.22998-1.01221,0.53906s-0.37305,0.69824-0.33447,1.09668
	c0.07471,0.77344,0.72852,1.354,1.48975,1.354c0.04834,0,0.09717-0.00244,0.146-0.00732
	c0.82227-0.07959,1.42676-0.81348,1.34668-1.63574C19.91156,16.53927,19.17084,15.93087,18.35541,16.01436z M18.8847,17.82247
	c-0.08447,0.10254-0.2041,0.16602-0.33691,0.1792c-0.26953,0.02832-0.51709-0.17432-0.54395-0.44824
	c-0.0127-0.13232,0.02686-0.26172,0.11133-0.36426c0.08496-0.10303,0.2041-0.1665,0.33643-0.17969
	c0.01611-0.00146,0.03223-0.00195,0.04834-0.00195c0.25342,0,0.47119,0.19287,0.49609,0.4502
	C19.00873,17.59005,18.96918,17.71944,18.8847,17.82247z M9.36078,16.00509c-0.82227,0.07959-1.42676,0.81348-1.34668,1.63574
	c0.07471,0.77295,0.729,1.35352,1.49121,1.35352c0.04785,0,0.0957-0.00195,0.14453-0.00684
	c0.39844-0.03857,0.75781-0.22998,1.01221-0.53906s0.37305-0.69824,0.33447-1.09668
	C10.91742,16.5295,10.18353,15.92647,9.36078,16.00509z M9.89007,17.8127c-0.08496,0.10303-0.2041,0.1665-0.33643,0.17969
	c-0.26758,0.0293-0.51758-0.17383-0.54443-0.44824c-0.02637-0.27344,0.1748-0.51709,0.44824-0.54395
	c0.01611-0.00146,0.03223-0.00244,0.04834-0.00244c0.25342,0,0.4707,0.19336,0.49561,0.45068
	C10.0141,17.58077,9.97455,17.71017,9.89007,17.8127z M5.3681,16.00509c-0.82227,0.07959-1.42676,0.81348-1.34668,1.63574
	c0.07471,0.77295,0.729,1.354,1.49121,1.35352c0.04736,0,0.0957-0.00195,0.14453-0.00684
	c0.39844-0.03857,0.75781-0.22998,1.01221-0.53906s0.37305-0.69824,0.33447-1.09668
	C6.92474,16.5295,6.18451,15.92647,5.3681,16.00509z M5.8974,17.8127c-0.08496,0.10303-0.2041,0.1665-0.33643,0.17969
	c-0.26904,0.0293-0.51758-0.17383-0.54443-0.44824c-0.02637-0.27344,0.1748-0.51709,0.44824-0.54395
	c0.01611-0.00146,0.03223-0.00244,0.04834-0.00244c0.25342,0,0.4707,0.19336,0.49561,0.45068
	C6.02142,17.58077,5.98187,17.71017,5.8974,17.8127z M22.8764,13.14278c-0.09424-0.09521-0.22217-0.14844-0.35547-0.14844h-0.49805
	l-0.00928-2.74463c-0.00049-0.10205-0.03174-0.20166-0.09033-0.28516c-1.18579-1.69592-3.95679-1.92987-5.18341-1.94714
	l0.32697-2.44495c0.01904-0.14307-0.02441-0.28711-0.11914-0.39551c-0.09521-0.10889-0.23242-0.1709-0.37646-0.1709H2.53607
	c-0.25879,0-0.4751,0.19775-0.49805,0.45557l-0.7002,7.87744c-0.01562,0.04883-0.02441,0.10107-0.02441,0.15527
	c0,0.02344,0.00146,0.04639,0.00488,0.06885l-0.34473,3.87695c-0.01221,0.14014,0.03467,0.27832,0.12939,0.38184
	s0.22852,0.1626,0.36865,0.1626h1.04297c0.27637,0,0.5-0.22363,0.5-0.5s-0.22363-0.5-0.5-0.5H2.018l0.26562-2.99023h13.21924
	c0.25049,0,0.4624-0.18555,0.49561-0.43359l0.60797-4.54584c1.02728,0.00171,2.8396,0.18018,3.93158,0.96381h-2.03711
	c-0.27637,0-0.5,0.22363-0.5,0.5v3.01562c0,0.27637,0.22363,0.5,0.5,0.5h3.02344h0.4917l-0.02979,2.99023H21.4931
	c-0.27637,0-0.5,0.22363-0.5,0.5s0.22363,0.5,0.5,0.5h0.98828c0.27441,0,0.49707-0.2207,0.5-0.49512l0.03955-3.99023
	C23.0224,13.36593,22.97015,13.23751,22.8764,13.14278z M15.06535,12.99434H2.3725l0.62109-6.98828h13.00635L15.06535,12.99434z
	 M19.00091,10.97872h2.01508l0.00671,2.01562h-2.02179V10.97872z M16.00287,17.48458c0,0.27637-0.22363,0.5-0.5,0.5h-2.99414
	c-0.27637,0-0.5-0.22363-0.5-0.5s0.22363-0.5,0.5-0.5h2.99414C15.77923,16.98458,16.00287,17.20821,16.00287,17.48458z"/>
</svg>
