<?xml version="1.0" encoding="utf-8"?>
<!-- Generator: Adobe Illustrator 22.0.1, SVG Export Plug-In . SVG Version: 6.00 Build 0)  -->
<svg version="1.1" id="Layer_1" xmlns="http://www.w3.org/2000/svg" xmlns:xlink="http://www.w3.org/1999/xlink" x="0px" y="0px"
	 viewBox="0 0 24 24" style="enable-background:new 0 0 24 24;" xml:space="preserve">
<style type="text/css">
	.st0{fill:#221A1C;}
	.st1{fill:#231F20;}
</style>
<path d="M7.50921,13.988c-1.38086,0-2.50439,1.12305-2.50439,2.50391s1.12354,2.50439,2.50439,2.50439
	s2.50391-1.12354,2.50391-2.50439S8.89007,13.988,7.50921,13.988z M7.50921,17.9963c-0.82959,0-1.50439-0.6748-1.50439-1.50439
	c0-0.8291,0.6748-1.50391,1.50439-1.50391c0.8291,0,1.50391,0.6748,1.50391,1.50391
	C9.01312,17.32149,8.33832,17.9963,7.50921,17.9963z M17.4931,13.988c-1.38086,0-2.50391,1.12305-2.50391,2.50391
	s1.12305,2.50439,2.50391,2.50439s2.50439-1.12354,2.50439-2.50439S18.87396,13.988,17.4931,13.988z M17.4931,17.9963
	c-0.8291,0-1.50391-0.6748-1.50391-1.50439c0-0.8291,0.6748-1.50391,1.50391-1.50391c0.82959,0,1.50439,0.6748,1.50439,1.50391
	C18.9975,17.32149,18.32269,17.9963,17.4931,17.9963z M22.80853,12.97188c-0.88525-0.62402-2.91113-0.89355-3.54297-0.96436
	l-5.37012-4.86084c-0.0918-0.0835-0.21143-0.12939-0.33545-0.12939h-1.66895l-0.8623-1.7373
	c-0.08447-0.17041-0.25781-0.27783-0.44777-0.27783H2.51849c-0.2583,0-0.47412,0.19678-0.49805,0.4541L1.00873,16.446
	c-0.0127,0.14014,0.03369,0.27881,0.12842,0.38281s0.229,0.16309,0.36963,0.16309h2.00586c0.27637,0,0.5-0.22363,0.5-0.5
	s-0.22363-0.5-0.5-0.5H2.05511l0.36829-4.00146h6.10095c0.27637,0,0.5-0.22363,0.5-0.5s-0.22363-0.5-0.5-0.5H2.51544
	l0.45911-4.98828h7.29639l0.8623,1.7373c0.08447,0.17041,0.25781,0.27783,0.44774,0.27783h1.78615l1.09241,0.98877h-1.58508
	c-0.25293,0-0.46582,0.18896-0.49658,0.43994l-0.36182,2.98145c-0.01709,0.14209,0.02734,0.28467,0.12256,0.3916
	c0.09473,0.10693,0.23096,0.16846,0.37402,0.16846h6.51154c0.84436,0.0835,2.28662,0.33093,2.99628,0.6792v2.35059H21.4931
	c-0.27637,0-0.5,0.22363-0.5,0.5s0.22363,0.5,0.5,0.5h1.02734c0.27637,0,0.5-0.22363,0.5-0.5v-3.13672
	C23.02044,13.21798,22.94134,13.06563,22.80853,12.97188z M13.31732,10.00606h2.22266c0.00708,0,0.01288-0.00372,0.0199-0.00403
	l2.19354,1.98547h-4.67633L13.31732,10.00606z M14.01556,16.49044c0,0.27637-0.22363,0.5-0.5,0.5h-1.99951
	c-0.27637,0-0.5-0.22363-0.5-0.5s0.22363-0.5,0.5-0.5h1.99951C13.79193,15.99044,14.01556,16.21407,14.01556,16.49044z"/>
</svg>
