<?xml version="1.0" encoding="utf-8"?>
<!-- Generator: Adobe Illustrator 22.0.1, SVG Export Plug-In . SVG Version: 6.00 Build 0)  -->
<svg version="1.1" id="Layer_1" xmlns="http://www.w3.org/2000/svg" xmlns:xlink="http://www.w3.org/1999/xlink" x="0px" y="0px"
	 viewBox="0 0 24 24" style="enable-background:new 0 0 24 24;" xml:space="preserve">
<style type="text/css">
	.st0{fill:#221A1C;}
	.st1{fill:#231F20;}
</style>
<path d="M6.49938,13.99483c-1.37793,0-2.49902,1.12109-2.49902,2.49951s1.12109,2.49951,2.49902,2.49951
	c1.37842,0,2.49951-1.12109,2.49951-2.49951S7.8778,13.99483,6.49938,13.99483z M6.49938,17.99386
	c-0.82666,0-1.49902-0.67285-1.49902-1.49951s0.67236-1.49951,1.49902-1.49951s1.49951,0.67285,1.49951,1.49951
	S7.32604,17.99386,6.49938,17.99386z M18.49352,13.99483c-1.37842,0-2.49951,1.12109-2.49951,2.49951
	s1.12109,2.49951,2.49951,2.49951s2.49951-1.12109,2.49951-2.49951S19.87194,13.99483,18.49352,13.99483z M18.49352,17.99386
	c-0.82666,0-1.49951-0.67285-1.49951-1.49951s0.67285-1.49951,1.49951-1.49951s1.49951,0.67285,1.49951,1.49951
	S19.32018,17.99386,18.49352,17.99386z M22.19323,9.97921c-1.01514-1.00098-2.61426-0.99902-2.67139-0.98877h-1.72058
	l-2.7887-3.78467c-0.09424-0.12793-0.24365-0.20361-0.40234-0.20361H6.6068c-0.20557,0-0.39014,0.12598-0.46533,0.31689
	l-1.44629,3.6792H2.432c-0.25049,0-0.4624,0.18555-0.49561,0.43408l-0.93115,6.99609
	C0.9862,16.571,1.02965,16.71554,1.12487,16.82393c0.09473,0.1084,0.23193,0.17041,0.37598,0.17041h1.01758
	c0.27637,0,0.5-0.22363,0.5-0.5s-0.22363-0.5-0.5-0.5H2.07165l0.79834-5.99609H5.036c0.20557,0,0.39014-0.12598,0.46533-0.31689
	l1.44629-3.6792h4.26184l2.25623,2.98828h-4.9668c-0.27637,0-0.5,0.22363-0.5,0.5s0.22363,0.5,0.5,0.5h11.02979
	c0.00391,0.00146,1.25439,0.00244,1.96191,0.70068c0.34229,0.3374,0.5083,0.78076,0.5083,1.35547V15.467
	c0,0.27637,0.22363,0.5,0.5,0.5s0.5-0.22363,0.5-0.5v-3.42041C22.99889,11.20235,22.7279,10.50655,22.19323,9.97921z
	 M12.46227,6.00216h1.89551l2.20197,2.98828H14.7185L12.46227,6.00216z M15.01842,16.49434c0,0.27637-0.22363,0.5-0.5,0.5h-4.00195
	c-0.27637,0-0.5-0.22363-0.5-0.5s0.22363-0.5,0.5-0.5h4.00195C14.79479,15.99434,15.01842,16.21798,15.01842,16.49434z"/>
</svg>
