<?xml version="1.0" encoding="utf-8"?>
<!-- Generator: Adobe Illustrator 22.0.1, SVG Export Plug-In . SVG Version: 6.00 Build 0)  -->
<svg version="1.1" id="Layer_1" xmlns="http://www.w3.org/2000/svg" xmlns:xlink="http://www.w3.org/1999/xlink" x="0px" y="0px"
	 viewBox="0 0 24 24" style="enable-background:new 0 0 24 24;" xml:space="preserve">
<style type="text/css">
	.st0{fill:#221A1C;}
	.st1{fill:#231F20;}
</style>
<path d="M19.00273,11.48604c-0.22559,0-0.4433,0.03058-0.65881,0.06659l-2.23767-4.43622l1.76758-1.76172
	c0.14355-0.14258,0.18652-0.35791,0.10938-0.54492s-0.25977-0.30908-0.46191-0.30908h-3.01562c-0.27637,0-0.5,0.22363-0.5,0.5
	s0.22363,0.5,0.5,0.5h1.80566l-1.16699,1.16357c-0.15332,0.15234-0.19141,0.38623-0.09375,0.5791l0.70081,1.38928l-4.20959,3.63513
	L9.46574,9.51632h1.05554c0.27637,0,0.5-0.22363,0.5-0.5s-0.22363-0.5-0.5-0.5H6.49687c-0.27637,0-0.5,0.22363-0.5,0.5
	s0.22363,0.5,0.5,0.5h0.79706l-1.30389,2.10938c-0.31946-0.08228-0.64844-0.13965-0.99316-0.13965
	c-2.20898,0-4.00635,1.79736-4.00635,4.00635c0,2.20947,1.79736,4.00684,4.00635,4.00684s4.00684-1.79736,4.00684-4.00684
	c0-1.50403-0.84326-2.80145-2.07245-3.48645l1.42285-2.3017l2.71112,3.59235c0.08398,0.11035,0.20898,0.18115,0.34668,0.1958
	c0.01758,0.00195,0.03516,0.00293,0.05273,0.00293c0.11914,0,0.23535-0.04297,0.32715-0.12158l4.42401-3.82031l1.15436,2.28851
	c-1.39587,0.62701-2.37427,2.02399-2.37427,3.65045c0,2.20947,1.79785,4.00684,4.00684,4.00684s4.00684-1.79736,4.00684-4.00684
	C23.00957,13.28341,21.21171,11.48604,19.00273,11.48604z M8.00371,15.49239c0,1.6582-1.34863,3.00684-3.00684,3.00684
	c-1.65723,0-3.00635-1.34863-3.00635-3.00684c0-1.65771,1.34912-3.00635,3.00635-3.00635c0.14868,0,0.29126,0.02295,0.4342,0.04388
	l-1.35413,2.19049c-0.14453,0.23486-0.07227,0.54297,0.16309,0.68799c0.08203,0.05078,0.17285,0.07471,0.2627,0.07471
	c0.16699,0,0.33105-0.08398,0.42578-0.2373l1.47876-2.39215C7.35234,13.36098,8.00371,14.34688,8.00371,15.49239z
	 M19.00273,18.49923c-1.6582,0-3.00684-1.34863-3.00684-3.00684c0-1.23724,0.75208-2.30096,1.82263-2.76166l1.24963,2.47748
	c0.08789,0.17432,0.26367,0.2749,0.44629,0.2749c0.07617,0,0.15332-0.01709,0.22559-0.05371
	c0.24609-0.12402,0.34473-0.4248,0.2207-0.67139l-1.1369-2.25391c0.06036-0.0036,0.11761-0.01807,0.17889-0.01807
	c1.6582,0,3.00684,1.34863,3.00684,3.00635C22.00957,17.15059,20.66093,18.49923,19.00273,18.49923z"/>
</svg>
