<?xml version="1.0" encoding="utf-8"?>
<!-- Generator: Adobe Illustrator 22.0.1, SVG Export Plug-In . SVG Version: 6.00 Build 0)  -->
<svg version="1.1" id="Layer_1" xmlns="http://www.w3.org/2000/svg" xmlns:xlink="http://www.w3.org/1999/xlink" x="0px" y="0px"
	 viewBox="0 0 24 24" style="enable-background:new 0 0 24 24;" xml:space="preserve">
<style type="text/css">
	.st0{fill:#221A1C;}
	.st1{fill:#231F20;}
</style>
<path d="M9.01379,6.00118c1.10596,0,2.00586-0.8999,2.00586-2.00586c0-1.10645-0.8999-2.00635-2.00586-2.00635
	c-1.10645,0-2.00635,0.8999-2.00635,2.00635C7.00745,5.10128,7.90735,6.00118,9.01379,6.00118z M9.01379,2.98897
	c0.55469,0,1.00586,0.45166,1.00586,1.00635S9.56848,5.00118,9.01379,5.00118S8.00745,4.55001,8.00745,3.99532
	S8.45911,2.98897,9.01379,2.98897z M14.98059,11.64034c-0.0835,0.2627-0.3623,0.40967-0.62695,0.32715l-2.99463-0.94141
	c-0.13525-0.04248-0.24609-0.14062-0.30518-0.26953L9.90442,8.23702L6.95007,8.00014l-1.08905,4.63068l2.70068,0.28778
	l0.45111-2.51654c0.04883-0.27148,0.30664-0.45654,0.58057-0.40381c0.27148,0.04883,0.45264,0.30859,0.40381,0.58057
	l-0.49451,2.75854l2.22693,2.93481c0.03613,0.04785,0.06348,0.10156,0.08057,0.15918l1.17188,3.9248
	c0.0791,0.26465-0.07129,0.54297-0.33594,0.62207c-0.04785,0.01416-0.0957,0.021-0.14307,0.021
	c-0.21533,0-0.41455-0.14014-0.479-0.35693l-1.146-3.83789l-2.17383-2.86523l-3.07385-0.32751l-1.6405,6.97546
	c-0.0542,0.23047-0.25977,0.38574-0.48633,0.38574c-0.03809,0-0.07666-0.00439-0.11475-0.01318
	c-0.26904-0.06348-0.43555-0.33252-0.37256-0.60107l1.70874-7.26575c-0.00165-0.02747-0.01056-0.05316-0.00757-0.08142
	c0.00824-0.07843,0.03735-0.14807,0.07635-0.211l1.02191-4.34521L3.86633,9.71554l-0.87891,2.90771
	c-0.06494,0.21631-0.26367,0.35547-0.47852,0.35547c-0.04785,0-0.09619-0.00684-0.14453-0.02148
	c-0.26465-0.07959-0.41406-0.35889-0.33398-0.62305l0.93164-3.0835C2.99621,9.13741,3.06946,9.03975,3.16907,8.9753l2.99756-1.9375
	c0.0918-0.05957,0.2002-0.08447,0.31152-0.07861l3.79932,0.3042c0.18066,0.01465,0.33936,0.12598,0.41504,0.29102l1.17871,2.58447
	l2.78223,0.87451C14.91711,11.0964,15.06311,11.37716,14.98059,11.64034z M21.90143,3.95888
	c-0.00238-0.00635-0.00122-0.01294-0.00385-0.01923c-0.00391-0.0094-0.01202-0.01514-0.01642-0.02417
	c-0.02368-0.04388-0.05145-0.08368-0.08282-0.12213c-0.00708-0.00751-0.01251-0.01611-0.02002-0.02313
	c-0.0705-0.0799-0.15149-0.15015-0.24988-0.19434l-3.23926-1.51807c-0.2041-0.09229-0.43945-0.0918-0.6416,0.00146L14.422,3.54024
	c-0.07617,0.03418-0.146,0.08154-0.26074,0.1958c-0.04639,0.05176-0.08594,0.11084-0.14697,0.24219
	c-0.03271,0.08643-0.05078,0.17529-0.05322,0.27734v4.4126c0,0.30127,0.17529,0.57959,0.44678,0.70947l3.22022,1.5332
	c0.02686,0.01318,0.05664,0.0249,0.08691,0.03369c0.08252,0.0293,0.16797,0.04492,0.26221,0.0459
	c0.09033-0.00146,0.18262-0.02002,0.24658-0.0459c0.02588-0.00732,0.05127-0.0166,0.07422-0.02734l3.23535-1.49561
	c0.27246-0.12842,0.44873-0.40723,0.44873-0.70996v-4.4126c0-0.00195,0-0.00439,0-0.00684c0-0.00195,0-0.00439,0-0.00684
	c0-0.00195,0-0.00439,0-0.00635C21.98059,4.165,21.94769,4.05843,21.90143,3.95888z M17.96936,3.01192l2.28717,1.07202
	l-2.5993,1.08765c-0.00616-0.00299-0.00818-0.0094-0.01453-0.01221l-2.05432-1.0542L17.96936,3.01192z M14.96106,4.90725
	l2.03223,1.04218v3.55164l-2.03223-0.96765V4.90725z M17.99298,9.95815l-0.00586-3.84033l2.99493-1.25317v3.70978L17.99298,9.95815z
	"/>
</svg>
