<?xml version="1.0" encoding="utf-8"?>
<!-- Generator: Adobe Illustrator 22.0.1, SVG Export Plug-In . SVG Version: 6.00 Build 0)  -->
<svg version="1.1" id="Layer_1" xmlns="http://www.w3.org/2000/svg" xmlns:xlink="http://www.w3.org/1999/xlink" x="0px" y="0px"
	 viewBox="0 0 24 24" style="enable-background:new 0 0 24 24;" xml:space="preserve">
<style type="text/css">
	.st0{fill:#221A1C;}
	.st1{fill:#231F20;}
</style>
<path d="M21.59648,11.02022l-8.63867-8.63916c-0.5293-0.52734-1.38672-0.52686-1.91602,0.00049l-8.63867,8.63867
	c-0.52832,0.52832-0.52832,1.38721,0,1.91553l8.63867,8.63916c0.26465,0.26367,0.61133,0.39551,0.95801,0.39551
	s0.69336-0.13232,0.95801-0.396l8.63867-8.63867C22.12382,12.40743,22.12382,11.54854,21.59648,11.02022z M20.88945,12.22872
	l-8.63867,8.63818c-0.13867,0.13867-0.36328,0.13818-0.50195,0.00049l-8.63867-8.63867c-0.13818-0.13818-0.13818-0.36328,0-0.50146
	l8.63867-8.63818c0.06934-0.06934,0.16016-0.104,0.25098-0.104s0.18164,0.03467,0.25098,0.10352l8.63867,8.63867
	C21.02714,11.86544,21.02714,12.09054,20.88945,12.22872z M15.82695,11.04366c0.26367,0.34766,0.21191,0.74316-0.0625,0.96387
	l-1.91406,1.83252c-0.09668,0.09277-0.22168,0.13867-0.3457,0.13867c-0.13184,0-0.26367-0.05176-0.36133-0.1543
	c-0.19141-0.19971-0.18359-0.51611,0.01562-0.70703l1.16718-1.11523H8.99882v2.48828c0,0.27637-0.22363,0.5-0.5,0.5
	s-0.5-0.22363-0.5-0.5v-2.98828c0-0.27637,0.22363-0.5,0.5-0.5h5.85077l-1.19257-1.14404
	c-0.19824-0.19189-0.2041-0.5083-0.01172-0.70703c0.19238-0.19824,0.50684-0.2041,0.70703-0.0127L15.82695,11.04366z"/>
</svg>
