<?xml version="1.0" encoding="utf-8"?>
<!-- Generator: Adobe Illustrator 22.0.1, SVG Export Plug-In . SVG Version: 6.00 Build 0)  -->
<svg version="1.1" id="Layer_1" xmlns="http://www.w3.org/2000/svg" xmlns:xlink="http://www.w3.org/1999/xlink" x="0px" y="0px"
	 viewBox="0 0 24 24" style="enable-background:new 0 0 24 24;" xml:space="preserve">
<style type="text/css">
	.st0{fill:#221A1C;}
	.st1{fill:#231F20;}
</style>
<path class="st1" d="M10.84777,15.13626c0.19727,0.19336,0.2002,0.50977,0.00684,0.70703l-3.88184,3.95752
	c-0.14502,0.13818-0.32568,0.20654-0.50488,0.20654c-0.17676,0-0.35205-0.06689-0.48828-0.19922l-3.83643-3.96729
	c-0.19189-0.19873-0.18652-0.51514,0.01172-0.70703c0.19922-0.19141,0.51562-0.18652,0.70703,0.01172l3.14111,3.24854v-14.396
	h0.99512V18.3472l3.14258-3.2041C10.33361,14.94583,10.6505,14.94241,10.84777,15.13626z M15.99767,3.99661h-2.99561v0.99512
	h2.99561V3.99661z M17.99914,8.99857h-4.99707v0.99512h4.99707V8.99857z M19.99914,14.00003h-6.99902v0.99512h6.99902V14.00003z
	 M13.00206,19.00052v0.99512h8.99854v-0.99512H13.00206z"/>
</svg>
