<?xml version="1.0" encoding="utf-8"?>
<!-- Generator: Adobe Illustrator 22.0.1, SVG Export Plug-In . SVG Version: 6.00 Build 0)  -->
<svg version="1.1" id="Layer_1" xmlns="http://www.w3.org/2000/svg" xmlns:xlink="http://www.w3.org/1999/xlink" x="0px" y="0px"
	 viewBox="0 0 24 24" style="enable-background:new 0 0 24 24;" xml:space="preserve">
<style type="text/css">
	.st0{fill:#221A1C;}
	.st1{fill:#231F20;}
	.st2{fill:none;}
</style>
<g>
	<path d="M11.50523,1.9963c-0.27637,0-0.5,0.22363-0.5,0.5v2.5h-7v-2.5c0-0.27637-0.22363-0.5-0.5-0.5s-0.5,0.22363-0.5,0.5v19
		c0,0.27637,0.22363,0.5,0.5,0.5s0.5-0.22363,0.5-0.5v-3.5h7v3.5c0,0.27637,0.22363,0.5,0.5,0.5s0.5-0.22363,0.5-0.5v-19
		C12.00523,2.21993,11.78159,1.9963,11.50523,1.9963z M4.00523,9.9963h7v3h-7V9.9963z M11.00523,5.9963v3h-7v-3H11.00523z
		 M4.00523,16.9963v-3h7v3H4.00523z"/>
	<path d="M20.85972,8.63888l-2.9043-2.97412c-0.25488-0.24365-0.6543-0.24365-0.9209,0.0127l-2.8877,2.96973
		c-0.19238,0.19824-0.18848,0.51465,0.00977,0.70703c0.09766,0.09473,0.22266,0.1416,0.34863,0.1416
		c0.12988,0,0.26074-0.05078,0.3584-0.15137l2.13965-2.20105V18.9963h0.99414V7.13888l2.14746,2.19824
		c0.19238,0.19824,0.50879,0.20166,0.70703,0.00879C21.04917,9.15255,21.05308,8.83614,20.85972,8.63888z"/>
</g>
</svg>
