<?xml version="1.0" encoding="utf-8"?>
<!-- Generator: Adobe Illustrator 22.0.1, SVG Export Plug-In . SVG Version: 6.00 Build 0)  -->
<svg version="1.1" id="Layer_1" xmlns="http://www.w3.org/2000/svg" xmlns:xlink="http://www.w3.org/1999/xlink" x="0px" y="0px"
	 viewBox="0 0 24 24" style="enable-background:new 0 0 24 24;" xml:space="preserve">
<style type="text/css">
	.st0{fill:#221A1C;}
	.st1{fill:#231F20;}
</style>
<g>
	<path d="M5.99546,12.47872c0-0.27637-0.22363-0.5-0.5-0.5h-3.0127c-0.27637,0-0.5,0.22363-0.5,0.5s0.22363,0.5,0.5,0.5h3.0127
		C5.77183,12.97872,5.99546,12.75509,5.99546,12.47872z"/>
	<path d="M10.1273,10.85274c0.09766,0.09814,0.22656,0.14697,0.35449,0.14697s0.25586-0.04883,0.35254-0.146
		c0.19629-0.19482,0.19629-0.51123,0.00195-0.70703L5.848,5.14278C5.65269,4.94649,5.33433,4.94747,5.14097,5.14181
		C4.94468,5.33663,4.94468,5.65304,5.13902,5.84884L10.1273,10.85274z"/>
	<path d="M12.49448,17.98458c-0.27637,0-0.5,0.22363-0.5,0.5v3.00586c0,0.27637,0.22363,0.5,0.5,0.5s0.5-0.22363,0.5-0.5v-3.00586
		C12.99448,18.20821,12.77085,17.98458,12.49448,17.98458z"/>
	<path d="M10.13511,13.14229L5.14683,18.1462c-0.19434,0.1958-0.19434,0.51221,0.00195,0.70703
		c0.09668,0.09717,0.22461,0.146,0.35254,0.146s0.25684-0.04883,0.35449-0.14697l4.98828-5.00391
		c0.19434-0.1958,0.19434-0.51221-0.00195-0.70703C10.64878,12.94698,10.33042,12.946,10.13511,13.14229z"/>
	<path d="M12.49448,1.99825c-0.27637,0-0.5,0.22363-0.5,0.5v2.99609c0,0.27637,0.22363,0.5,0.5,0.5s0.5-0.22363,0.5-0.5V2.49825
		C12.99448,2.22188,12.77085,1.99825,12.49448,1.99825z"/>
	<path d="M13.86558,13.13985c-0.19531-0.19629-0.51367-0.19531-0.70703-0.00098c-0.19629,0.19482-0.19629,0.51123-0.00195,0.70703
		l4.98828,5.00391c0.09766,0.09814,0.22656,0.14697,0.35449,0.14697s0.25586-0.04883,0.35254-0.146
		c0.19629-0.19482,0.19629-0.51123,0.00195-0.70703L13.86558,13.13985z"/>
	<path d="M21.51792,11.97872h-3.03223c-0.27637,0-0.5,0.22363-0.5,0.5s0.22363,0.5,0.5,0.5h3.03223c0.27637,0,0.5-0.22363,0.5-0.5
		S21.79429,11.97872,21.51792,11.97872z"/>
	<path d="M13.50327,11.00216c0.12793,0,0.25684-0.04883,0.35449-0.14697l4.98828-5.00391
		c0.19434-0.1958,0.19434-0.51221-0.00195-0.70703c-0.19336-0.19434-0.51172-0.19531-0.70703,0.00098l-4.98828,5.00391
		c-0.19434,0.1958-0.19434,0.51221,0.00195,0.70703C13.24741,10.95333,13.37534,11.00216,13.50327,11.00216z"/>
</g>
</svg>
