<?xml version="1.0" encoding="utf-8"?>
<!-- Generator: Adobe Illustrator 22.0.1, SVG Export Plug-In . SVG Version: 6.00 Build 0)  -->
<svg version="1.1" id="Layer_1" xmlns="http://www.w3.org/2000/svg" xmlns:xlink="http://www.w3.org/1999/xlink" x="0px" y="0px"
	 viewBox="0 0 24 24" style="enable-background:new 0 0 24 24;" xml:space="preserve">
<style type="text/css">
	.st0{fill:#221A1C;}
	.st1{fill:#231F20;}
</style>
<g>
	<path d="M20.51133,1.99808H3.49571c-0.27637,0-0.5,0.22363-0.5,0.5v4.00098c0,0.27637,0.22363,0.5,0.5,0.5h17.01562
		c0.27637,0,0.5-0.22363,0.5-0.5V2.49808C21.01133,2.22171,20.7877,1.99808,20.51133,1.99808z M20.01133,5.99905H3.99571V2.99808
		h16.01562V5.99905z"/>
	<path d="M20.49571,9.00198H3.4918c-0.27637,0-0.5,0.22363-0.5,0.5v11.99658c0,0.27637,0.22363,0.5,0.5,0.5h17.00391
		c0.27637,0,0.5-0.22363,0.5-0.5V9.50198C20.99571,9.22562,20.77207,9.00198,20.49571,9.00198z M13.98008,10.00198v10.99658
		h-3.97656V10.00198H13.98008z M3.9918,10.00198h5.01172v10.99658H3.9918V10.00198z M19.99571,20.99857h-5.01563V10.00198h5.01563
		V20.99857z"/>
</g>
</svg>
