<?xml version="1.0" encoding="utf-8"?>
<!-- Generator: Adobe Illustrator 22.0.1, SVG Export Plug-In . SVG Version: 6.00 Build 0)  -->
<svg version="1.1" id="Layer_1" xmlns="http://www.w3.org/2000/svg" xmlns:xlink="http://www.w3.org/1999/xlink" x="0px" y="0px"
	 viewBox="0 0 24 24" style="enable-background:new 0 0 24 24;" xml:space="preserve">
<style type="text/css">
	.st0{fill:#221A1C;}
	.st1{fill:#231F20;}
</style>
<path d="M12.00034,5.96602c-3.32324,0-6.02637,2.70312-6.02637,6.02588s2.70312,6.02588,6.02637,6.02588
	c3.32227,0,6.02539-2.70312,6.02539-6.02588S15.32261,5.96602,12.00034,5.96602z M12.00034,17.01778
	c-2.77148,0-5.02637-2.25439-5.02637-5.02588s2.25488-5.02588,5.02637-5.02588s5.02539,2.25439,5.02539,5.02588
	S14.77183,17.01778,12.00034,17.01778z M11.00327,3.50216V2.47872c0-0.27637,0.22363-0.5,0.5-0.5s0.5,0.22363,0.5,0.5v1.02344
	c0,0.27637-0.22363,0.5-0.5,0.5S11.00327,3.77852,11.00327,3.50216z M12.99937,20.49434v1.00391c0,0.27637-0.22363,0.5-0.5,0.5
	s-0.5-0.22363-0.5-0.5v-1.00391c0-0.27637,0.22363-0.5,0.5-0.5S12.99937,20.21798,12.99937,20.49434z M3.99155,12.50216
	c0,0.27637-0.22363,0.5-0.5,0.5H2.49448c-0.27637,0-0.5-0.22363-0.5-0.5s0.22363-0.5,0.5-0.5h0.99707
	C3.76792,12.00216,3.99155,12.22579,3.99155,12.50216z M21.99253,11.50216c0,0.27637-0.22363,0.5-0.5,0.5h-1.00098
	c-0.27637,0-0.5-0.22363-0.5-0.5s0.22363-0.5,0.5-0.5h1.00098C21.7689,11.00216,21.99253,11.22579,21.99253,11.50216z
	 M17.65562,6.36104c-0.19336-0.19727-0.18945-0.51367,0.00781-0.70703l0.75195-0.73633
	c0.19629-0.19336,0.51465-0.18896,0.70703,0.00781c0.19336,0.19727,0.18945,0.51367-0.00781,0.70703l-0.75195,0.73633
	c-0.09668,0.09521-0.22363,0.14258-0.34961,0.14258C17.88316,6.51143,17.75327,6.46114,17.65562,6.36104z M19.32652,18.03585
	c0.19727,0.19336,0.20117,0.50977,0.00781,0.70703c-0.09863,0.09961-0.22754,0.1499-0.35742,0.1499
	c-0.12598,0-0.25293-0.04736-0.34961-0.14307l-0.75098-0.73633c-0.19727-0.19336-0.20117-0.50977-0.00781-0.70703
	c0.19531-0.1958,0.51172-0.20068,0.70703-0.00684L19.32652,18.03585z M5.49448,6.48116L4.74253,5.74483
	C4.54527,5.55147,4.54136,5.23507,4.73472,5.0378C4.9271,4.84102,5.24546,4.83712,5.44175,5.02999L6.1937,5.76632
	c0.19727,0.19336,0.20117,0.50977,0.00781,0.70703c-0.09766,0.1001-0.22754,0.15039-0.35742,0.15039
	C5.71812,6.62374,5.59116,6.57638,5.49448,6.48116z M6.43882,17.61397c0.19336,0.19727,0.18945,0.51367-0.00781,0.70703
	l-0.75195,0.73633c-0.09668,0.09521-0.22363,0.14258-0.34961,0.14258c-0.12988,0-0.25977-0.05029-0.35742-0.15039
	c-0.19336-0.19727-0.18945-0.51367,0.00781-0.70703l0.75195-0.73633C5.92808,17.41329,6.24644,17.41768,6.43882,17.61397z"/>
</svg>
