<?xml version="1.0" encoding="utf-8"?>
<!-- Generator: Adobe Illustrator 22.0.1, SVG Export Plug-In . SVG Version: 6.00 Build 0)  -->
<svg version="1.1" id="Layer_1" xmlns="http://www.w3.org/2000/svg" xmlns:xlink="http://www.w3.org/1999/xlink" x="0px" y="0px"
	 viewBox="0 0 24 24" style="enable-background:new 0 0 24 24;" xml:space="preserve">
<style type="text/css">
	.st0{fill:#221A1C;}
	.st1{fill:#231F20;}
</style>
<path d="M20.84409,6.9045l-5.02246-4.77051c-0.09277-0.08838-0.21582-0.1377-0.34375-0.1377L3.50132,1.97774H3.50034
	c-0.13281,0-0.25977,0.05273-0.35352,0.146c-0.09375,0.09375-0.14648,0.22119-0.14648,0.354V21.4836
	c0,0.20215,0.12109,0.38428,0.30762,0.46143c0.18848,0.07812,0.40137,0.03564,0.54492-0.10693l1.64648-1.63574l1.67676,1.66602
	c0.18262,0.18066,0.47168,0.19482,0.6709,0.03076l2.09473-1.73047l1.70801,1.67871c0.18164,0.17773,0.46777,0.19287,0.66406,0.0332
	l2.12988-1.71387l1.69434,1.68945c0.19336,0.19238,0.50781,0.19482,0.70312,0.00342l1.69531-1.65869l1.60352,1.66016
	c0.0957,0.09961,0.22656,0.15283,0.35938,0.15283c0.06348,0,0.12695-0.01172,0.1875-0.03662
	c0.18848-0.07617,0.3125-0.25977,0.3125-0.46338V7.26681C20.99937,7.1296,20.94273,6.99874,20.84409,6.9045z M15.99741,3.68038
	l3.49097,3.31592h-3.49097V3.68038z M18.90562,19.14425c-0.0918-0.09619-0.21875-0.15088-0.35254-0.15283
	c-0.13379,0.02441-0.26172,0.0498-0.35645,0.14258l-1.70215,1.66553l-1.66113-1.65723
	c-0.18164-0.18018-0.46875-0.19531-0.66699-0.03564l-2.13281,1.71582l-1.71191-1.68262
	c-0.18164-0.17871-0.4707-0.19141-0.66895-0.02881l-2.0928,1.72852l-1.70798-1.69629
	c-0.09766-0.09717-0.22461-0.14551-0.35254-0.14551c-0.12695,0-0.25488,0.04834-0.35254,0.14551l-1.14648,1.13867V2.97872
	l10.99707,0.01666V7.4963c0,0.27637,0.22363,0.5,0.5,0.5h4.50195v12.28027L18.90562,19.14425z M13.9105,11.90304
	c0.15039,0.29248,0.22656,0.63477,0.22656,1.01709c0,0.61523-0.19043,1.12305-0.56836,1.50879
	c-0.33105,0.33984-0.90332,0.57812-1.58105,0.65869v1.91699h-0.98242v-1.91748c-0.63184-0.07812-1.13672-0.32129-1.50293-0.72314
	c-0.39258-0.42041-0.58301-0.98096-0.58301-1.71338v-0.1001h1.16992v0.1001c0,0.46191,0.12109,0.81592,0.35742,1.05322
	c0.23633,0.24365,0.57812,0.3667,1.01855,0.3667c0.47656,0,0.91016-0.11816,1.13086-0.30859
	c0.24707-0.20557,0.36133-0.46973,0.36133-0.83252c0-0.2998-0.09961-0.54395-0.30371-0.74756
	c-0.23828-0.2207-0.81055-0.43115-1.2207-0.56982c-0.93359-0.28906-1.53906-0.5918-1.84863-0.92627
	C9.22691,10.30929,9.04527,9.8171,9.04527,9.22384c0-0.59766,0.17773-1.09814,0.52832-1.48828
	c0.31445-0.34814,0.81836-0.58691,1.4248-0.67676V4.99532h0.99121v2.07373c0.625,0.10303,1.1377,0.37158,1.45117,0.76123
	c0.34277,0.43799,0.5166,1.03076,0.5166,1.76221v0.1001h-1.1709v-0.1001c0-0.47168-0.11035-0.84668-0.3291-1.11523
	c-0.22168-0.27148-0.50879-0.40381-0.875-0.40381c-0.45215,0-0.87988,0.11865-1.06445,0.2959
	c-0.19336,0.19385-0.29297,0.47607-0.29297,0.83643c0,0.32812,0.10449,0.5835,0.31836,0.78076
	c0.21094,0.20215,0.77734,0.39404,1.27734,0.56348c0.50977,0.16113,1.0752,0.35791,1.39355,0.58936
	C13.52671,11.35079,13.75523,11.60128,13.9105,11.90304z"/>
</svg>
