<?xml version="1.0" encoding="utf-8"?>
<!-- Generator: Adobe Illustrator 22.0.1, SVG Export Plug-In . SVG Version: 6.00 Build 0)  -->
<svg version="1.1" id="Layer_1" xmlns="http://www.w3.org/2000/svg" xmlns:xlink="http://www.w3.org/1999/xlink" x="0px" y="0px"
	 viewBox="0 0 24 24" style="enable-background:new 0 0 24 24;" xml:space="preserve">
<style type="text/css">
	.st0{fill:#221A1C;}
	.st1{fill:#231F20;}
</style>
<path d="M18.71268,7.99526l1.2818-1.2973l-0.71094-0.70312l-1.27673,1.29218c-1.40546-1.26465-3.1402-2.04675-5.00647-2.2514V2.9963
	h1.99512v-1H8.99741v1h2.00293v2.0401c-2.02338,0.22314-3.89807,1.11481-5.3584,2.57513
	c-1.69922,1.69922-2.63477,3.9585-2.63477,6.36182c0,2.40283,0.93555,4.66211,2.63477,6.36133s3.95801,2.63477,6.36133,2.63477
	c2.40234,0,4.66211-0.93555,6.36133-2.63477s2.63477-3.9585,2.63477-6.36133C20.99937,11.74398,20.18546,9.64467,18.71268,7.99526z
	 M17.65757,19.62765c-1.51074,1.51025-3.51855,2.3418-5.6543,2.3418c-2.13672,0-4.14453-0.83154-5.6543-2.3418
	c-1.51074-1.51025-2.3418-3.51855-2.3418-5.6543c0-2.13623,0.83105-4.14404,2.3418-5.65479
	c1.50977-1.51025,3.51758-2.3418,5.6543-2.3418c2.13574,0,4.14355,0.83154,5.6543,2.3418
	c1.51074,1.51074,2.3418,3.51855,2.3418,5.65479C19.99937,16.10909,19.16831,18.11739,17.65757,19.62765z M12.99961,14.00496
	c0,0.55206-0.44757,0.99963-0.99963,0.99963s-0.99957-0.44757-0.99957-0.99963s0.44751-0.99957,0.99957-0.99957
	S12.99961,13.4529,12.99961,14.00496z"/>
</svg>
