<?xml version="1.0" encoding="utf-8"?>
<!-- Generator: Adobe Illustrator 22.0.1, SVG Export Plug-In . SVG Version: 6.00 Build 0)  -->
<svg version="1.1" id="Layer_1" xmlns="http://www.w3.org/2000/svg" xmlns:xlink="http://www.w3.org/1999/xlink" x="0px" y="0px"
	 viewBox="0 0 24 24" style="enable-background:new 0 0 24 24;" xml:space="preserve">
<style type="text/css">
	.st0{fill:#221A1C;}
	.st1{fill:#231F20;}
</style>
<path d="M9.54584,4.99026h9.98633c0.27637,0,0.5,0.22363,0.5,0.5s-0.22363,0.5-0.5,0.5H9.54584c-0.27637,0-0.5-0.22363-0.5-0.5
	S9.26947,4.99026,9.54584,4.99026z M9.52826,3.99612c0.27637,0,0.5-0.22363,0.5-0.5v-0.5127l4.00586-0.00586v0.53418
	c0,0.27637,0.22363,0.5,0.5,0.5s0.5-0.22363,0.5-0.5V2.47708c0-0.13281-0.05273-0.26025-0.14648-0.354
	c-0.09375-0.09326-0.2207-0.146-0.35352-0.146h-0.00098L9.52728,1.98441c-0.27539,0.00049-0.49902,0.22412-0.49902,0.5v1.01172
	C9.02826,3.77249,9.25189,3.99612,9.52826,3.99612z M18.03705,8.40628l-0.97461,4.98828
	c-0.05273,0.271,0.12402,0.53369,0.39551,0.58643c0.03223,0.00635,0.06445,0.00928,0.09668,0.00928
	c0.23438,0,0.44336-0.16553,0.49023-0.4043l0.97461-4.98828c0.05273-0.271-0.12402-0.53369-0.39551-0.58643
	C18.35541,7.95706,18.08978,8.1348,18.03705,8.40628z M14.02826,8.47855v1.99951c0,0.27637,0.22363,0.5,0.5,0.5s0.5-0.22363,0.5-0.5
	V8.47855c0-0.27637-0.22363-0.5-0.5-0.5S14.02826,8.20218,14.02826,8.47855z M20.87005,20.16116L3.87494,3.12161
	C3.67767,2.92532,3.36224,2.9263,3.16693,3.12064c-0.19533,0.19482-0.19533,0.51172,0,0.70703l5.83411,5.84937l1.0321,8.87671
	c0.03027,0.25488,0.24609,0.44238,0.49609,0.44238c0.01953,0,0.03906-0.00098,0.05859-0.00342
	c0.27441-0.03174,0.4707-0.28027,0.43945-0.5542l-0.88574-7.61798l3.32886,3.33752l-0.43628,4.28729
	c-0.02832,0.2749,0.17188,0.52002,0.44629,0.54834c0.01758,0.00146,0.03418,0.00244,0.05176,0.00244
	c0.25293,0,0.4707-0.19189,0.49609-0.44922l0.35364-3.47498l2.22382,2.22968l-0.57941,3.67352H7.96283L6.03412,8.42581
	C5.99213,8.15286,5.74603,7.96927,5.4638,8.00784C5.19134,8.04984,5.00384,8.30521,5.04584,8.57816L7.03998,21.5513
	c0.03711,0.24365,0.24707,0.42383,0.49414,0.42383h8.91992c0.24609,0,0.45605-0.1792,0.49414-0.42188l0.5321-3.37482
	l2.68176,2.68878c0.09863,0.09814,0.22656,0.14697,0.35449,0.14697s0.25586-0.04883,0.35352-0.146
	C21.06537,20.67337,21.06537,20.35648,20.87005,20.16116z"/>
</svg>
