<?xml version="1.0" encoding="utf-8"?>
<!-- Generator: Adobe Illustrator 22.0.1, SVG Export Plug-In . SVG Version: 6.00 Build 0)  -->
<svg version="1.1" id="Layer_1" xmlns="http://www.w3.org/2000/svg" xmlns:xlink="http://www.w3.org/1999/xlink" x="0px" y="0px"
	 viewBox="0 0 24 24" style="enable-background:new 0 0 24 24;" xml:space="preserve">
<style type="text/css">
	.st0{fill:#221A1C;}
	.st1{fill:#231F20;}
	.st2{fill:none;}
</style>
<g>
	<path d="M20.81089,6.90645L15.93333,2.2123c-0.08765-0.1441-0.23914-0.2453-0.42029-0.2453
		c-0.00635,0-0.01147,0.00336-0.01782,0.0036c-0.00635-0.00024-0.01196-0.0036-0.01831-0.0036H3.48179
		c-0.27637,0-0.5,0.22363-0.5,0.5v19.03516c0,0.27588,0.22363,0.5,0.5,0.5l16.98242,0.01172
		c0.13281,0,0.25977-0.05273,0.35352-0.14648s0.14648-0.2207,0.14648-0.35352V7.26681
		C20.96421,7.13106,20.90855,7.00069,20.81089,6.90645z M16.01304,3.67666l3.43274,3.30402h-3.43274V3.67666z M3.98179,21.00265
		V2.967h11.03125v4.51367c0,0.27637,0.22363,0.5,0.5,0.5h4.45117v13.03271L3.98179,21.00265z"/>
	<path d="M14.77573,11.11397l-5-3.04492C9.62339,7.9753,9.42905,7.97237,9.27085,8.06026
		C9.11362,8.14913,9.01597,8.31563,9.01597,8.4963v6c0,0.17969,0.09668,0.34521,0.25195,0.43408
		c0.07715,0.04395,0.16211,0.06592,0.24805,0.06592c0.08789,0,0.17578-0.02344,0.25488-0.06934l5-2.95508
		c0.15039-0.08936,0.24414-0.25195,0.24512-0.42725C15.01694,11.36886,14.92612,11.20577,14.77573,11.11397z M10.01597,13.61983
		v-4.2334l3.52832,2.14844L10.01597,13.61983z"/>
	<path d="M7.51597,4.9963h-1c-0.27637,0-0.5,0.22363-0.5,0.5s0.22363,0.5,0.5,0.5h1c0.27637,0,0.5-0.22363,0.5-0.5
		S7.79234,4.9963,7.51597,4.9963z"/>
	<path d="M9.51597,5.9963h1c0.27637,0,0.5-0.22363,0.5-0.5s-0.22363-0.5-0.5-0.5h-1c-0.27637,0-0.5,0.22363-0.5,0.5
		S9.2396,5.9963,9.51597,5.9963z"/>
	<path d="M12.51597,5.9963h1c0.27637,0,0.5-0.22363,0.5-0.5s-0.22363-0.5-0.5-0.5h-1c-0.27637,0-0.5,0.22363-0.5,0.5
		S12.2396,5.9963,12.51597,5.9963z"/>
	<path d="M7.51597,17.9963h-1c-0.27637,0-0.5,0.22363-0.5,0.5s0.22363,0.5,0.5,0.5h1c0.27637,0,0.5-0.22363,0.5-0.5
		S7.79234,17.9963,7.51597,17.9963z"/>
	<path d="M10.51597,17.9963h-1c-0.27637,0-0.5,0.22363-0.5,0.5s0.22363,0.5,0.5,0.5h1c0.27637,0,0.5-0.22363,0.5-0.5
		S10.79234,17.9963,10.51597,17.9963z"/>
	<path d="M13.51597,17.9963h-1c-0.27637,0-0.5,0.22363-0.5,0.5s0.22363,0.5,0.5,0.5h1c0.27637,0,0.5-0.22363,0.5-0.5
		S13.79234,17.9963,13.51597,17.9963z"/>
	<path d="M16.51597,17.9963h-1c-0.27637,0-0.5,0.22363-0.5,0.5s0.22363,0.5,0.5,0.5h1c0.27637,0,0.5-0.22363,0.5-0.5
		S16.79234,17.9963,16.51597,17.9963z"/>
</g>
</svg>
