<?xml version="1.0" encoding="utf-8"?>
<!-- Generator: Adobe Illustrator 22.0.1, SVG Export Plug-In . SVG Version: 6.00 Build 0)  -->
<svg version="1.1" id="Layer_1" xmlns="http://www.w3.org/2000/svg" xmlns:xlink="http://www.w3.org/1999/xlink" x="0px" y="0px"
	 viewBox="0 0 24 24" style="enable-background:new 0 0 24 24;" xml:space="preserve">
<style type="text/css">
	.st0{fill:#221A1C;}
	.st1{fill:#231F20;}
</style>
<path d="M20.48008,1.99825H3.50352c-0.27637,0-0.5,0.22363-0.5,0.5v18.99854c0,0.27637,0.22363,0.5,0.5,0.5h16.97656
	c0.27637,0,0.5-0.22363,0.5-0.5V2.49825C20.98008,2.22188,20.75645,1.99825,20.48008,1.99825z M19.98008,20.99679H4.00352V2.99825
	h15.97656V20.99679z M11.99961,17.98556c2.7666,0,5.01758-2.25049,5.01758-5.0166s-2.25098-5.0166-5.01758-5.0166
	s-5.0166,2.25049-5.0166,5.0166S9.23301,17.98556,11.99961,17.98556z M11.99961,16.98556c-1.91187,0-3.5097-1.34515-3.91278-3.13708
	c0.5235-0.41351,1.78564-1.24841,2.89618-0.70227c1.6875,0.83008,2.91016,1.29932,4.50098,0.29492
	c0.20404-0.12903,0.3703-0.24213,0.52069-0.34875C15.93766,15.24898,14.17222,16.98556,11.99961,16.98556z M15.88731,12.13009
	c-0.01111-0.05066-0.00598-0.09064-0.00177-0.12982c0.01044,0.04163,0.02893,0.07983,0.03796,0.12195L15.88731,12.13009z
	 M11.99961,8.95235c1.8526,0,3.40137,1.26721,3.86346,2.97571c-0.0921,0.09235-0.32892,0.29749-0.91425,0.66736
	c-1.06055,0.67188-1.77637,0.51367-3.52441-0.34668c-1.28027-0.63019-2.58289-0.09424-3.41168,0.42639
	C8.16624,10.59945,9.88535,8.95235,11.99961,8.95235z M6.00156,5.48263c0-0.27637,0.22363-0.5,0.5-0.5h1.00195
	c0.27637,0,0.5,0.22363,0.5,0.5s-0.22363,0.5-0.5,0.5H6.50156C6.2252,5.98263,6.00156,5.75899,6.00156,5.48263z M10.99864,5.48263
	c0-0.27637,0.22363-0.5,0.5-0.5h1.00195c0.27637,0,0.5,0.22363,0.5,0.5s-0.22363,0.5-0.5,0.5h-1.00195
	C11.22227,5.98263,10.99864,5.75899,10.99864,5.48263z M16.00254,5.49434c0-0.27637,0.22363-0.5,0.5-0.5h1.00195
	c0.27637,0,0.5,0.22363,0.5,0.5s-0.22363,0.5-0.5,0.5h-1.00195C16.22618,5.99434,16.00254,5.77071,16.00254,5.49434z"/>
</svg>
