<?xml version="1.0" encoding="utf-8"?>
<!-- Generator: Adobe Illustrator 22.0.1, SVG Export Plug-In . SVG Version: 6.00 Build 0)  -->
<svg version="1.1" id="Layer_1" xmlns="http://www.w3.org/2000/svg" xmlns:xlink="http://www.w3.org/1999/xlink" x="0px" y="0px"
	 viewBox="0 0 16 16" style="enable-background:new 0 0 16 16;" xml:space="preserve">
<style type="text/css">
	.st0{fill:#221A1C;}
	.st1{fill:#231F20;}
	.st2{fill:none;}
</style>
<path d="M13.82482,8.62327L9.28087,4.61937C9.07433,4.43675,8.75841,4.45579,8.57531,4.6638
	c-0.18262,0.20703-0.1626,0.52295,0.04443,0.70557l3.51917,3.10107H2.99767V3.00169h-1v5.96875c0,0.27637,0.22363,0.5,0.5,0.5
	h9.72437l-3.51147,3.16064c-0.20508,0.18457-0.22168,0.50098-0.03711,0.70605c0.09863,0.10986,0.23486,0.16553,0.37158,0.16553
	c0.11914,0,0.23877-0.04248,0.33447-0.12842l4.44922-4.00439c0.10596-0.09521,0.1665-0.23145,0.16553-0.37402
	C13.99328,8.85276,13.93175,8.71751,13.82482,8.62327z"/>
</svg>
