<?xml version="1.0" encoding="utf-8"?>
<!-- Generator: Adobe Illustrator 22.0.1, SVG Export Plug-In . SVG Version: 6.00 Build 0)  -->
<svg version="1.1" id="Layer_1" xmlns="http://www.w3.org/2000/svg" xmlns:xlink="http://www.w3.org/1999/xlink" x="0px" y="0px"
	 viewBox="0 0 16 16" style="enable-background:new 0 0 16 16;" xml:space="preserve">
<style type="text/css">
	.st0{fill:#221A1C;}
	.st1{fill:#231F20;}
	.st2{fill:none;}
</style>
<path d="M7.99999,0.99998c-3.86603,0-7,3.13403-7,7s3.13397,7,7,7c3.86597,0,7-3.13403,7-7S11.86596,0.99998,7.99999,0.99998z
	 M8.65246,12.2263c-0.1875,0.18066-0.43604,0.27246-0.73828,0.27246c-0.30273,0-0.55127-0.0918-0.73926-0.27295
	c-0.18896-0.18262-0.28516-0.41553-0.28516-0.69336c0-0.28125,0.09814-0.51758,0.29102-0.70166
	c0.19189-0.18262,0.43848-0.27539,0.7334-0.27539s0.54102,0.09277,0.73291,0.27539c0.19287,0.18408,0.29102,0.42041,0.29102,0.70166
	C8.9381,11.81077,8.84191,12.04417,8.65246,12.2263z M10.40148,7.24046c-0.14697,0.2915-0.40381,0.61572-0.76318,0.96387
	L9.18761,8.63255C8.92687,8.88401,8.78087,9.16966,8.74279,9.50657L8.71398,9.95628H7.05089v-0.125
	c0-0.5332,0.06641-0.96631,0.19775-1.28662c0.13281-0.32373,0.37598-0.64453,0.72363-0.95361
	c0.32324-0.28809,0.54053-0.52344,0.64453-0.69873c0.09863-0.1665,0.14893-0.34424,0.14893-0.52881
	c0-0.55566-0.23535-0.81445-0.74072-0.81445c-0.24072,0-0.42676,0.07031-0.56836,0.21533
	C7.31359,5.91136,7.24035,6.11253,7.234,6.37864L7.23107,6.50071H5.37316l0.00146-0.12646
	c0.00781-0.74072,0.25244-1.33105,0.72705-1.75342C6.57287,4.2014,7.22033,3.98899,8.02501,3.98899
	c0.81152,0,1.45361,0.20215,1.90869,0.6001c0.45898,0.40283,0.69189,0.97607,0.69189,1.70312
	C10.6256,6.62523,10.54992,6.94456,10.40148,7.24046z"/>
</svg>
